<svg xmlns="http://www.w3.org/2000/svg" xmlns:xlink="http://www.w3.org/1999/xlink" width="56.763" height="57.368" viewBox="0 0 56.763 57.368"><defs><clipPath id="a"><rect width="56.763" height="57.368" transform="translate(0 0)" fill="#63bb7c"/></clipPath></defs><g clip-path="url(#a)"><path d="M56.058,32.667H51.017v-.3a5.9,5.9,0,0,0-5.646-5.948V3.73a.651.651,0,0,0-.6-.6H8.167a.651.651,0,0,0-.605.6V56.763a.651.651,0,0,0,.605.6H56.058a.65.65,0,0,0,.6-.6V33.271a.65.65,0,0,0-.6-.6m-6.251-.3v.3H40.329v-.3a4.733,4.733,0,0,1,4.739-4.738,4.8,4.8,0,0,1,4.739,4.738M44.06,7.461H8.772V4.336H44.06ZM8.772,8.771H44.06V26.516a6.066,6.066,0,0,0-5.041,5.949v.3H33.978a.652.652,0,0,0-.606.605V56.158H8.772ZM34.683,56.158V33.977H39.12v4.436a.6.6,0,1,0,1.209,0V33.977h9.478v4.436a.6.6,0,1,0,1.21,0V33.977h4.436v5.041H53.537a.6.6,0,0,0,0,1.21h1.916v.6H53.537a.6.6,0,1,0,0,1.21h1.916v.6H53.537a.6.6,0,1,0,0,1.209h1.916v.606H53.537a.6.6,0,1,0,0,1.21h1.916v.6H53.537a.6.6,0,1,0,0,1.21h1.916v.606H53.537a.605.605,0,0,0,0,1.21h1.916v3.125H37.809a.6.6,0,1,0,0,1.21H55.453v2.016H34.683Z" fill="#63bb7c"/><path d="M17.039,17.543H12a.649.649,0,0,0-.6.605v5.041a.649.649,0,0,0,.6.605h5.041a.651.651,0,0,0,.606-.605V18.148a.651.651,0,0,0-.606-.605m-.706,5.042H12.5V18.753h3.831Z" fill="#63bb7c"/><path d="M19.56,20.063h12.6a.6.6,0,1,0,0-1.209H19.56a.65.65,0,0,0-.6.6c-.1.3.2.6.6.6" fill="#63bb7c"/><path d="M19.56,22.585H41.036a.605.605,0,0,0,0-1.21H19.56a.65.65,0,0,0-.6.6c-.1.3.2.6.6.6" fill="#63bb7c"/><path d="M17.039,26.416H12a.649.649,0,0,0-.6.6v5.041a.65.65,0,0,0,.6.606h5.041a.652.652,0,0,0,.606-.606V27.02a.581.581,0,0,0-.606-.6m-.706,5.041H12.5V27.626h3.831Z" fill="#63bb7c"/><path d="M19.56,28.936h8.872a.605.605,0,1,0,0-1.21H19.56a.651.651,0,0,0-.6.6c-.1.3.2.605.6.605" fill="#63bb7c"/><path d="M19.56,31.457H34.683a.605.605,0,1,0,0-1.21H19.56a.651.651,0,0,0-.6.6c-.1.3.2.605.6.605" fill="#63bb7c"/><path d="M17.039,35.187H12a.649.649,0,0,0-.6.6v5.041a.649.649,0,0,0,.6.6h5.041a.651.651,0,0,0,.606-.6V35.792a.651.651,0,0,0-.606-.6m-.706,5.041H12.5V36.4h3.831Z" fill="#63bb7c"/><path d="M19.56,37.708h6.352a.6.6,0,0,0,0-1.21H19.56a.651.651,0,0,0-.6.6c-.1.3.2.6.6.6" fill="#63bb7c"/><path d="M19.56,40.228H30.248a.605.605,0,0,0,0-1.21H19.56a.651.651,0,0,0-.6.6c-.1.3.2.6.6.6" fill="#63bb7c"/><path d="M17.039,44.059H12a.65.65,0,0,0-.6.605v5.042a.649.649,0,0,0,.6.6h5.041a.651.651,0,0,0,.606-.6V44.664a.582.582,0,0,0-.606-.605M16.333,49.1H12.5V45.269h3.831Z" fill="#63bb7c"/><path d="M19.56,46.58h6.352a.605.605,0,0,0,0-1.21H19.56a.651.651,0,0,0-.6.606c-.1.3.2.6.6.6" fill="#63bb7c"/><path d="M30.247,47.79H19.559a.605.605,0,0,0,0,1.21H30.247a.605.605,0,0,0,0-1.21" fill="#63bb7c"/><path d="M2.52,36.5a2.521,2.521,0,0,0,0,5.041,2.521,2.521,0,1,0,0-5.041m0,3.73a1.311,1.311,0,0,1,0-2.622,1.311,1.311,0,0,1,0,2.622" fill="#63bb7c"/><path d="M52.932,11.292a3.832,3.832,0,1,0,3.831,3.832,3.893,3.893,0,0,0-3.831-3.832m0,6.251a2.52,2.52,0,1,1,2.521-2.521,2.5,2.5,0,0,1-2.521,2.521" fill="#63bb7c"/><path d="M49.4,0a.908.908,0,1,1-.908.908A.907.907,0,0,1,49.4,0" fill="#63bb7c"/><path d="M55.755,6.856a.907.907,0,1,1-.907.907.907.907,0,0,1,.907-.907" fill="#63bb7c"/><path d="M53.839,23.9a.907.907,0,1,1-.907.907.907.907,0,0,1,.907-.907" fill="#63bb7c"/><path d="M.907,5.041A.908.908,0,1,1,0,5.949a.907.907,0,0,1,.907-.908" fill="#63bb7c"/><path d="M4.739,26.416a.907.907,0,1,1-.908.907.907.907,0,0,1,.908-.907" fill="#63bb7c"/><path d="M5.344,51.621a.907.907,0,1,1-.907.907.907.907,0,0,1,.907-.907" fill="#63bb7c"/></g></svg>