<svg xmlns="http://www.w3.org/2000/svg" xmlns:xlink="http://www.w3.org/1999/xlink" width="96" height="98.167" viewBox="0 0 96 98.167"><defs><clipPath id="a"><rect width="96" height="98.167" fill="#599cb3"/></clipPath></defs><g transform="translate(0 0)"><g transform="translate(0 0)" clip-path="url(#a)"><path d="M56.343,15.325a2,2,0,1,1-2,2,2,2,0,0,1,2-2" transform="translate(35.489 10.009)" fill="#599cb3"/><path d="M55.054,11.433a2.484,2.484,0,0,1,.165,1.165,3.138,3.138,0,0,1-.332,1.334,3.679,3.679,0,0,1-.668.835l-1,.5a3.217,3.217,0,0,1-1.334.169V17.1h-1V15.433a6.039,6.039,0,0,1-1.833-.334,5.236,5.236,0,0,1-1.666-.833l1-2a.584.584,0,0,0,.332.165c.167.167.334.167.668.336.167.165.5.165.833.332a2.13,2.13,0,0,0,1,.165V11.433l-.666-.169a8.058,8.058,0,0,1-1.167-.5,3.656,3.656,0,0,1-.833-.5c-.167-.167-.334-.5-.5-.666a2.114,2.114,0,0,1-.167-1,3.663,3.663,0,0,1,.167-1.334,3.513,3.513,0,0,1,.666-1,3.536,3.536,0,0,1,1-.666,3.1,3.1,0,0,1,1.167-.334V3.933h1V5.265a4.92,4.92,0,0,1,1.666.334,9.894,9.894,0,0,1,1.334.666l-1,1.833-.167-.165c-.167-.169-.332-.169-.5-.334s-.5-.167-.668-.334A1.244,1.244,0,0,0,51.72,7.1V8.932l.5.167c.5.167.833.334,1.332.5.334.165.666.334,1,.5a3.661,3.661,0,0,0,.5,1.334M51.887,13.6c.666,0,1-.334,1-.666,0-.165-.167-.5-.334-.5a1.275,1.275,0,0,0-.833-.332ZM51.22,9.433V7.765c-.666,0-1,.334-1,.835a.61.61,0,0,0,.167.5,2.815,2.815,0,0,1,.833.334" transform="translate(30.947 2.569)" fill="#599cb3"/><path d="M46.261,16.636a2,2,0,1,1-2,2,2,2,0,0,1,2-2" transform="translate(28.905 10.865)" fill="#599cb3"/><path d="M32.348,44.362a2,2,0,1,1-2,2,2,2,0,0,1,2-2" transform="translate(19.819 28.972)" fill="#599cb3"/><path d="M28.617,44.362a2,2,0,1,1-2,2,2,2,0,0,1,2-2" transform="translate(17.383 28.972)" fill="#599cb3"/><path d="M16.014,6.554a2,2,0,1,1-2,2,2,2,0,0,1,2-2" transform="translate(9.152 4.281)" fill="#599cb3"/><path d="M12.2,16.343a2.465,2.465,0,0,1,.167,1.167,3.13,3.13,0,0,1-.334,1.332,3.723,3.723,0,0,1-.666.835l-1,.5a3.114,3.114,0,0,1-1.334.334v1.666h-1V20.508A5.94,5.94,0,0,1,6.2,20.174a5.136,5.136,0,0,1-1.666-.833l1-2a.581.581,0,0,0,.334.169c.165.167.332.167.666.332.167.167.5.167.833.334a2.111,2.111,0,0,0,1,.167V16.51L7.7,16.343a8.111,8.111,0,0,1-1.167-.5,3.52,3.52,0,0,1-.833-.5c-.167-.165-.332-.5-.5-.666a1.234,1.234,0,0,1-.169-.833A3.625,3.625,0,0,1,5.2,12.509a3.457,3.457,0,0,1,.666-1,3.423,3.423,0,0,1,1-.666,3.08,3.08,0,0,1,1.165-.334V9.175h1v1.334a4.93,4.93,0,0,1,1.668.334,9.865,9.865,0,0,1,1.332.666l-1,1.833-.167-.167c-.165,0-.332-.167-.5-.332s-.5-.167-.666-.334a1.5,1.5,0,0,0-.833-.167v1.833l.5.167c.5.167.833.332,1.334.5l1,.5a5.458,5.458,0,0,0,.5,1M9.037,18.51c.668,0,1-.334,1-.668,0-.165-.165-.5-.332-.5a1.282,1.282,0,0,0-.833-.332c.165-.165.165,1.5.165,1.5M8.37,14.342V12.676c-.666,0-1,.332-1,.833a.61.61,0,0,0,.167.5,2.815,2.815,0,0,1,.833.334" transform="translate(2.963 5.992)" fill="#599cb3"/><path d="M6,48.409a2.207,2.207,0,0,1-2.167-2.167V40.076A2.208,2.208,0,0,1,6,37.909a2.208,2.208,0,0,1,2.167,2.167v6.335a2.474,2.474,0,0,1-2.167,2" transform="translate(2.502 24.757)" fill="#599cb3"/><path d="M53.888,48.409a2.207,2.207,0,0,1-2.167-2.167V40.076a2.167,2.167,0,1,1,4.334,0v6.335a2.473,2.473,0,0,1-2.167,2" transform="translate(33.777 24.757)" fill="#599cb3"/><path d="M34.7,44.093a14.334,14.334,0,1,1,0-28.667,2.167,2.167,0,0,1,0,4.334,10.166,10.166,0,1,0,0,20.333,2.208,2.208,0,0,1,2.167,2.167A2.049,2.049,0,0,1,34.7,44.093" transform="translate(13.3 10.075)" fill="#599cb3"/><path d="M31.868,34.2a7.166,7.166,0,1,1,7.166-7.168A7.219,7.219,0,0,1,31.868,34.2m0-10.166a3,3,0,1,0,3,3,2.988,2.988,0,0,0-3-3" transform="translate(16.132 12.972)" fill="#599cb3"/><path d="M33.179,22.188a2.4,2.4,0,0,1-1-.334,2.137,2.137,0,0,1-.833-2.833l1.334-2.167a2.088,2.088,0,0,1,3.666,2l-1.334,2.334a2.3,2.3,0,0,1-1.833,1" transform="translate(20.321 10.313)" fill="#599cb3"/><path d="M35.6,24.212a2.092,2.092,0,0,1-1.833-1A2.134,2.134,0,0,1,34.6,20.38l2.167-1.334a2.088,2.088,0,1,1,2,3.666L36.6,24.046a2.13,2.13,0,0,1-1,.165" transform="translate(21.901 12.289)" fill="#599cb3"/><path d="M39.048,27.119h-2.5a2.166,2.166,0,0,1,0-4.333h2.5a2.166,2.166,0,1,1,0,4.333" transform="translate(22.453 14.881)" fill="#599cb3"/><path d="M37.831,31.738a2.386,2.386,0,0,1-1-.332L34.5,30.072a2.088,2.088,0,0,1,2-3.666l2.166,1.332a2.137,2.137,0,0,1,.833,2.835,2,2,0,0,1-1.666,1.165" transform="translate(21.835 17.095)" fill="#599cb3"/><path d="M34.412,34.926a2.092,2.092,0,0,1-1.833-1L31.245,31.76a2.088,2.088,0,0,1,3.666-2l1.334,2.167a2.133,2.133,0,0,1-.833,2.832c-.167,0-.666.167-1,.167" transform="translate(20.255 18.741)" fill="#599cb3"/><path d="M76.395,71.661H9.728a2.208,2.208,0,0,1-2.167-2.167v-39.5a2.209,2.209,0,0,1,2.167-2.167H25.561a2.166,2.166,0,1,1,0,4.333H11.9v35.5h62.5V32.16H60.728a2.166,2.166,0,1,1,0-4.333H76.395a2.208,2.208,0,0,1,2.167,2.167V69.661a2.183,2.183,0,0,1-2.167,2" transform="translate(4.938 18.173)" fill="#599cb3"/><path d="M87.832,83.352H8.166A8.181,8.181,0,0,1,0,75.186V31.019a8.18,8.18,0,0,1,8.166-8.168H21.5a2.166,2.166,0,1,1,0,4.333H8.166a4.058,4.058,0,0,0-4,4V75.351a4.057,4.057,0,0,0,4,4H87.832a4.056,4.056,0,0,0,4-4V31.019a4.056,4.056,0,0,0-4-4H74.5a2.166,2.166,0,0,1,0-4.333H87.832A8.181,8.181,0,0,1,96,30.852V75.019a8.219,8.219,0,0,1-8.168,8.333" transform="translate(0 14.816)" fill="#599cb3"/><path d="M42.8,63.956h-5a1.98,1.98,0,0,1-2-1.666l-1.332-6.333a19.889,19.889,0,0,1-4.334-1.835l-5.5,3.5a2.293,2.293,0,0,1-2.666-.334l-3.5-3.5a2.263,2.263,0,0,1-.332-2.666l3.5-5.5c-.167-.332-.5-.833-.666-1.167A17.729,17.729,0,0,1,19.8,41.291l-6.333-1.334a1.98,1.98,0,0,1-1.666-2v-5a1.977,1.977,0,0,1,1.666-2L19.8,29.624a19.986,19.986,0,0,1,1.833-4.333l-3.5-5.5a2.3,2.3,0,0,1,.332-2.668l3.5-3.5a2.266,2.266,0,0,1,2.666-.334l5.5,3.5a19.879,19.879,0,0,1,4.334-1.832L35.8,8.625a1.98,1.98,0,0,1,2-1.668h5a1.98,1.98,0,0,1,2,1.668l1.332,6.333a19.832,19.832,0,0,1,4.333,1.832l5.5-3.5a2.3,2.3,0,0,1,2.666.334l3.5,3.5a2.268,2.268,0,0,1,.334,2.668l-3.5,5.5A19.9,19.9,0,0,1,60.8,29.624l6.333,1.334a1.979,1.979,0,0,1,1.668,2v5a1.981,1.981,0,0,1-1.668,2L60.8,41.291a24.1,24.1,0,0,1-1.167,3.166,4.107,4.107,0,0,1-.666,1.167l3.5,5.5a2.3,2.3,0,0,1-.334,2.666l-3.5,3.667a2.264,2.264,0,0,1-2.666.334l-5.5-3.5a19.832,19.832,0,0,1-4.333,1.832L44.8,62.457a2,2,0,0,1-2,1.5m-3.334-4.166h1.666l1.334-6a1.968,1.968,0,0,1,1.5-1.5,16.167,16.167,0,0,0,5.5-2.332,1.751,1.751,0,0,1,2.167,0L56.8,53.289l1.167-1.165L54.63,46.956a1.753,1.753,0,0,1,0-2.166,17.859,17.859,0,0,1,1-1.835,14.344,14.344,0,0,0,1.165-3.5,1.975,1.975,0,0,1,1.5-1.5l6-1.334V34.958l-6-1.334a1.975,1.975,0,0,1-1.5-1.5,16.089,16.089,0,0,0-2.332-5.5,1.753,1.753,0,0,1,0-2.169L57.8,19.291l-.831-1.666L51.8,20.957a1.751,1.751,0,0,1-2.167,0,20.219,20.219,0,0,0-5.5-2.332,1.97,1.97,0,0,1-1.5-1.5l-1.334-6H39.63l-1.5,5.834a1.968,1.968,0,0,1-1.5,1.5,16.167,16.167,0,0,0-5.5,2.332,1.751,1.751,0,0,1-2.167,0L23.8,17.457,22.63,18.624l3.333,5.166a1.751,1.751,0,0,1,0,2.167,20.322,20.322,0,0,0-2.332,5.5,1.973,1.973,0,0,1-1.5,1.5l-6,1.332v1.666l6,1.334a1.968,1.968,0,0,1,1.5,1.5,21.454,21.454,0,0,0,1.167,3.5,18.491,18.491,0,0,0,1,1.833,1.751,1.751,0,0,1,0,2.167l-3.333,5.167,1.167,1.165L28.8,49.289a1.76,1.76,0,0,1,2.167,0,20.247,20.247,0,0,0,5.5,2.336,1.968,1.968,0,0,1,1.5,1.5Z" transform="translate(7.704 4.544)" fill="#599cb3"/><path d="M54.351,24.245h-.334A11.528,11.528,0,0,1,42.851,12.412a11.4,11.4,0,0,1,3.5-7.834,11.058,11.058,0,0,1,8-3.166h.334a12.128,12.128,0,0,1,8,3.5,11.447,11.447,0,0,1,3.167,8.166,11.4,11.4,0,0,1-3.5,7.832,10.569,10.569,0,0,1-8,3.334m0-18.666a7.364,7.364,0,0,0-7.333,7.166,7.257,7.257,0,0,0,7,7.5h.167a7.364,7.364,0,0,0,7.333-7.166,7.176,7.176,0,0,0-2-5.167,6.251,6.251,0,0,0-5-2.332Z" transform="translate(27.982 0.923)" fill="#599cb3"/><path d="M11.5,29.292h-.334a11.575,11.575,0,0,1-8-3.666,11.263,11.263,0,0,1,.332-16A10.918,10.918,0,0,1,11.834,6.46a12.131,12.131,0,0,1,8,3.5,11.263,11.263,0,0,1-.334,16,10.572,10.572,0,0,1-8,3.334m0-18.666a7.366,7.366,0,0,0-7.335,7.166,7.177,7.177,0,0,0,2,5.167,8.258,8.258,0,0,0,5.167,2.332H11.5a7.365,7.365,0,0,0,7.333-7.166,7.17,7.17,0,0,0-2-5.167,8.266,8.266,0,0,0-5.167-2.332Z" transform="translate(0 4.209)" fill="#599cb3"/><path d="M23.625,12.752a2.031,2.031,0,0,1-1.5-.666,2.113,2.113,0,0,1,0-3l2.666-2.666L22.126,3.753a2.122,2.122,0,0,1,3-3L29.292,4.92a2.111,2.111,0,0,1,0,3l-4.166,4.167a2.992,2.992,0,0,1-1.5.666" transform="translate(14.042 0.083)" fill="#599cb3"/><path d="M40.188,8.667H23.52A2.206,2.206,0,0,1,21.354,6.5V4.334H4.688A2.208,2.208,0,0,1,2.521,2.167,2.207,2.207,0,0,1,4.688,0H23.52a2.207,2.207,0,0,1,2.169,2.167V4.334H40.355A2.2,2.2,0,0,1,42.52,6.5a2.819,2.819,0,0,1-2.332,2.167" transform="translate(1.646 0)" fill="#599cb3"/><path d="M30.646,48.494H15.98a2.167,2.167,0,0,1,0-4.334H30.646a2.167,2.167,0,0,1,0,4.334" transform="translate(9.021 28.84)" fill="#599cb3"/><path d="M56.975,52.325H23.642a2.167,2.167,0,1,1,0-4.334H56.975a2.207,2.207,0,0,1,2.167,2.167,2.473,2.473,0,0,1-2.167,2.167" transform="translate(14.025 31.342)" fill="#599cb3"/><path d="M39.1,12.768a6.333,6.333,0,1,1,6.333-6.333A6.332,6.332,0,0,1,39.1,12.768m0-8.333A2.207,2.207,0,0,0,36.934,6.6a2.166,2.166,0,0,0,4.333,0A2.1,2.1,0,0,0,39.1,4.435" transform="translate(21.399 0.067)" fill="#599cb3"/></g></g></svg>