<svg xmlns="http://www.w3.org/2000/svg" xmlns:xlink="http://www.w3.org/1999/xlink" width="54.746" height="53.868" viewBox="0 0 54.746 53.868"><defs><clipPath id="a"><rect width="54.746" height="53.868" transform="translate(0 0)" fill="#63bb7c"/></clipPath></defs><g transform="translate(0 0)"><g clip-path="url(#a)"><path d="M40.631,13.208h0C30.145,2.723,30.65,3.125,30.145,2.723a1,1,0,0,0-.5-.4,5.8,5.8,0,0,0-7.057.806L2.419,23.29a5.721,5.721,0,0,0,0,8.066c.1.1,10.082,10.082,9.982,9.981C23.894,52.73,23.289,52.226,23.894,52.629a1,1,0,0,0,.505.4,5.8,5.8,0,0,0,7.057-.806L51.62,32.062a5.72,5.72,0,0,0,0-8.067ZM23.491,4.033a4.522,4.522,0,0,1,5.041-.908l-7.46,7.461a.752.752,0,0,0,0,.908.754.754,0,0,0,.907,0l7.662-7.663,9.78,9.78-3.832,3.831a.6.6,0,0,0,.3,1.008,3.79,3.79,0,0,1,1.512.908,3.563,3.563,0,0,1-.1,5.142,3.653,3.653,0,0,1-5.141.1,3.794,3.794,0,0,1-.908-1.513.613.613,0,0,0-.907-.4c-.1,0-.1,0-3.428,3.427L24.3,23.491a4.863,4.863,0,1,0-6.755-6.755l-3.327-3.327ZM3.326,24.2l9.881-9.88,3.932,3.932a.629.629,0,0,0,1.009-.2,6.714,6.714,0,0,1,.7-1.108,3.649,3.649,0,0,1,5.142,0,3.6,3.6,0,0,1-1.109,5.847.628.628,0,0,0-.2,1.008l3.227,3.227-2.622,2.621a4.776,4.776,0,0,0-4.94-2.017A4.847,4.847,0,0,0,16.534,36.4L12.9,40.026,3.326,30.448a4.442,4.442,0,0,1,0-6.251M30.548,51.319a4.521,4.521,0,0,1-5.041.907l8.268-8.268a.642.642,0,0,0-.908-.907L24.5,51.419,13.913,40.833,18.047,36.7a.629.629,0,0,0-.2-1.008,3.625,3.625,0,0,1,.806-6.856,3.525,3.525,0,0,1,3.933,2.017.628.628,0,0,0,1.008.2l3.226-3.226,2.622,2.621A4.863,4.863,0,1,0,36.195,37.2l4.133,4.134ZM50.612,31.255l-9.376,9.376L36.5,35.893a.628.628,0,0,0-1.008.2A3.7,3.7,0,0,1,29.641,37.2a3.6,3.6,0,0,1,1.109-5.847.629.629,0,0,0,.2-1.008l-3.227-3.227L30.347,24.5a4.846,4.846,0,0,0,7.763,1.008A4.9,4.9,0,0,0,37.1,17.744l3.126-3.125L50.612,25a4.267,4.267,0,0,1,0,6.251" fill="#63bb7c"/><path d="M4.335,43.454a3.831,3.831,0,1,0,3.831,3.831,3.829,3.829,0,0,0-3.831-3.831m0,6.251a2.521,2.521,0,1,1,0-5.041,2.521,2.521,0,0,1,0,5.041" fill="#63bb7c"/><path d="M47.185,10.082a3.125,3.125,0,1,0-3.126-3.125,3.141,3.141,0,0,0,3.126,3.125m0-5.041a1.915,1.915,0,1,1-1.916,1.916,1.914,1.914,0,0,1,1.916-1.916" fill="#63bb7c"/><path d="M39.32,0a.907.907,0,1,1-.907.907A.908.908,0,0,1,39.32,0" fill="#63bb7c"/><path d="M53.839,13.913a.907.907,0,1,1-.908.907.907.907,0,0,1,.908-.907" fill="#63bb7c"/><path d="M51.923,39.119a.907.907,0,1,1-.908.907.907.907,0,0,1,.908-.907" fill="#63bb7c"/><path d="M34.582,41.64a.605.605,0,1,1-.6.6.6.6,0,0,1,.6-.6" fill="#63bb7c"/><path d="M43.051,49.806a.907.907,0,1,1-.907.908.907.907,0,0,1,.907-.908" fill="#63bb7c"/><path d="M16.03,50.411a.907.907,0,1,1-.907.907.908.908,0,0,1,.907-.907" fill="#63bb7c"/><path d="M.907,35.893A.907.907,0,1,1,0,36.8a.907.907,0,0,1,.907-.907" fill="#63bb7c"/><path d="M1.512,13.913a.907.907,0,1,1-.907.907.907.907,0,0,1,.907-.907" fill="#63bb7c"/><path d="M9.679,3.125a.908.908,0,1,1-.907.908.907.907,0,0,1,.907-.908" fill="#63bb7c"/></g></g></svg>