<svg xmlns="http://www.w3.org/2000/svg" xmlns:xlink="http://www.w3.org/1999/xlink" width="56.158" height="55.553" viewBox="0 0 56.158 55.553"><defs><clipPath id="a"><rect width="56.158" height="55.553" transform="translate(0 0)" fill="#63bb7c"/></clipPath></defs><g transform="translate(0 0)"><g clip-path="url(#a)"><path d="M25.2,27.726l2.319,1.915,1.815,1.614a3.153,3.153,0,0,1-.3,5.04l-7.058,4.537a.657.657,0,0,0,.7,1.11L29.742,37.4a4.405,4.405,0,0,0,.5-7.058c-.4-.4-3.63-3.125-4.134-3.529a3.148,3.148,0,0,1,0-4.839l4.638-3.831v4.033a.605.605,0,0,0,1.21,0V16.635a.351.351,0,0,0-.1-.2.756.756,0,0,0-.4-.2H26.113a.6.6,0,1,0,0,1.21h3.629l-4.335,3.63A4.254,4.254,0,0,0,23.794,24.4,3.762,3.762,0,0,0,25.2,27.726" fill="#63bb7c"/><path d="M21.072,29.137,18.35,33.776a.694.694,0,0,0,.6,1.008H24.4a.639.639,0,0,0,.5-1.008l-2.722-4.639a.556.556,0,0,0-.5-.3.49.49,0,0,0-.6.3m2.218,4.336H19.963l1.613-2.823Z" fill="#63bb7c"/><path d="M4.033,2.521a.907.907,0,1,1-.907.907.907.907,0,0,1,.907-.907" fill="#63bb7c"/><path d="M41.942.706a.908.908,0,1,1-.908.907.907.907,0,0,1,.908-.907" fill="#63bb7c"/><path d="M53.234,15.829a.907.907,0,1,1-.908.907.907.907,0,0,1,.908-.907" fill="#63bb7c"/><path d="M2.218,17.644a.908.908,0,1,1-.907.908.908.908,0,0,1,.907-.908" fill="#63bb7c"/><path d="M51.318,41.639a.907.907,0,1,1-.907.907.907.907,0,0,1,.907-.907" fill="#63bb7c"/><path d="M4.134,49.806a.907.907,0,1,1-.907.907.907.907,0,0,1,.907-.907" fill="#63bb7c"/><path d="M43.656,6.351H38.312A3.726,3.726,0,0,0,35.59,5.242H31.759a3.831,3.831,0,0,0-7.662,0H20.266a3.9,3.9,0,0,0-2.723,1.109H11.494a4.261,4.261,0,0,0-4.235,4.235V51.318a4.261,4.261,0,0,0,4.235,4.235H43.353a4.26,4.26,0,0,0,4.235-4.235V10.485a3.757,3.757,0,0,0-3.932-4.134m-23.089.1H25a.649.649,0,0,0,.6-.605V5.242a2.521,2.521,0,0,1,5.042,0v.605a.65.65,0,0,0,.6.605h4.436a2.52,2.52,0,1,1,0,5.041H20.567a2.52,2.52,0,0,1,0-5.041M46.58,51.217a2.926,2.926,0,0,1-2.924,2.924H11.8a2.926,2.926,0,0,1-2.924-2.924V10.485A2.926,2.926,0,0,1,11.8,7.561h5.243A3.762,3.762,0,0,0,20.567,12.7H35.691A3.791,3.791,0,0,0,39.22,7.561h4.537a2.926,2.926,0,0,1,2.924,2.924V51.217Z" fill="#63bb7c"/><path d="M42.244,17.644a.65.65,0,0,0-.6.605V49.807H13.812V24.6a.605.605,0,1,0-1.21,0v25.81a.651.651,0,0,0,.606.6H42.244a.65.65,0,0,0,.6-.6V18.249a.651.651,0,0,0-.6-.605" fill="#63bb7c"/><path d="M52.326,0a3.83,3.83,0,0,0-3.831,3.832,3.745,3.745,0,0,0,3.831,3.73,3.83,3.83,0,0,0,3.832-3.831A3.809,3.809,0,0,0,52.326,0m0,6.352a2.5,2.5,0,0,1-2.52-2.52,2.521,2.521,0,1,1,5.041,0,2.56,2.56,0,0,1-2.521,2.52" fill="#63bb7c"/><path d="M3.126,39.119a3.125,3.125,0,1,0,3.125,3.126,3.141,3.141,0,0,0-3.125-3.126m0,5.041a1.916,1.916,0,1,1,0-3.831,1.854,1.854,0,0,1,1.915,1.916A1.982,1.982,0,0,1,3.126,44.16" fill="#63bb7c"/><path d="M35.389,42.849a2.521,2.521,0,1,0-2.52-2.52,2.5,2.5,0,0,0,2.52,2.52m0-3.73a1.311,1.311,0,1,1-1.311,1.311,1.335,1.335,0,0,1,1.311-1.311" fill="#63bb7c"/><path d="M19.056,22.685a2.521,2.521,0,1,0-2.521-2.52,2.5,2.5,0,0,0,2.521,2.52m0-3.73a1.311,1.311,0,1,1-1.311,1.311,1.271,1.271,0,0,1,1.311-1.311" fill="#63bb7c"/><path d="M30.146,43.05a.755.755,0,0,0-.908,0l-1.411,1.412L26.414,43.05a.642.642,0,0,0-.907.908l1.412,1.411L25.507,46.78a.655.655,0,0,0,.4,1.11.525.525,0,0,0,.4-.2l1.412-1.412,1.411,1.412a.642.642,0,0,0,.907-.909l-1.411-1.411,1.411-1.411c.4-.3.4-.706.1-.908" fill="#63bb7c"/><path d="M33.977,31.557h5.042a.605.605,0,0,0,0-1.21H33.977a.605.605,0,1,0,0,1.21" fill="#63bb7c"/><path d="M33.977,29.642h5.042a.605.605,0,0,0,0-1.21H33.977a.605.605,0,1,0,0,1.21" fill="#63bb7c"/><path d="M33.977,27.726h5.042a.605.605,0,0,0,0-1.21H33.977a.605.605,0,1,0,0,1.21" fill="#63bb7c"/><path d="M33.977,25.81h5.042a.605.605,0,0,0,0-1.21H33.977a.605.605,0,1,0,0,1.21" fill="#63bb7c"/><path d="M33.977,24h5.042a.605.605,0,0,0,0-1.21H33.977a.605.605,0,1,0,0,1.21" fill="#63bb7c"/></g></g></svg>