<svg xmlns="http://www.w3.org/2000/svg" xmlns:xlink="http://www.w3.org/1999/xlink" width="54.141" height="59.183" viewBox="0 0 54.141 59.183"><defs><clipPath id="a"><rect width="54.141" height="59.183" transform="translate(0 0)" fill="#fff"/></clipPath></defs><g clip-path="url(#a)"><path d="M50.007,7.461H6.553A4.088,4.088,0,0,0,2.419,11.6V55.049a4.09,4.09,0,0,0,4.134,4.134H50.007a4.09,4.09,0,0,0,4.134-4.134V11.6a4.152,4.152,0,0,0-4.134-4.134M52.83,11.6v5.948H32.666V8.671H50.007A2.9,2.9,0,0,1,52.83,11.6M3.73,13.712H31.456v3.831H3.73ZM6.553,8.771h24.9V12.6H3.73v-.907A2.842,2.842,0,0,1,6.553,8.771m43.454,49.1H6.553A2.818,2.818,0,0,1,3.73,55.049v-36.2h49.2v36.2a2.905,2.905,0,0,1-2.924,2.823" fill="#fff"/><path d="M40.934,11.8a1.311,1.311,0,1,1-1.311,1.311A1.31,1.31,0,0,1,40.934,11.8" fill="#fff"/><path d="M44.664,11.8a1.311,1.311,0,1,1-1.311,1.311A1.311,1.311,0,0,1,44.664,11.8" fill="#fff"/><path d="M48.495,11.8a1.311,1.311,0,1,1-1.311,1.311A1.311,1.311,0,0,1,48.495,11.8" fill="#fff"/><path d="M48.495,22.584H8.167a.651.651,0,0,0-.605.6V53.435a.65.65,0,0,0,.605.6H48.495a.65.65,0,0,0,.6-.6V23.189a.651.651,0,0,0-.6-.6m-.7,30.247H8.771V23.894H47.89V52.831Z" fill="#fff"/><path d="M35.288,41.74A1.783,1.783,0,0,0,37,39.421a1.809,1.809,0,0,0-1.714-1.209,1.783,1.783,0,0,0-1.714,2.318,1.757,1.757,0,0,0,1.714,1.21m0-2.319a.516.516,0,0,1,.5.4.537.537,0,0,1-.5.706.513.513,0,0,1-.5-.4.571.571,0,0,1,.5-.706" fill="#fff"/><path d="M39.522,46.681a1.81,1.81,0,0,0,1.714,1.21,1.784,1.784,0,0,0,1.714-2.32,1.811,1.811,0,0,0-1.714-1.21,1.783,1.783,0,0,0-1.714,2.32m2.218-.3a.519.519,0,1,1-.2-.706c.1,0,.3.4.2.706" fill="#fff"/><path d="M35.49,48.394h0a1.773,1.773,0,0,0,2.419-.706l3.832-7.561a1.7,1.7,0,0,0-.807-2.32h-.1a1.725,1.725,0,0,0-2.319.807l-3.73,7.36a1.8,1.8,0,0,0,.706,2.42m.4-1.814,3.831-7.563c.1-.2.2-.3.4-.3s.2.1.3.1a.579.579,0,0,1,.2.706L36.8,47.084a.578.578,0,0,1-.7.2.756.756,0,0,1-.3-.3c0-.2,0-.3.1-.4" fill="#fff"/><path d="M29.944,45.773a8.512,8.512,0,0,0,16.131-5.444,8.441,8.441,0,0,0-8.065-5.848,8.669,8.669,0,0,0-8.066,11.292m8.066-9.981a7.225,7.225,0,0,1,6.453,10.485A7.235,7.235,0,1,1,38.01,35.792" fill="#fff"/><path d="M13.208,27.625H27.726a.605.605,0,0,0,0-1.21H13.208a.652.652,0,0,0-.606.6.582.582,0,0,0,.606.6" fill="#fff"/><path d="M20.769,29.541a.651.651,0,0,0,.605.6H32.061a.6.6,0,1,0,0-1.21H21.374a.581.581,0,0,0-.605.6" fill="#fff"/><path d="M27.02,31.456H16.938a.605.605,0,0,0,0,1.21H27.02a.65.65,0,0,0,.6-.6.582.582,0,0,0-.6-.606" fill="#fff"/><path d="M21.979,34.582a.65.65,0,0,0,.6.6H29.54a.605.605,0,1,0,0-1.21H22.584a.65.65,0,0,0-.6.6" fill="#fff"/><path d="M28.935,31.456a.605.605,0,1,1-.6.606.606.606,0,0,1,.6-.606" fill="#fff"/><path d="M11.292,26.415a.6.6,0,1,1-.6.6.6.6,0,0,1,.6-.6" fill="#fff"/><path d="M9.376,6.251A1.915,1.915,0,1,0,7.46,4.335,1.984,1.984,0,0,0,9.376,6.251m0-2.521a.65.65,0,0,1,.6.605.6.6,0,1,1-1.209,0,.651.651,0,0,1,.605-.605" fill="#fff"/><path d="M49.705,6.251a3.126,3.126,0,1,0-3.126-3.126,3.141,3.141,0,0,0,3.126,3.126m0-5.041a1.915,1.915,0,1,1-1.916,1.915A1.914,1.914,0,0,1,49.705,1.21" fill="#fff"/><path d="M.907,6.855A.908.908,0,1,1,0,7.763a.907.907,0,0,1,.907-.908" fill="#fff"/><path d="M18.551,1.814a.908.908,0,1,1-.907.907.908.908,0,0,1,.907-.907" fill="#fff"/><path d="M31.759,4.335a.908.908,0,1,1-.907.908.907.907,0,0,1,.907-.908" fill="#fff"/><path d="M43.151,1.814a.908.908,0,1,1-.907.907.908.908,0,0,1,.907-.907" fill="#fff"/><path d="M23.29,40.934H21.374V39.623a.605.605,0,0,0-1.21,0v1.311H14.518V39.623a.605.605,0,0,0-1.21,0v1.311H11.393a.567.567,0,0,0-.6.706L11.9,49.2a2.063,2.063,0,0,0,2.016,1.815H20.87A2.064,2.064,0,0,0,22.887,49.2L24,41.64a.751.751,0,0,0-.1-.5.993.993,0,0,0-.6-.2M21.576,49a.856.856,0,0,1-.807.706H13.813A.78.78,0,0,1,13.006,49L12,42.143H22.483Z" fill="#fff"/><path d="M14.417,43.454a.651.651,0,0,0-.6.6V47.89a.605.605,0,0,0,1.21,0V44.059a.535.535,0,0,0-.605-.6" fill="#fff"/><path d="M16.333,43.454a.651.651,0,0,0-.605.6V47.89a.605.605,0,0,0,1.21,0V44.059a.582.582,0,0,0-.6-.6" fill="#fff"/><path d="M18.249,43.454a.652.652,0,0,0-.606.6V47.89a.606.606,0,0,0,1.211,0V44.059a.582.582,0,0,0-.6-.6" fill="#fff"/><path d="M20.063,43.454a.651.651,0,0,0-.6.6V47.89a.6.6,0,0,0,1.21,0V44.059c.1-.4-.2-.6-.6-.6" fill="#fff"/></g></svg>