<svg xmlns="http://www.w3.org/2000/svg" xmlns:xlink="http://www.w3.org/1999/xlink" width="95.594" height="93.049" viewBox="0 0 95.594 93.049"><defs><clipPath id="a"><rect width="95.594" height="93.049" fill="#599cb3"/></clipPath></defs><g transform="translate(0 0)"><rect width="3.977" height="37.697" transform="translate(85.573 43.901)" fill="#599cb3"/><rect width="3.977" height="3.977" transform="translate(85.573 37.855)" fill="#599cb3"/><g transform="translate(0 0)"><g clip-path="url(#a)"><path d="M55.12,15.76a2.02,2.02,0,0,1,.636,1.431,1.73,1.73,0,0,1-.636,1.432,2.02,2.02,0,0,1-1.431.636,2.106,2.106,0,0,1-2.068-2.068,1.729,1.729,0,0,1,.636-1.431,2.015,2.015,0,0,1,1.432-.636,2.367,2.367,0,0,1,1.431.636" transform="translate(29.817 8.735)" fill="#599cb3"/><rect width="71.576" height="3.977" transform="translate(11.93 37.855)" fill="#599cb3"/><path d="M48.769,29.673A2.016,2.016,0,0,1,49.4,31.1a1.548,1.548,0,0,1-.634,1.431,2.019,2.019,0,0,1-1.432.637A2.107,2.107,0,0,1,45.268,31.1a1.724,1.724,0,0,1,.637-1.431,2.011,2.011,0,0,1,1.431-.636,1.551,1.551,0,0,1,1.432.636" transform="translate(26.147 16.772)" fill="#599cb3"/><path d="M48.769,48.527a2.016,2.016,0,0,1,.634,1.431,1.724,1.724,0,0,1-.634,1.431,2.013,2.013,0,0,1-1.432.637,2.107,2.107,0,0,1-2.068-2.068,1.722,1.722,0,0,1,.637-1.431,1.93,1.93,0,0,1,2.863,0" transform="translate(26.147 27.662)" fill="#599cb3"/><path d="M45.039,4.468A2.02,2.02,0,0,1,45.675,5.9a1.725,1.725,0,0,1-.636,1.431,2.019,2.019,0,0,1-1.432.637A2.107,2.107,0,0,1,41.538,5.9a1.731,1.731,0,0,1,.637-1.431,2.359,2.359,0,0,1,1.431-.636,1.551,1.551,0,0,1,1.432.636" transform="translate(23.993 2.213)" fill="#599cb3"/><path d="M38,42.421a2.29,2.29,0,0,0-1.112-.319h-.319V40.829h.319a1.338,1.338,0,0,0,.953-.317.826.826,0,0,0,.32-.636c0-.317-.161-.478-.32-.478-.158-.159-.317-.159-.636-.159a1.192,1.192,0,0,0-.8.159,1.25,1.25,0,0,0-.636.636l-1.114-1.272.478-.476a1.187,1.187,0,0,1,.636-.319,1.434,1.434,0,0,1,.8-.159h.8a2.7,2.7,0,0,1,1.114.159c.319.158.636.158.8.478.159.158.476.317.476.636a1.189,1.189,0,0,1,.159.8.954.954,0,0,1-.159.636c0,.159-.158.317-.317.478s-.319.317-.478.476-.319.159-.636.159c.159,0,.478.159.636.159q.239.237.478.476a.827.827,0,0,1,.317.637,6.791,6.791,0,0,1,.159.8,2.008,2.008,0,0,1-.159.953,1.235,1.235,0,0,1-.636.637l-.953.476a3.106,3.106,0,0,1-1.273.159,3.735,3.735,0,0,1-2.7-.954l.954-1.272c.158.158.476.317.636.476a2.011,2.011,0,0,0,.953.159c.8,0,1.273-.319,1.273-.954a.694.694,0,0,0,0-.954" transform="translate(19.742 21.838)" fill="#599cb3"/><path d="M33.644,1.947a2.014,2.014,0,0,1,.636,1.431,1.721,1.721,0,0,1-.636,1.431,2.012,2.012,0,0,1-1.431.637,2.106,2.106,0,0,1-2.068-2.068,1.726,1.726,0,0,1,.637-1.431,2.359,2.359,0,0,1,1.431-.636,1.547,1.547,0,0,1,1.431.636" transform="translate(17.412 0.757)" fill="#599cb3"/><path d="M33.528,40.412l.319-.319a.556.556,0,0,0,.159-.317.584.584,0,0,0-.159-.478c-.158-.159-.319-.159-.636-.159a1.189,1.189,0,0,0-.8.159c-.161.158-.478.319-.636.636l-1.114-1.272c.158-.159.317-.319.476-.319a1.2,1.2,0,0,1,.637-.319,1.438,1.438,0,0,1,.8-.158c.317,0,.636-.159.953-.159a3.4,3.4,0,0,1,1.909.476,1.551,1.551,0,0,1,.636,1.432c0,.317,0,.476-.158.634,0,.161-.159.32-.319.478s-.319.319-.476.478-.319.158-.478.317c-.159,0-.317.161-.478.161-.158.158-.317.158-.475.317s-.32.158-.478.319l-.319.317h3.023V44.23H30.346v-.956c0-.317.161-.476.32-.8.158-.158.317-.476.476-.636s.476-.319.8-.636a3.468,3.468,0,0,0,.8-.478c.478-.158.636-.158.8-.317" transform="translate(17.528 21.78)" fill="#599cb3"/><path d="M30.42,37.708v4.771h1.431v1.59H27.078v-1.59H28.67V39.617c0,.159-.159.159-.319.317s-.319.159-.476.317c-.161,0-.319.161-.478.161h-.478V38.82a.589.589,0,0,0,.478-.158c.159-.159.317-.159.636-.319.159-.159.319-.159.478-.319s.317-.158.317-.317Z" transform="translate(15.549 21.78)" fill="#599cb3"/><path d="M26.46,40.947a3.01,3.01,0,0,0-.319-1.272.9.9,0,0,0-1.59,0,2.7,2.7,0,0,0,0,2.545.9.9,0,0,0,1.59,0,1.713,1.713,0,0,0,.319-1.273m-1.114,3.341a2.314,2.314,0,0,1-1.114-.319c-.317-.159-.636-.478-.954-.636a2.569,2.569,0,0,1-.636-1.114,3.529,3.529,0,0,1-.158-1.273,3.119,3.119,0,0,1,.158-1.272,2.551,2.551,0,0,1,.636-1.114,3.309,3.309,0,0,1,.954-.636,2.947,2.947,0,0,1,1.114-.319,2.3,2.3,0,0,1,1.114.319c.317.158.636.478.954.636a2.551,2.551,0,0,1,.636,1.114,3.524,3.524,0,0,1,.158,1.272,3.127,3.127,0,0,1-.158,1.273,2.569,2.569,0,0,1-.636,1.114,3.375,3.375,0,0,1-.954.636,2.314,2.314,0,0,1-1.114.319" transform="translate(12.987 21.722)" fill="#599cb3"/><path d="M23.562,5.678A2.011,2.011,0,0,1,24.2,7.109a1.721,1.721,0,0,1-.636,1.431,2.012,2.012,0,0,1-1.431.637,2.106,2.106,0,0,1-2.068-2.068A1.724,1.724,0,0,1,20.7,5.678a2.008,2.008,0,0,1,1.431-.636,2.975,2.975,0,0,1,1.431.636" transform="translate(11.589 2.912)" fill="#599cb3"/><rect width="3.977" height="3.977" transform="translate(21.949 24.018)" fill="#599cb3"/><path d="M16,29.673a2.011,2.011,0,0,1,.636,1.431A1.545,1.545,0,0,1,16,32.535a2.012,2.012,0,0,1-1.431.637A2.106,2.106,0,0,1,12.5,31.1a1.724,1.724,0,0,1,.637-1.431,2.008,2.008,0,0,1,1.431-.636A1.547,1.547,0,0,1,16,29.673" transform="translate(7.221 16.772)" fill="#599cb3"/><rect width="3.977" height="3.977" transform="translate(15.906 24.018)" fill="#599cb3"/><rect width="3.977" height="3.977" transform="translate(10.021 24.018)" fill="#599cb3"/><rect width="3.976" height="37.697" transform="translate(6.044 43.9)" fill="#599cb3"/><rect width="3.976" height="3.977" transform="translate(6.044 37.855)" fill="#599cb3"/><path d="M93.526,24.3H2.067a2.068,2.068,0,0,1,0-4.137H93.526a2.106,2.106,0,0,1,2.068,2.068A2.224,2.224,0,0,1,93.526,24.3" transform="translate(0 11.646)" fill="#599cb3"/><path d="M64.518,19.26H24.752a2.068,2.068,0,0,1,0-4.137H64.518a2.107,2.107,0,0,1,2.068,2.068,2.224,2.224,0,0,1-2.068,2.068" transform="translate(13.103 8.735)" fill="#599cb3"/><path d="M85.892,87.227H9.543A9.572,9.572,0,0,1,0,77.682V19.626a9.571,9.571,0,0,1,9.543-9.543H85.892a9.571,9.571,0,0,1,9.543,9.543V77.682a9.572,9.572,0,0,1-9.543,9.545M9.543,14.218a5.635,5.635,0,0,0-5.566,5.567V77.842a5.635,5.635,0,0,0,5.566,5.567H85.892a5.635,5.635,0,0,0,5.567-5.567V19.626a5.637,5.637,0,0,0-5.567-5.567Z" transform="translate(0 5.823)" fill="#599cb3"/><path d="M13.606,12.089A6.045,6.045,0,0,1,13.606,0,5.909,5.909,0,0,1,19.49,6.045a6.009,6.009,0,0,1-5.885,6.044m0-7.953A2.106,2.106,0,0,0,11.538,6.2a2.068,2.068,0,0,0,4.137,0,2.213,2.213,0,0,0-2.068-2.068" transform="translate(4.368 -0.001)" fill="#599cb3"/><path d="M54.131,11.274a4.931,4.931,0,1,1,4.932-4.93,4.955,4.955,0,0,1-4.932,4.93m0-6.044a1.025,1.025,0,0,0-.954.954.954.954,0,1,0,1.909,0,1.025,1.025,0,0,0-.954-.954" transform="translate(28.419 0.815)" fill="#599cb3"/><path d="M36.885,65.042h-1.59A17.987,17.987,0,0,1,18.753,46.91,18.887,18.887,0,0,1,23.524,34.5a17.706,17.706,0,0,1,11.771-5.727,10.742,10.742,0,0,1,3.182,0A17.987,17.987,0,0,1,55.018,46.91a18.888,18.888,0,0,1-4.771,12.4,17.7,17.7,0,0,1-11.771,5.727Zm0-32.447H35.611a14.2,14.2,0,0,0,0,28.312H38A14.2,14.2,0,0,0,38,32.6Z" transform="translate(10.832 16.553)" fill="#599cb3"/><path d="M40.8,65H39.37c-10.5-.476-20.359-6.68-27.039-17.019a1.9,1.9,0,0,1,0-2.226c6.68-10.34,16.541-16.541,27.039-17.019h3.023c10.5.478,20.361,6.68,27.04,17.019a1.908,1.908,0,0,1,0,2.226C62.753,58.32,52.89,64.523,42.393,65ZM16.307,46.868c5.885,8.589,14.315,13.678,23.222,14.154h2.545c8.909-.476,17.179-5.566,23.222-14.154-5.885-8.59-14.314-13.679-23.063-14.158H39.689c-9.067.319-17.338,5.567-23.382,14.158" transform="translate(6.916 16.597)" fill="#599cb3"/></g></g></g></svg>