<svg xmlns="http://www.w3.org/2000/svg" width="88.759" height="88" viewBox="0 0 88.759 88"><defs><clipPath id="a"><path fill="#63bb7c" d="M0 0h88.759v88H0z"/></clipPath></defs><g fill="#63bb7c" clip-path="url(#a)"><path d="M42.486 82.256h3.781a.908.908 0 0 0 0-1.815h-3.781a.908.908 0 0 0 0 1.815m-30.239-5.899a4.687 4.687 0 1 0 4.688 4.685 4.526 4.526 0 0 0-4.688-4.688m0 7.56a2.873 2.873 0 0 1 0-5.745 2.873 2.873 0 1 1 0 5.745m65.32-8.464a5.745 5.745 0 1 0 5.745 5.745 5.84 5.84 0 0 0-5.745-5.745m0 9.375a3.78 3.78 0 1 1 3.781-3.779 3.74 3.74 0 0 1-3.781 3.779m4.235-19.809a1.36 1.36 0 1 1-1.36 1.36 1.36 1.36 0 0 1 1.36-1.36m-14.216 12.4a1.36 1.36 0 1 1-1.36 1.36 1.36 1.36 0 0 1 1.36-1.36m9.526-12.4a1.36 1.36 0 1 1-1.36 1.36 1.36 1.36 0 0 1 1.36-1.36m-54.887 9.526a1.361 1.361 0 1 1-1.36 1.362 1.36 1.36 0 0 1 1.36-1.362M3.326 78.323a1.361 1.361 0 1 1-1.36 1.36 1.36 1.36 0 0 1 1.36-1.36m83.161 5.594a1.362 1.362 0 1 1-1.36 1.36 1.36 1.36 0 0 1 1.36-1.36M72.273 65.016a1.36 1.36 0 1 1-1.36 1.36 1.36 1.36 0 0 1 1.36-1.36"/><path d="M82.1 11.19H6.8a6.775 6.775 0 0 0-6.8 6.8v48.085a6.776 6.776 0 0 0 6.8 6.806h31a6.253 6.253 0 0 1-6.2 5.748h-.3a4.688 4.688 0 1 0 0 9.375h26.307a4.688 4.688 0 0 0 0-9.375h-.454a6.364 6.364 0 0 1-6.2-5.745h31a6.776 6.776 0 0 0 6.8-6.806V17.994a6.556 6.556 0 0 0-6.653-6.8M6.8 13.005h75.3a5.033 5.033 0 0 1 4.989 4.989v41.58H1.965v-41.58A4.906 4.906 0 0 1 6.8 13.005m50.5 67.284h.454a2.873 2.873 0 1 1 0 5.745H31.45a2.873 2.873 0 1 1 0-5.745h.3a7.984 7.984 0 0 0 8.016-7.56h9.524a7.884 7.884 0 0 0 8.01 7.56m24.8-9.375H6.8a5.035 5.035 0 0 1-4.987-4.985v-4.542h85.128v4.542a4.907 4.907 0 0 1-4.841 4.986"/><path d="M6.651 56.551h75.6a.976.976 0 0 0 .908-.908v-37.8a.976.976 0 0 0-.907-.909H6.651a.98.98 0 0 0-.906.909v37.8a.98.98 0 0 0 .906.907m14.515-1.966a3.1 3.1 0 0 1-2.872-1.966h20.261a3.17 3.17 0 0 1-2.872 1.966Zm1.513-19.806a.908.908 0 0 1-1.815 0v-5.745a.908.908 0 1 1 1.815 0Zm-.909 2.872a2.87 2.87 0 0 0 2.873-2.872h7.56a2.87 2.87 0 0 0 2.873 2.872 2.78 2.78 0 0 0 2.872-2.872h1.966a1.966 1.966 0 1 1 0 3.931H17.236a1.966 1.966 0 1 1 0-3.931h1.815a2.744 2.744 0 0 0 2.72 2.872m14.214-2.872a.908.908 0 0 1-1.815 0v-5.745a.908.908 0 1 1 1.815 0Zm0 6.651a.976.976 0 0 0-.907.909v8.466h-1.964v-8.461a.908.908 0 1 0-1.815 0v8.466h-1.968v-8.466a.907.907 0 1 0-1.813 0v8.466h-1.965v-8.466a.908.908 0 1 0-1.815 0v8.466h-1.967v-8.466a.907.907 0 1 0-1.813 0v8.466h-1.967V40.372h20.867v10.432h-1.966v-8.461a.976.976 0 0 0-.907-.909m19.808-6.651a.975.975 0 0 0 .906-.909v-1.971h7.56v1.966a.908.908 0 1 0 1.815 0v-1.966h3.78v14.214h-18.75V31.903h3.78v1.966a.98.98 0 0 0 .909.909m8.466-4.688h-7.56v-1.966a3.78 3.78 0 1 1 7.56 0ZM51.104 48.083h18.9v1.815h-18.9Zm2.57 6.5a2.65 2.65 0 0 1-2.57-2.57v-.3h18.9v.3a2.65 2.65 0 0 1-2.57 2.57ZM81.346 18.75v35.986H71.064a5.1 5.1 0 0 0 .754-2.57V30.998a.97.97 0 0 0-.904-.908h-4.688v-1.966a5.746 5.746 0 0 0-11.492 0v1.966h-4.687a.976.976 0 0 0-.909.907v21.017a5.1 5.1 0 0 0 .756 2.57H39.462a5.46 5.46 0 0 0 1.057-2.57V40.372a3.86 3.86 0 0 0 2.874-3.629 3.743 3.743 0 0 0-3.779-3.779h-1.966v-3.781a2.87 2.87 0 0 0-2.873-2.873 2.78 2.78 0 0 0-2.872 2.873v3.781h-7.56v-3.781a2.87 2.87 0 0 0-2.873-2.873 2.78 2.78 0 0 0-2.873 2.873v3.781h-1.966a3.757 3.757 0 0 0-.907 7.408v11.642a4.45 4.45 0 0 0 1.057 2.57H7.257V23.438h39.615a.908.908 0 0 0 0-1.815H7.56V18.75ZM71.367 3.63a1.36 1.36 0 1 1-1.362 1.36 1.36 1.36 0 0 1 1.362-1.36M18.446 5.594a1.362 1.362 0 1 1-1.36 1.36 1.36 1.36 0 0 1 1.36-1.36M45.812 3.63a1.36 1.36 0 1 1-1.36 1.36 1.36 1.36 0 0 1 1.36-1.36m-35.38 5.594a3.74 3.74 0 0 0 3.779-3.779 3.78 3.78 0 1 0-7.56 0 3.744 3.744 0 0 0 3.781 3.779m0-5.594a2 2 0 0 1 1.966 1.966 1.966 1.966 0 0 1-3.932 0 1.907 1.907 0 0 1 1.966-1.966m71.367 6.652a5.1 5.1 0 0 0 5.141-5.143 5.142 5.142 0 0 0-10.283 0 5.1 5.1 0 0 0 5.141 5.142m0-8.619a3.357 3.357 0 0 1 3.328 3.326 3.327 3.327 0 1 1-6.654 0 3.355 3.355 0 0 1 3.326-3.326"/></g></svg>