<svg xmlns="http://www.w3.org/2000/svg" xmlns:xlink="http://www.w3.org/1999/xlink" width="62.973" height="61.046" viewBox="0 0 62.973 61.046"><defs><clipPath id="a"><rect width="62.973" height="61.046" fill="#63bb7c"/></clipPath></defs><g transform="translate(0 0)"><g transform="translate(0 0)" clip-path="url(#a)"><path d="M58.369,50.962A5.52,5.52,0,0,0,60.3,46.785V16.37a5.6,5.6,0,0,0-5.57-5.57H8.247a5.6,5.6,0,0,0-5.568,5.57V46.785a5.353,5.353,0,0,0,1.928,4.177A4.663,4.663,0,0,0,0,55.674a4.755,4.755,0,0,0,4.712,4.712h53.55a4.754,4.754,0,0,0,4.711-4.712,4.662,4.662,0,0,0-4.6-4.712M47.551,52.247h6v1.392h-6ZM4.07,26.223h6.747v4.069a3.32,3.32,0,0,1-6.64,0V26.223ZM24.2,16.8c-.535.857-4.605,7.07-5.14,8.033h-6L21.1,16.8Zm1.606,0H28.6L26.882,24.83H20.671c.535-.857,4.605-7.069,5.14-8.033M12.1,26.223H18.85v4.069a3.32,3.32,0,0,1-6.64,0V26.223Zm8.032,0h6.747v4.069a3.32,3.32,0,0,1-6.64,0V26.223Zm8.032,0h6.747v4.069a3.32,3.32,0,0,1-6.64,0V26.223Zm8.032,0h6.747v4.069a3.32,3.32,0,1,1-6.639,0V26.223Zm8.032,0h6.747v4.069a3.32,3.32,0,0,1-6.64,0V26.223Zm7.6-1.392L43.8,16.8h2.142L57.4,24.83ZM41.876,16.8l8.032,8.033h-6L38.77,16.8Zm-4.713,0L42.3,24.83H36.092c-.32-1.606-1.392-6.426-1.714-8.033Zm-4.175,0c.106.321,1.5,7.176,1.713,8.033H28.274L29.988,16.8ZM11.138,24.83H5.462L16.922,16.8h2.142ZM8.782,34.683a4.669,4.669,0,0,0,2.677-2.035A4.721,4.721,0,0,0,15.53,34.9,4.968,4.968,0,0,0,19.6,32.648a4.721,4.721,0,0,0,4.07,2.249,4.968,4.968,0,0,0,4.069-2.249,4.721,4.721,0,0,0,4.07,2.249,4.968,4.968,0,0,0,4.069-2.249,4.721,4.721,0,0,0,4.07,2.249,4.97,4.97,0,0,0,4.069-2.249,4.721,4.721,0,0,0,4.07,2.249,4.968,4.968,0,0,0,4.069-2.249,4.671,4.671,0,0,0,2.678,2.035V46.249H8.782Zm43.482-4.5v-4.07H58.9v4.07A3.247,3.247,0,0,1,55.585,33.4a3.182,3.182,0,0,1-3.32-3.213M8.247,12.086H54.727A4.181,4.181,0,0,1,58.9,16.262v7.925L46.588,15.512c-.108-.106-.214-.106-.429-.106H16.707a.645.645,0,0,0-.428.106L3.963,24.187V16.262a4.348,4.348,0,0,1,4.284-4.176M4.07,46.785V33.5A4.7,4.7,0,0,0,7.39,34.9V47a.691.691,0,0,0,.643.643H54.942A.691.691,0,0,0,55.585,47V34.9A4.694,4.694,0,0,0,58.9,33.5V46.679a4.182,4.182,0,0,1-4.176,4.176h-16.6a.691.691,0,0,0-.643.643v2.034H25.49V51.5a.691.691,0,0,0-.643-.643H8.247a4.027,4.027,0,0,1-4.176-4.07m5.355,5.462h6v1.392h-6Zm48.836,6.747H4.712a3.32,3.32,0,0,1,0-6.64H8.033v2.035a.69.69,0,0,0,.642.643h7.389a.691.691,0,0,0,.643-.643V52.354H24.1v2.035a.69.69,0,0,0,.642.643H38.127a.691.691,0,0,0,.643-.643V52.354h7.389v2.035a.69.69,0,0,0,.642.643h7.39a.691.691,0,0,0,.643-.643V52.354h3.427a3.32,3.32,0,0,1,0,6.64" transform="translate(0 0.659)" fill="#63bb7c"/><path d="M53.225,8.139a4.069,4.069,0,1,0-4.07-4.069,4.138,4.138,0,0,0,4.07,4.069m0-6.746A2.651,2.651,0,0,1,55.9,4.07a2.677,2.677,0,1,1-5.354,0,2.651,2.651,0,0,1,2.677-2.677" transform="translate(3.001 0)" fill="#63bb7c"/><path d="M15.331,9.264a3.32,3.32,0,1,0-3.32-3.32,3.336,3.336,0,0,0,3.32,3.32m0-5.354a2.034,2.034,0,0,1,2.035,2.034,2.035,2.035,0,1,1-4.069,0A2.033,2.033,0,0,1,15.331,3.91" transform="translate(0.733 0.16)" fill="#63bb7c"/><path d="M44.567,5.753a.964.964,0,1,1-.963.965.964.964,0,0,1,.963-.965" transform="translate(2.662 0.351)" fill="#63bb7c"/><path d="M33.868.707a.963.963,0,1,1-.963.963.963.963,0,0,1,.963-.963" transform="translate(2.009 0.043)" fill="#63bb7c"/><path d="M5.406,5.148a.964.964,0,1,1-.965.965.964.964,0,0,1,.965-.965" transform="translate(0.271 0.314)" fill="#63bb7c"/><path d="M23.069,5.753a.964.964,0,1,1-.965.965.964.964,0,0,1,.965-.965" transform="translate(1.35 0.351)" fill="#63bb7c"/></g></g></svg>