<svg xmlns="http://www.w3.org/2000/svg" width="76.324" height="78.93" viewBox="0 0 76.324 78.93"><defs><clipPath id="a"><path fill="none" d="M0 0h76.324v78.93H0z"/></clipPath></defs><g clip-path="url(#a)"><path fill="#83cff2" d="M30.66 3.834c-.694-.4-1.271-.072-1.275.729l-.069 26.124a2.78 2.78 0 0 0 1.269 2.187l41.17 23.777c.7.4 1.277.08 1.28-.721l.071-26.127a2.8 2.8 0 0 0-1.266-2.2Z"/><path fill="#d1dce6" d="M.006 49.991a.4.4 0 0 0 .011.092l.009.086.014.083.024.088c.008.032.02.045.034.071a.3.3 0 0 0 .041.094l.039.067a1 1 0 0 0 .066.1l.053.063c.031.044.069.081.108.127.024.019.039.038.064.06a1 1 0 0 0 .08.067.5.5 0 0 0 .091.069 1 1 0 0 0 .092.067 2 2 0 0 0 .149.1l16.175 9.335v-.973l3.566-2.078-5.155-3v-.384l-.337.2-7.004-4.072.006-2.446 3.278-1.9.758.439v-.874l1.1-.635 2.176-1.263 3.8-2.2.95.548v-1.1l3.283-1.9.735.426v-.849l3.279-1.9 3.4 1.974v.751l.653-.374 3.392 1.971v.747l.652-.374 3.4 1.973v.751l.653-.376 3.4 1.976v.752l.652-.378 3.4 1.973v.749l.647-.373 3.4 1.973v.747l.646-.374 3.4 1.976v.751l.646-.374 3.4 1.97v.752l.642-.374 3.406 1.971-.006 2.446-1.905 1.1.813.472v-.852l3.281-1.894 3.394 1.971-.006 2.447-3.273 1.9-.738-.428v.854l-3.276 1.893-.754-.421v.851l-3.287 1.9-.729-.425v.851l-3.284 1.9-.751-.439v.873l-3.282 1.889-7.2-4.18v-.487l-.418.243-5.32-3.076v-.563l-.481.28-1.941-1.127-.006.939-3.566 2.071 13.223 7.634a4 4 0 0 0 .414.2q.07.026.127.045.15.05.3.088c.15.038.177.05.268.069.127.025.257.05.387.066l.074.006a5 5 0 0 0 .5.031h.081c.165 0 .329-.013.492-.027a.4.4 0 0 1 .081-.009c.158-.019.32-.047.473-.08.031-.009.064-.014.089-.023q.223-.056.434-.13l.047-.017a3.5 3.5 0 0 0 .456-.216l24.668-14.337a1.48 1.48 0 0 0 .866-1.213c0 .816 0 1.631-.009 2.444a1.48 1.48 0 0 1-.866 1.214L47.982 78.429a3 3 0 0 1-.448.213h-.008c-.017.008-.034.011-.052.017a2 2 0 0 1-.3.1 1 1 0 0 1-.127.031 1 1 0 0 1-.092.024c-.033.009-.06.016-.091.022a3 3 0 0 1-.295.049 1 1 0 0 1-.091.011l-.071.008-.132.014c-.1.008-.2.011-.291.013h-.305a3 3 0 0 1-.327-.022h-.028l-.075-.008c-.088-.011-.185-.019-.276-.038-.034-.006-.072-.024-.1-.03a2 2 0 0 1-.265-.063c-.052-.016-.11-.02-.166-.038s-.089-.036-.136-.053-.078-.03-.121-.047a3 3 0 0 1-.421-.2L.874 53.67l-.1-.06a.3.3 0 0 0-.047-.036 1 1 0 0 1-.1-.067c-.031-.024-.06-.045-.091-.074s-.05-.041-.074-.061-.03-.02-.038-.03l-.03-.039c-.038-.039-.078-.085-.114-.124l-.023-.032-.016-.025-.071-.1-.031-.05-.009-.025c-.017-.036-.028-.066-.042-.1l-.028-.049v-.017c-.006-.03-.016-.063-.022-.094a.2.2 0 0 1-.013-.063v-.013a.4.4 0 0 1-.011-.092c0-.02-.006-.044-.006-.066v-.019c0-.816.006-1.63.006-2.447"/><path fill="#fff" d="m.868 48.778 24.67-14.334a4.66 4.66 0 0 1 4.224 0l42.885 24.755a1.3 1.3 0 0 1 .013 2.449L47.99 75.984a4.66 4.66 0 0 1-4.223 0L.882 51.224a1.3 1.3 0 0 1-.014-2.446"/><path fill="#0c2f4b" d="m29.217 42.268-3.281 1.891 3.4 1.976 3.276-1.9Zm-5.228 1.614-3.287 1.9 3.4 1.971 3.279-1.9Z"/><path fill="#0c2f4b" d="m19.248 41.383-3.8 2.2-2.177 1.258-1.1.635 5.733 3.33 3.283-1.9-1.766-1.023 3.8-2.2Zm8.559 4.714-3.281 1.9 3.4 1.976 3.283-1.9Zm-16.396-.187-3.28 1.9 7.011 4.067 3.287-1.9Zm7.347 4.263-3.284 1.9 5.31 3.079 3.286-1.9Zm10.471 1.405-3.278 1.893 3.392 1.977 3.283-1.9Zm-1.733-14.963-3.279 1.9 3.4 1.973 3.279-1.894Zm4.049 2.35-3.283 1.894 3.4 1.976 3.278-1.9Zm-8.062-.03-3.284 1.9 5.27 3.051 3.279-1.9Zm12.105 2.374-3.283 1.9 3.4 1.971 3.284-1.9Zm4.051 2.347-3.286 1.9 3.4 1.97 3.283-1.893Zm-6.556.851-3.279 1.9 3.4 1.97 3.279-1.897Zm10.598 1.5-3.278 1.9 3.4 1.97 3.275-1.894Zm-6.726.745-3.283 1.9 3.4 1.973 3.281-1.9Zm-15.331.41-3.282 1.9 3.4 1.973 3.284-1.9Zm26.1 1.193-3.278 1.9 3.4 1.971 3.283-1.9Zm-16.091-.036-3.275 1.893 3.392 1.977 3.286-1.9Zm9.186.68-3.283 1.9 3.4 1.97 3.283-1.894Zm-15.372.384-3.279 1.894 3.394 1.974 3.29-1.894Zm10.008 1.153-3.287 1.9 3.4 1.973 3.287-1.9Zm16.318.165-3.281 1.9 3.4 1.973 3.284-1.9Zm-7.088.538-3.279 1.9 3.4 1.974 3.284-1.9Zm-5.414 1.518-3.276 1.9 3.4 1.973 3.283-1.893Zm16.545.296-3.276 1.894 3.4 1.974 3.281-1.9Zm-7.258.438-3.277 1.892 3.4 1.97 3.276-1.888Zm-15.382.38-3.279 1.894 3.4 1.971 3.279-1.893Zm9.924 1.1-3.281 1.9 3.394 1.971 3.286-1.893Zm16.759.429-3.278 1.9 3.4 1.971 3.287-1.9Zm-7.439.331-3.278 1.9 3.4 1.973 3.284-1.894Zm-15.461.33-3.284 1.9 3.4 1.973 3.284-1.9Zm9.96 1.13-3.279 1.9 3.4 1.973 3.283-1.9Zm-6.139 1.095-3.281 1.9 3.4 1.968 3.279-1.893Zm24.668.356-3.281 1.893 3.4 1.976 3.272-1.9Zm-14.705.772-3.278 1.894 3.4 1.971 3.279-1.894ZM24.416 53.46l-3.284 1.893 14.931 8.666 3.278-1.9Zm20.145 7.021-3.276 1.893 3.4 1.977 3.276-1.9Zm11.899-2.405-3.276 1.9 8.369 4.857 3.278-1.894Zm-34.57-1.3-4.831 2.811 12.221 7.054 4.84-2.813Zm32.693 4.863-3.283 1.9 6.23 3.613 3.286-1.9Zm-14.755.766-3.281 1.894 5.307 3.084 3.283-1.9Zm8.598.312-3.278 1.9 8.369 4.854 3.283-1.894Zm-2.864 3.013-3.281 1.893 7.2 4.184 3.279-1.9Z"/><path fill="#d1dce6" d="m28.536.889.075-.044q.307-.173.606-.351c.299-.178.4-.23.6-.349a1.49 1.49 0 0 1 1.507.144l42.885 24.756a4.67 4.67 0 0 1 2.115 3.655l-.081 28.535a1.46 1.46 0 0 1-.617 1.351c-.506.3-1.006.592-1.51.882a1.48 1.48 0 0 0 .617-1.358l.083-28.525a4.67 4.67 0 0 0-2.117-3.66L29.816 1.167a1.48 1.48 0 0 0-1.5-.144q.111-.065.224-.135"/><path fill="#f8f9fc" d="M72.697 25.924a4.67 4.67 0 0 1 2.117 3.66l-.085 28.525c0 1.344-.956 1.89-2.122 1.217L29.725 34.565a4.67 4.67 0 0 1-2.115-3.662l.079-28.526c0-1.344.959-1.883 2.128-1.21Zm-43.381 4.763a2.78 2.78 0 0 0 1.273 2.189l41.166 23.776c.7.4 1.277.08 1.28-.721l.071-26.126a2.8 2.8 0 0 0-1.264-2.2L30.661 3.834c-.694-.4-1.269-.072-1.274.729Z"/><path fill="#fff" d="M64.789 25.689 36.431 9.319v25.486l28.358 16.366Z"/><path fill="#fccd49" d="M62.478 26.578 38.741 12.876v21.041l23.737 13.7Z"/><path fill="#fff" d="m47.574 22.972 8.507 10.586-8.507.758Z"/></g></svg>