<svg xmlns="http://www.w3.org/2000/svg" xmlns:xlink="http://www.w3.org/1999/xlink" width="149.87" height="140" viewBox="0 0 149.87 140"><defs><clipPath id="a"><rect width="149.87" height="139.999" fill="none"/></clipPath><clipPath id="b"><path d="M5.362,65.093.134,68.131a3.112,3.112,0,0,0,1.3-2.854l5.228-3.04a3.119,3.119,0,0,1-1.3,2.856" transform="translate(-0.134 -62.237)" fill="none"/></clipPath><clipPath id="d"><path d="M27.677,0a4.089,4.089,0,0,1,1.96.61L24.408,3.648a3.144,3.144,0,0,0-3.167-.309L26.469.3A2.282,2.282,0,0,1,27.6,0Z" transform="translate(-21.241)" fill="none"/></clipPath><clipPath id="f"><path d="M9.667,19l-5.228,3.04A9.78,9.78,0,0,0,0,14.356l5.23-3.04A9.778,9.778,0,0,1,9.667,19" transform="translate(0 -11.316)" fill="none"/></clipPath><clipPath id="h"><path d="M38.847,26.648a10.433,10.433,0,0,0,9.323,1.661,3.351,3.351,0,0,0,2.43-2.372L41.8,76.016a3.352,3.352,0,0,1-2.43,2.372,10.431,10.431,0,0,1-9.323-1.657,3.324,3.324,0,0,1-1.438-3.023l8.8-50.081a3.326,3.326,0,0,0,1.438,3.021" transform="translate(-28.579 -23.627)" fill="none"/></clipPath><clipPath id="j"><path d="M43.97,11.307l-3.915,2.287c-3.143-1.8-5.991-1.966-8.041-.765l3.915-2.29a5.836,5.836,0,0,1,2.986-.771,10.314,10.314,0,0,1,5.055,1.537" transform="translate(-32.013 -9.77)" fill="none"/></clipPath><clipPath id="l"><path d="M41.753,29.994c0,3.563-1.253,6.071-3.277,7.256l-3.913,2.29c2.024-1.183,3.275-3.695,3.275-7.256,0-7.171-5.065-15.893-11.316-19.48l3.915-2.287c6.25,3.586,11.318,12.307,11.316,19.478" transform="translate(-26.522 -10.516)" fill="none"/></clipPath><clipPath id="n"><path d="M34.807,18.031,34.865,18Zm23.068-6.512L44.93,19c-3.93-2.257-7.489-2.471-10.065-1l12.888-7.444a7.365,7.365,0,0,1,3.759-.971,12.981,12.981,0,0,1,6.364,1.935" transform="translate(-34.807 -9.584)" fill="none"/></clipPath><clipPath id="p"><path d="M55.084,35.036c0,4.486-1.576,7.643-4.126,9.133L38.012,51.646c2.549-1.49,4.124-4.649,4.126-9.133,0-9.024-6.376-20-14.242-24.513l12.946-7.476c7.866,4.513,14.242,15.489,14.242,24.513" transform="translate(-27.896 -10.523)" fill="none"/></clipPath><clipPath id="r"><path d="M77.709,20.327,72.773,23.2c-6.586-3.8-12.554-4.157-16.863-1.653l4.933-2.867a12.226,12.226,0,0,1,6.232-1.6,21.6,21.6,0,0,1,10.634,3.25" transform="translate(-55.91 -17.077)" fill="none"/></clipPath><clipPath id="t"><path d="M73.006,59.575c-.021,7.472-2.658,12.729-6.914,15.2l-4.933,2.869c4.255-2.473,6.893-7.73,6.914-15.2C68.114,47.4,57.538,29.079,44.446,21.523l4.936-2.869c13.09,7.557,23.668,25.877,23.625,40.921" transform="translate(-44.446 -18.654)" fill="none"/></clipPath></defs><g transform="translate(0)"><g transform="translate(0 0)"><g clip-path="url(#a)"><path d="M.133,68.374l5.444-3.165a3.242,3.242,0,0,0,1.354-2.972L1.485,65.4A3.241,3.241,0,0,1,.133,68.374" transform="translate(142.654 71.312)" fill="#fff"/></g></g><g transform="translate(143.068 133.805)"><g transform="translate(0)" clip-path="url(#b)"><path d="M.133,68.131l5.228-3.04a3.113,3.113,0,0,0,1.3-2.854l-5.23,3.04a3.112,3.112,0,0,1-1.3,2.854" transform="translate(-0.133 -62.237)" fill="#d4dbef"/></g></g><g transform="translate(0 0)"><g clip-path="url(#a)"><path d="M26.685.313,21.241,3.478a3.263,3.263,0,0,1,3.3.322L29.983.635a3.273,3.273,0,0,0-3.3-.322" transform="translate(74.308 0)" fill="#fff"/></g></g><g transform="translate(95.784)"><g transform="translate(0)" clip-path="url(#d)"><path d="M24.408,3.65,29.637.61A3.139,3.139,0,0,0,26.469.3l-5.228,3.04a3.134,3.134,0,0,1,3.167.309" transform="translate(-21.241 0)" fill="#fff"/></g></g><path d="M5.228,112.3,0,115.336l.276-97.25L5.5,15.046Z" transform="translate(144.366 21.509)" fill="#d4dbef"/><path d="M41.488,26.045l5.228-3.04L7.382.3,2.154,3.336Z" transform="translate(98.717 0.314)" fill="#fff"/><g transform="translate(0 0)"><g clip-path="url(#a)"><path d="M4.62,22.485l5.444-3.165a10.19,10.19,0,0,0-4.62-8L0,14.481a10.185,10.185,0,0,1,4.62,8" transform="translate(139.806 12.966)" fill="#fff"/></g></g><g transform="translate(140.204 24.365)"><g transform="translate(0)" clip-path="url(#f)"><path d="M4.437,22.042,9.665,19a9.786,9.786,0,0,0-4.437-7.687L0,14.356a9.781,9.781,0,0,1,4.437,7.687" transform="translate(0.002 -11.316)" fill="#e9ecf5"/></g></g><path d="M2.778,6.508l48.239,29.27-.229,85.236L2.548,91.743Z" transform="translate(93.603 6.903)" fill="#15d8fc"/><g transform="translate(0 0)"><g clip-path="url(#a)"><path d="M2.559,4.761C2.568,1.819,4.652.632,7.212,2.111L48.169,25.758a10.181,10.181,0,0,1,4.62,8l-.021,7.512-50.229-29Z" transform="translate(91.635 1.689)" fill="#e9ecf5"/><path d="M52.916,74.866l-.026,9.3c-.009,2.942-2.092,4.129-4.652,2.65L7.281,63.165a10.193,10.193,0,0,1-4.622-8l.028-9.3Z" transform="translate(91.248 52.552)" fill="#e9ecf5"/><path d="M18.035,8.114a4.019,4.019,0,0,0,1.82,3.15c1,.582,1.82.112,1.82-1.049a4.026,4.026,0,0,0-1.82-3.152c-1-.579-1.82-.109-1.82,1.051" transform="translate(89.496 7.808)" fill="#372b3d"/><path d="M9.367,13.159a2.838,2.838,0,0,0,1.287,2.227c.71.41,1.285.077,1.285-.742a2.842,2.842,0,0,0-1.285-2.227c-.712-.41-1.287-.077-1.287.742" transform="translate(117.83 14.026)" fill="#372b3d"/><path d="M7.82,14.052A2.838,2.838,0,0,0,9.107,16.28c.708.41,1.285.077,1.285-.742A2.848,2.848,0,0,0,9.107,13.31c-.712-.41-1.287-.077-1.287.742" transform="translate(122.697 15.049)" fill="#372b3d"/><path d="M11.52,11.356l12.1,7.01c.29.167.524.032.524-.3v-1.73a1.156,1.156,0,0,0-.524-.906l-12.1-7.01c-.29-.165-.524-.03-.524.3v1.73a1.156,1.156,0,0,0,.524.906" transform="translate(102.127 9.565)" fill="#372b3d"/><path d="M23.707,65.455a1.465,1.465,0,0,0,.736-.191,1.844,1.844,0,0,0,.807-1.7V61.221a5.084,5.084,0,0,0-2.33-4.038l-7.435-4.292a1.843,1.843,0,0,0-1.875-.152,1.842,1.842,0,0,0-.807,1.7v2.343a5.087,5.087,0,0,0,2.33,4.038l.176-.3-.176.3,7.435,4.292a2.314,2.314,0,0,0,1.139.343m-9.36-12.205a1.615,1.615,0,0,1,.785.249l7.435,4.292a4.454,4.454,0,0,1,1.981,3.431v2.343a1.189,1.189,0,0,1-.455,1.09,1.193,1.193,0,0,1-1.174-.15L15.484,60.21A4.441,4.441,0,0,1,13.5,56.781V54.438a1.193,1.193,0,0,1,.455-1.092.778.778,0,0,1,.388-.1" transform="translate(97.15 60.208)" fill="#828cc0"/><path d="M26.694,53.884a8.681,8.681,0,0,0,5.873,1.345l1.631-.6c1.927-1.107,3.12-3.489,3.12-6.882,0-6.774-4.757-15.012-10.624-18.4-2.635-1.521-5.045-1.8-6.9-1.043l-.624.307c-1.914,1.114-3.1,3.491-3.1,6.869A20.467,20.467,0,0,0,18.115,43.9c.5.979,1.036,1.957,1.584,2.912a21.215,21.215,0,0,0,7,7.075" transform="translate(78.069 31.968)" fill="#4f5154"/><path d="M34.073,56.167a6.925,6.925,0,0,0,1.277-.118.792.792,0,1,0-.3-1.556,7.923,7.923,0,0,1-5.328-1.255,20.411,20.411,0,0,1-6.714-6.8c-.539-.942-1.06-1.9-1.551-2.852A19.589,19.589,0,0,1,19.5,35.524c0-2.972.959-5.169,2.7-6.184a.792.792,0,0,0-.8-1.369c-2.251,1.311-3.489,3.993-3.489,7.553a21.172,21.172,0,0,0,2.116,8.746l.015.03c.506.981,1.043,1.97,1.6,2.942l.017.028a22.051,22.051,0,0,0,7.27,7.341,10.436,10.436,0,0,0,5.139,1.556M20.75,43.938h0Z" transform="translate(75.432 31.927)" fill="#4f5154"/><path d="M28.44,53.282a8.034,8.034,0,0,0,5.437,1.247l1.509-.554c1.785-1.026,2.89-3.232,2.89-6.371,0-6.274-4.4-13.9-9.836-17.038C26,29.159,23.769,28.9,22.05,29.6c-.193.1-.386.191-.577.285-1.772,1.03-2.869,3.232-2.869,6.36A18.967,18.967,0,0,0,20.5,44.036c.468.906.959,1.811,1.466,2.7a19.667,19.667,0,0,0,6.478,6.551" transform="translate(71.673 33.485)" fill="#e2dbd8"/><path d="M35.178,55.122a6.125,6.125,0,0,0,1.148-.105.555.555,0,1,0-.206-1.09,7.525,7.525,0,0,1-5.058-1.182,19.1,19.1,0,0,1-6.279-6.356c-.5-.878-.989-1.77-1.444-2.654A18.286,18.286,0,0,1,21.5,36.189c0-2.82.921-4.907,2.592-5.882a.554.554,0,1,0-.558-.957c-2.028,1.178-3.144,3.607-3.144,6.839a19.412,19.412,0,0,0,1.944,8.023l.009.019c.468.906.963,1.82,1.478,2.719l.013.019a20.232,20.232,0,0,0,6.669,6.736,9.492,9.492,0,0,0,4.669,1.416M22.842,43.978h0Z" transform="translate(69.327 33.543)" fill="#f2f2f2"/><path d="M32.371,25.7c-3.832,1.946-12.242,5.871-15.542,8.038a2.668,2.668,0,0,0-1.1,1.092,2.59,2.59,0,0,0-.1,1.184,95.287,95.287,0,0,0,1.646,12.072c.408,2.011-.019,11.813,2.212,12.156,1.219.185,5.221-3.116,6.452-3.474,2.066-.6,4.131-1.2,6.191-1.824,2.036-.616,1.644-.206,3.661-.884Z" transform="translate(80.583 29.448)" fill="#f8b495"/><path d="M17.732,35.039c5.431,3.137,9.836,10.763,9.836,17.036,0,3.141-1.105,5.347-2.89,6.373,7.113-2.605,16.549-5.858,18.473-6.708L29.268,25.321c-4.081,1.918-10.628,5.165-17.926,8.753,1.719-.706,3.95-.442,6.39.966" transform="translate(82.381 29.013)" fill="#fff"/><path d="M68.918,40.566a25.224,25.224,0,0,0-3.772-7.021c-1.637-2.131-3.077-2.47-5.515-3.33A34.936,34.936,0,0,0,48.893,28.36a95.207,95.207,0,0,0-13.92,1.013,32.815,32.815,0,0,0-6.405,1.219,32.872,32.872,0,0,0-5.174,2.42A7.349,7.349,0,0,0,21.4,34.394a3.448,3.448,0,0,0-.275.339h6.339V61.228h-1.8a12.659,12.659,0,0,1,1.712,3.238,12.527,12.527,0,0,0,2.863,4.867c2.275,2.146,5.654,2.609,8.779,2.511a14.17,14.17,0,0,0,6-1.094q3.238-1.426,6.422-2.983,6.363-3.106,12.471-6.706a17.307,17.307,0,0,0,4.592-3.487c1.652-1.948,1.532-3.895,1.751-6.257a25.63,25.63,0,0,0-1.341-10.751" transform="translate(34.173 32.477)" fill="#ffbfa2"/><path d="M21.961,33.51c1,6.092,3.5,12.7,9.178,15.875.444.249.026.961-.4.68-5.652-3.725-8.088-10.053-8.828-16.549,0-.026.043-.032.047-.006" transform="translate(71.52 38.377)" fill="#f8b495"/><path d="M26.4,56.726c.242-.848.7-1.639.97-2.489a21.119,21.119,0,0,0,.614-2.459,26.352,26.352,0,0,0,.414-5.571,61.669,61.669,0,0,0-1.73-11.519c-.052-.232.3-.333.356-.1A61.631,61.631,0,0,1,28.85,46.347,27.4,27.4,0,0,1,28.5,51.63a21.447,21.447,0,0,1-.648,2.74,9.661,9.661,0,0,1-1.013,2.543.243.243,0,0,1-.442-.187" transform="translate(64.383 39.481)" fill="#f8b495"/><path d="M22.443,35.621l.011,0a3.314,3.314,0,0,1,.8,1.242,10.505,10.505,0,0,0,1.049,1.6A11.163,11.163,0,0,0,25.5,39.711,6.315,6.315,0,0,1,26.8,40.9a.163.163,0,0,1-.182.236,3.243,3.243,0,0,1-1.436-.931,10.436,10.436,0,0,1-1.3-1.421c-.56-.734-1.706-2.169-1.442-3.159" transform="translate(74.973 40.81)" fill="#f8b495"/><path d="M30.27,34.734H23.929a3.791,3.791,0,0,1,.275-.339,7.367,7.367,0,0,1,2-1.384,32.771,32.771,0,0,1,5.174-2.418,32.815,32.815,0,0,1,6.405-1.219A94.594,94.594,0,0,1,51.7,28.361a34.872,34.872,0,0,1,10.738,1.854c1.073.378,1.951.657,2.74,1.03a10.488,10.488,0,0,1,.438,11.568c-1.584,2.375-4.277,2.534-6.97,3.326-.315,0-.474.792-.474,1.109-.112,7.3-.944,15.248-5.152,21.113q-2.578,1.233-5.193,2.388a14.12,14.12,0,0,1-6,1.092c-3.124.1-6.506-.363-8.779-2.508a12.54,12.54,0,0,1-2.865-4.869,12.665,12.665,0,0,0-1.712-3.238h1.8Z" transform="translate(31.369 32.477)" fill="#f8b495"/><path d="M51.66,34.49A9.6,9.6,0,0,0,47.6,33.035a9.056,9.056,0,0,0-6.047,2.039A4.593,4.593,0,0,0,39.6,38.217a3.434,3.434,0,0,0,.906,2.4c1.358-.8,2.712-1.644,4.193-2.358,2.39-1.193,4.613-2.5,6.965-3.77" transform="translate(13.253 37.838)" fill="#ee9c76"/><path d="M37.772,23.627,28.614,75.775a3.466,3.466,0,0,0,1.5,3.146,10.865,10.865,0,0,0,9.708,1.73,3.492,3.492,0,0,0,2.53-2.472L51.508,26.03a3.492,3.492,0,0,1-2.53,2.472,10.865,10.865,0,0,1-9.708-1.73,3.461,3.461,0,0,1-1.5-3.146" transform="translate(37.037 27.072)" fill="#dde3f4"/></g></g><g transform="translate(66.086 52.1)"><g transform="translate(0)" clip-path="url(#h)"><path d="M43.8,23.627l-8.8,50.081a2.366,2.366,0,0,0,.01.851l8.8-50.081a2.366,2.366,0,0,1-.01-.851" transform="translate(-34.974 -23.627)" fill="#dde3f4"/><path d="M43.571,24.04l-8.8,50.081a3.064,3.064,0,0,0,.412,1.022L43.981,25.06a3.075,3.075,0,0,1-.41-1.02" transform="translate(-34.731 -23.189)" fill="#dde3f4"/><path d="M41.957,24.536l-8.8,50.081a4.875,4.875,0,0,0,1.018,1.15,8.312,8.312,0,0,0,2.308,1.342l8.8-50.081a8.312,8.312,0,0,1-2.308-1.342,4.875,4.875,0,0,1-1.018-1.15" transform="translate(-32.707 -22.663)" fill="#e9ecf5"/><path d="M41.167,25.745l-8.8,50.081a11.215,11.215,0,0,0,1.628.5l8.8-50.083a10.885,10.885,0,0,1-1.628-.5" transform="translate(-28.591 -21.38)" fill="#e9ecf5"/><path d="M40.464,25.988l-8.8,50.081a11.947,11.947,0,0,0,1.451.233l8.793-50.083a11.579,11.579,0,0,1-1.449-.231" transform="translate(-26.26 -21.123)" fill="#e9ecf5"/><path d="M39.722,26.1l-8.8,50.081a10.887,10.887,0,0,0,1.529.039l8.8-50.081a10.877,10.877,0,0,1-1.529-.039" transform="translate(-24.069 -21.004)" fill="#e9ecf5"/><path d="M37.374,27.573l-8.8,50.081a8.207,8.207,0,0,0,2.407-.453,3.348,3.348,0,0,0,2.43-2.372l8.8-50.081a3.351,3.351,0,0,1-2.43,2.372,8.275,8.275,0,0,1-2.407.453" transform="translate(-20.19 -22.438)" fill="#dde3f4"/></g></g><g transform="translate(0 0)"><g clip-path="url(#a)"><path d="M31.129,22.735c-2.966,1.073-3.429,3.588-1.032,5.618A10.866,10.866,0,0,0,39.8,30.08c2.968-1.075,3.429-3.59,1.034-5.618a10.864,10.864,0,0,0-9.708-1.727" transform="translate(46.211 25.494)" fill="#e9ecf5"/><path d="M41.209,40.137a.094.094,0,0,1,.163.094,6.836,6.836,0,0,0-.717,3.8c.036.367-.564.378-.582,0a6.293,6.293,0,0,1,1.135-3.89" transform="translate(22.507 45.94)" fill="#f8b495"/><path d="M41.273,40.342c.118-.148.311.041.242.189a5.269,5.269,0,0,0-.365,1.627.279.279,0,0,1-.558,0,2.74,2.74,0,0,1,.68-1.815" transform="translate(21.241 46.162)" fill="#f8b495"/><path d="M39.267,45.278a4.215,4.215,0,0,1,.277-1.047.121.121,0,0,1,.234.064,3.929,3.929,0,0,0-.124,1.047c0,.264.118.554-.049.779a.138.138,0,0,1-.212.028c-.245-.2-.161-.588-.124-.871" transform="translate(25.923 50.585)" fill="#f8b495"/><path d="M36.467,52.636c3.689,2.423,8.474,2.691,12.765,1.663A7.187,7.187,0,0,0,53.2,52.235a3.076,3.076,0,0,0,.019-4.114c-1.026-.914-2.575-.736-3.948-.732-3.762.013-7.313-1.691-11.038-2.212-1.811-.253-4.892-.547-5.1,1.925-.191,2.242,1.59,4.384,3.339,5.534" transform="translate(24.815 51.577)" fill="#ffbfa2"/><path d="M33.157,47.425q0-.161.013-.322c.21-2.472,3.292-2.18,5.1-1.927C42,45.7,45.549,47.4,49.311,47.391c1.373,0,2.923-.182,3.948.732a2.3,2.3,0,0,1,.689,1.15,13.671,13.671,0,0,1-7.137,1.176q-.962-.084-1.923-.2c0,.494.009.985.034,1.476.028.6.206,1.167.234,1.755.009.174-.212.2-.3.082-.642-.9-.418-2.266-.221-3.341a43.22,43.22,0,0,1-11.48-2.8" transform="translate(24.774 51.576)" fill="#f8b495"/><path d="M33.427,49.556c.257,1.708,3.223,1.2,3.626,0,.4-1.172-.219-3.536-2.489-2.968-.908.23-1.122.79-1.167,1.639a6.557,6.557,0,0,0,.03,1.33" transform="translate(41.082 53.279)" fill="#fcd4c2"/><path d="M31.33,46.876a2.994,2.994,0,0,0,.251,1,3.5,3.5,0,0,0,.678.936c1.989,2.073,5.71,3.075,8.457,3.614a29.362,29.362,0,0,0,9.143.691,16.573,16.573,0,0,0,6.236-1.755c2.227-1.3,5.227-5.7,1.7-7.375-2.013-.957-4.946.006-7.066.062a49.239,49.239,0,0,1-7.706-.474C40.9,43.3,38.8,42.923,36.7,42.526a11.48,11.48,0,0,1-2.641-.7c-.6-.262-1.423-.929-2.105-.483-.953.622-.622,3.588-.644,4.556a8.192,8.192,0,0,0,.019.974" transform="translate(23.35 47.203)" fill="#ffbfa2"/><path d="M32.784,41.346c.682-.446,1.506.221,2.107.485a11.54,11.54,0,0,0,2.639.7c2.1.4,4.2.77,6.322,1.051a49.251,49.251,0,0,0,7.708.474c1.85-.047,4.32-.788,6.257-.339-1,.517-2.109,1-2.517,1.953a3.5,3.5,0,0,0,2.06,4.277,2.762,2.762,0,0,0,1.107.133,6.97,6.97,0,0,1-1.543,1.29,16.573,16.573,0,0,1-6.236,1.755,29.366,29.366,0,0,1-9.143-.691c-2.744-.539-6.467-1.539-8.457-3.614a3.5,3.5,0,0,1-.678-.936,3.045,3.045,0,0,1-.251-1,8.67,8.67,0,0,1-.019-.974c.021-.968-.309-3.933.644-4.556" transform="translate(22.518 47.203)" fill="#ffbfa2"/><path d="M33.974,44.524a22.249,22.249,0,0,1-2.111-.959c.034-.966.187-1.9.674-2.219.682-.446,1.506.221,2.107.485a11.528,11.528,0,0,0,2.641.7c2.1.4,4.2.77,6.319,1.051a49.267,49.267,0,0,0,7.708.474c2.118-.054,5.051-1.019,7.066-.06.127.06.242.122.354.189a4.719,4.719,0,0,1-1.815,1.481c-5.54,2.2-11.508,1.135-17.19.852a9.946,9.946,0,0,1-3.343-1.105.186.186,0,0,1-.036.047,4.2,4.2,0,0,0-.569,2.075,5.8,5.8,0,0,0,.2,1.948.243.243,0,0,1-.442.187,3.651,3.651,0,0,1-.348-2.363,3.726,3.726,0,0,1,.768-2.069c-.208-.079-.418-.152-.631-.212-.5-.144-.852-.356-1.35-.5" transform="translate(22.765 47.203)" fill="#f8b495"/><path d="M31.929,44.342a2.522,2.522,0,0,0,2.905,3.592c4.9-1.88,1.749-6.088-.906-4.95a4.484,4.484,0,0,0-2,1.358" transform="translate(44.655 49.031)" fill="#fcd4c2"/><path d="M58.247,41.935a11.823,11.823,0,0,0-4.7-.627c-5.684.054-12.414.719-16.986-3.354a6.732,6.732,0,0,0-2-1.539c-.418.283-.835.571-1.262.82-.021.047-.041.1-.06.148a16.362,16.362,0,0,0-1.086,5.695,5.15,5.15,0,0,0,.318,2.092,5.282,5.282,0,0,0,1.26,1.642,10.345,10.345,0,0,0,3.4,2.564c5.918,1.938,12.783,2.843,18.814.953a22.917,22.917,0,0,0,2.253-.839c1.236-.536,2.485-1.184,2.77-2.605a4.375,4.375,0,0,0-2.714-4.95" transform="translate(19.839 41.726)" fill="#ffbfa2"/><path d="M32.7,43.75a4,4,0,0,0,1.367,1.27,2.477,2.477,0,0,0,2.06-.026c1.124-.335,3.008-.848,2.373-3.073-.262-.918-.5-2.547-2.8-2.317-1.442.144-4.133,2.017-3,4.146" transform="translate(41.668 45.354)" fill="#fcd4c2"/><path d="M54.575,41.324c-5.686.054-12.414.719-16.986-3.352C37.018,37.464,36.3,36.6,35.61,36.4c-.421.283-.837.506-1.264.757-.019.047-.064.189-.086.24-.107.283-.208.571-.3.86.019.013.041.024.062.036,2.416,1.208,4.547,2.985,7.246,3.837.071,0,.354.142.425.142,4.262.71,8.311,2.06,12.643,1.208A10.1,10.1,0,0,0,58.188,41.6a15.518,15.518,0,0,0-3.614-.273" transform="translate(18.81 41.709)" fill="#f8b495"/><path d="M53.849,37.112c-1.62-1.077-3.581-1.478-5.4-2.169a20.222,20.222,0,0,1-2.491-1.236c-2.352,1.27-4.575,2.577-6.965,3.772-1.481.712-2.815,1.609-4.174,2.412a8.355,8.355,0,0,0,2.451,1.848,25.957,25.957,0,0,0,13.3,3.1,9.116,9.116,0,0,0,3.178-.575,4,4,0,0,0,2.27-2.2c.672-1.826-.545-3.877-2.165-4.955" transform="translate(18.954 38.621)" fill="#ffbfa2"/><path d="M53.883,37.112c-1.62-1.077-3.581-1.478-5.4-2.169a20.222,20.222,0,0,1-2.491-1.236c-3.24,1.285-4.785,2.614-6.965,3.772-1.451.772-2.82,1.547-4.174,2.412a5.567,5.567,0,0,0,.616.592,15.365,15.365,0,0,1,4.27-1.23c2.839-.354,5.043,1.421,7.6,2.2A11.226,11.226,0,0,0,56.164,40.3a5.315,5.315,0,0,0-2.281-3.191" transform="translate(18.92 38.621)" fill="#f8b495"/><path d="M37.089,36.253a2.582,2.582,0,0,0-1,.519,2.479,2.479,0,0,0-.921,1.811A2.367,2.367,0,0,0,37.83,40.95a3.031,3.031,0,0,0,2.933-1.691,2.661,2.661,0,0,0-.549-2.841,2.729,2.729,0,0,0-1.732-.36,5.274,5.274,0,0,0-1.393.2" transform="translate(33.472 41.312)" fill="#fcd4c2"/><path d="M42.128,46c0-7.283-5.113-16.139-11.42-19.78-2.738-1.581-5.249-1.918-7.216-1.2a5.242,5.242,0,0,0-.854.4c-4.553,2.1-5.865,2.8-13.261,6.44,1.856-.762,5.128-.311,7.764,1.21,5.867,3.386,10.622,11.624,10.622,18.4,0,3.393-2.028,6.637-3.955,7.744,7.141-2.614,11.04-4.12,14.109-5.414a5.372,5.372,0,0,0,.571-.245c2.24-1.114,3.641-3.738,3.641-7.551" transform="translate(87.623 28.253)" fill="#1b2224"/><path d="M31.306,55.378a.536.536,0,0,0,.191-.034l1.509-.554a.616.616,0,0,0,.086-.039c2.043-1.174,3.167-3.607,3.167-6.854,0-6.44-4.536-14.3-10.113-17.516-2.493-1.44-4.938-1.794-6.877-1l-.034.015-.579.285a.554.554,0,0,0,.491.994l.56-.275c1.614-.654,3.7-.322,5.886.94,5.27,3.043,9.557,10.469,9.557,16.555,0,2.809-.912,4.89-2.571,5.869l-1.463.536a.555.555,0,0,0,.191,1.075" transform="translate(74.244 33.19)" fill="#f2f2f2"/><path d="M29.891,56.443a.949.949,0,0,0,.273-.049c1.034-.307,5.27-1.176,5.27-8.223,0-7.015-4.944-15.576-11.019-19.085-2.749-1.586-5.446-1.974-7.6-1.09l-.049.024-.624.307a.791.791,0,0,0-.36,1.06c.193.393.345.348.738.154l.545-.011c1.7-.927,4.255-.4,6.558.927,5.639,3.255,10.227,11.2,10.227,17.714,0,2.955-.369,5.118-3.4,6.249-.551.2-.341.309-.83.489a.791.791,0,0,0,.273,1.534" transform="translate(80.745 31.546)" fill="#4f5154"/><path d="M24.979,46.271a5.489,5.489,0,0,0,7.173,1.6c3.408-1.88,5.659-6.912,9.373-7.236a9.243,9.243,0,0,1,5.849,1.676A18.415,18.415,0,0,0,50.5,44.143c1.53.594,4.21.749,5.543-.444a9.554,9.554,0,0,0,2.436-4.659,8.777,8.777,0,0,0-.895-6.347A8.7,8.7,0,0,0,53.7,29.538,22.344,22.344,0,0,0,42.366,27.38c-.034,0-.069,0-.1.009-.109.009-.219.019-.326.034a3.988,3.988,0,0,0-.616.114c-.054.015-.105.03-.157.047s-.084.03-.127.043a10.677,10.677,0,0,0-1.176.494c-.137.067-.275.137-.41.212a16.506,16.506,0,0,0-2.2,1.433,37.609,37.609,0,0,0-2.976,2.562,70.84,70.84,0,0,0-6.006,6.579c-1.369,1.65-3.343,3.8-3.708,6.1a1.767,1.767,0,0,0,.418,1.268" transform="translate(38.493 31.291)" fill="#ffbfa2"/><path d="M30.559,42.388c4.433-2.217,7.126-6.176,10.926-9.186.318-.157.159-1.107-.157-1.584,1.107.792,1.584,2.375,2.691,3.011,2.375,1.425,5.068,1.584,7.444,2.691a5.611,5.611,0,0,0,6-1.253,7.823,7.823,0,0,1-1.794,2.7c-1.33,1.193-4.011,1.039-5.54.444A18.331,18.331,0,0,1,47,37.373,9.232,9.232,0,0,0,41.151,35.7c-3.714.322-5.965,5.354-9.375,7.234a5.483,5.483,0,0,1-6.824-1.163,5.531,5.531,0,0,0,5.607.618" transform="translate(38.867 36.228)" fill="#f8b495"/><path d="M37.6,39.471a1.767,1.767,0,0,1-.418-1.268,11.32,11.32,0,0,1,2.757-4.959c2.21.326,4.723,2.064,4.249,4.429a5.553,5.553,0,0,1-3.474,3.935A5.476,5.476,0,0,1,37.6,39.471" transform="translate(25.872 38.091)" fill="#fcd4c2"/><path d="M37.908,42.626a4.189,4.189,0,0,1,.5-2.354.113.113,0,0,1,.206.086,21.4,21.4,0,0,0-.019,5.161c.024.253-.391.307-.444.06a12.976,12.976,0,0,1-.238-2.953" transform="translate(29.923 46.082)" fill="#f8b495"/><path d="M38.712,40.935c.011-.073.127-.054.127.017A22.207,22.207,0,0,1,38.745,44c-.006.049-.086.073-.094.013a9.742,9.742,0,0,1,.062-3.077" transform="translate(28.295 46.85)" fill="#f8b495"/><path d="M38.878,42.972a7.558,7.558,0,0,1,.579-2.738c.073-.176.345-.114.294.082a10.786,10.786,0,0,0-.266,2.8c.011.867.223,1.764.152,2.622a.274.274,0,0,1-.536.073,9.627,9.627,0,0,1-.223-2.841" transform="translate(26.709 45.982)" fill="#f8b495"/><path d="M45.318,38.655a.113.113,0,0,1,.2.114,8.1,8.1,0,0,0-.856,4.526c.041.438-.674.448-.691,0a7.487,7.487,0,0,1,1.352-4.639" transform="translate(10.014 44.231)" fill="#f8b495"/><path d="M45.4,38.9c.139-.176.371.049.29.223a6.274,6.274,0,0,0-.436,1.94.333.333,0,0,1-.665,0A3.267,3.267,0,0,1,45.4,38.9" transform="translate(8.503 44.498)" fill="#f8b495"/><path d="M37.53,44.019c.015-.092.155-.064.159.021a20.863,20.863,0,0,0,.436,4.622.209.209,0,0,1-.4.112,9.35,9.35,0,0,1-.191-4.755" transform="translate(31.662 50.371)" fill="#f8b495"/><path d="M37.888,47.457c.006-.049.084-.073.094-.013a8.027,8.027,0,0,1,.18,2.626c-.024.15-.266.142-.3,0a8.033,8.033,0,0,1,.021-2.614" transform="translate(30.619 54.321)" fill="#f8b495"/><path d="M43,44.785a5,5,0,0,1,.33-1.247.145.145,0,0,1,.279.077,4.7,4.7,0,0,0-.15,1.247c.006.315.142.661-.058.929a.166.166,0,0,1-.253.032c-.292-.242-.191-.7-.148-1.039" transform="translate(14.086 49.772)" fill="#f8b495"/><path d="M37.981,44.36a.04.04,0,0,1,.077,0c.137.693.245,1.378.324,2.081a3.7,3.7,0,0,1,.026,1.83.127.127,0,0,1-.2.026,2.942,2.942,0,0,1-.361-1.708,10.076,10.076,0,0,1,.135-2.229" transform="translate(30.166 50.795)" fill="#f8b495"/><path d="M32.359,32.189c.129.27.534.034.4-.236a6.21,6.21,0,0,1-.3-2.768c0-.614.015-1.23.011-1.843-.034,0-.067,0-.1.009-.109.009-.217.019-.326.034-.017.807-.013,1.614-.024,2.42a5.144,5.144,0,0,0,.341,2.384" transform="translate(48.388 31.328)" fill="#f8b495"/><path d="M32.724,29.587c.028.18.333.137.315-.043-.043-.466-.094-.933-.124-1.4-.015-.238,0-.485-.013-.73-.054.015-.105.03-.157.047s-.084.03-.127.043a7.821,7.821,0,0,0,.105,2.081" transform="translate(46.912 31.412)" fill="#f8b495"/><path d="M32.587,27.9a11.654,11.654,0,0,0,.281,1.858,9.682,9.682,0,0,0,1.1,3.214c.165.238.657.189.616-.167a15.1,15.1,0,0,0-.991-2.95,18.28,18.28,0,0,1-.6-2.167c-.137.069-.275.137-.41.212" transform="translate(45.358 31.724)" fill="#f8b495"/><path d="M36.089,10.572l-4.077,2.384c2.137-1.249,5.1-1.081,8.375.8l4.077-2.382c-3.277-1.88-6.24-2.047-8.375-.8" transform="translate(36.714 11.194)" fill="#e9ecf5"/></g></g><g transform="translate(68.973 20.134)"><g clip-path="url(#j)"><path d="M40.056,13.6l3.915-2.29c-3.145-1.8-5.991-1.964-8.043-.765l-3.915,2.287c2.053-1.2,4.9-1.039,8.043.767" transform="translate(-32.015 -9.769)" fill="#e9ecf5"/></g></g><g transform="translate(0 0)"><g clip-path="url(#a)"><path d="M34.893,40.738l4.077-2.384c2.107-1.232,3.412-3.845,3.412-7.555,0-7.467-5.274-16.549-11.783-20.282L26.522,12.9C33.03,16.634,38.307,25.715,38.3,33.182c0,3.71-1.3,6.322-3.412,7.555" transform="translate(50.577 12.049)" fill="#e9ecf5"/></g></g><g transform="translate(77.461 22.812)"><g transform="translate(0)" clip-path="url(#l)"><path d="M34.561,39.54l3.915-2.29c2.024-1.183,3.277-3.693,3.277-7.256,0-7.171-5.065-15.893-11.316-19.478l-3.915,2.29c6.25,3.586,11.318,12.307,11.316,19.478,0,3.563-1.251,6.071-3.277,7.256" transform="translate(-26.522 -10.516)" fill="#e9ecf5"/></g></g><g transform="translate(0 0)"><g clip-path="url(#a)"><path d="M40.209,12.481C33.7,8.747,28.424,11.773,28.422,19.24S33.7,35.787,40.2,39.523s11.785.708,11.787-6.759S46.717,16.215,40.209,12.481" transform="translate(36.89 12.468)" fill="#a6afcd"/><path d="M48.288,10.594l-13.48,7.785c2.689-1.573,6.418-1.36,10.54,1L58.826,11.6c-4.12-2.365-7.849-2.577-10.538-1" transform="translate(16.353 10.981)" fill="#13b7fd"/></g></g><g transform="translate(51.548 19.75)"><g clip-path="url(#n)"><path d="M44.927,18.995l12.946-7.476c-3.959-2.271-7.54-2.473-10.123-.964L34.807,18.03c2.58-1.508,6.162-1.307,10.12.964" transform="translate(-34.805 -9.583)" fill="#13b7fd"/></g></g><g transform="translate(0 0)"><g clip-path="url(#a)"><path d="M38.431,53.343l13.48-7.785c2.654-1.551,4.294-4.841,4.294-9.51,0-9.4-6.637-20.825-14.83-25.524L27.9,18.308c8.191,4.7,14.83,16.128,14.828,25.524,0,4.669-1.639,7.959-4.294,9.51" transform="translate(33.804 12.057)" fill="#13b7fd"/></g></g><g transform="translate(62.271 22.975)"><g clip-path="url(#p)"><path d="M38.013,51.646l12.946-7.476c2.549-1.49,4.124-4.649,4.124-9.133,0-9.024-6.374-20-14.242-24.513L27.9,18c7.866,4.513,14.242,15.489,14.24,24.513,0,4.484-1.574,7.643-4.124,9.133" transform="translate(-27.897 -10.523)" fill="#13b7fd"/></g></g><g transform="translate(0 0)"><g clip-path="url(#a)"><path d="M49.012,15.226c-8.191-4.7-14.832-.891-14.834,8.506s6.637,20.825,14.828,25.527,14.834.891,14.836-8.506S57.2,19.925,49.012,15.226" transform="translate(12.689 15.139)" fill="#1499fc"/><path d="M67.624,14.353A11.607,11.607,0,0,1,78.16,15.385c8.18,4.721,14.787,16.167,14.761,25.565a12,12,0,0,1-4.32,9.5C84.276,54.343,72,76.026,67.736,80.515c.376-1.74,4.491-11.6,4.5-13.68.045-15.662-10.969-34.739-24.6-42.609-3.124-1.8-10.313-2.878-13.066-3.249,9.175-1.665,27.288-4.386,33.056-6.624" transform="translate(-17.228 15.512)" fill="#e9ecf5"/><path d="M68.97,20.326c-13.63-7.869-24.718-1.551-24.761,14.111s10.969,34.739,24.6,42.609S93.524,78.6,93.569,62.936,82.6,28.2,68.97,20.326" transform="translate(-38.563 19.411)" fill="#bcc5df"/><path d="M61.049,18.742,55.91,21.729c4.489-2.609,10.7-2.242,17.561,1.719l5.139-2.987c-6.86-3.959-13.074-4.326-17.561-1.719" transform="translate(-48.713 19.566)" fill="#e9ecf5"/></g></g><g transform="translate(6.914 36.713)"><g clip-path="url(#r)"><path d="M72.774,23.2l4.936-2.869c-6.588-3.8-12.556-4.155-16.865-1.651l-4.936,2.869c4.311-2.506,10.279-2.154,16.865,1.651" transform="translate(-55.909 -17.077)" fill="#e9ecf5"/></g></g><g transform="translate(0 0)"><g clip-path="url(#a)"><path d="M61.845,80.08l5.139-2.987c4.429-2.573,7.176-8.049,7.2-15.83.043-15.662-10.969-34.739-24.6-42.609l-5.137,2.987c13.63,7.869,24.645,26.947,24.6,42.609-.021,7.781-2.768,13.255-7.2,15.83" transform="translate(-19.684 21.374)" fill="#e9ecf5"/></g></g><g transform="translate(25.002 41.268)"><g clip-path="url(#t)"><path d="M61.156,77.646l4.936-2.869c4.253-2.471,6.891-7.73,6.914-15.2.041-15.042-10.535-33.362-23.627-40.921l-4.933,2.869C57.535,29.079,68.113,47.4,68.07,62.443c-.021,7.472-2.658,12.729-6.914,15.2" transform="translate(-44.443 -18.654)" fill="#e9ecf5"/></g></g><g transform="translate(0 0)"><g clip-path="url(#a)"><path d="M71.6,21.853C57.97,13.985,46.885,20.3,46.84,35.964S57.809,70.7,71.44,78.572,96.157,80.125,96.2,64.463,85.231,29.722,71.6,21.853" transform="translate(-46.84 21.161)" fill="#fff"/><path d="M80.365,75.784A8.218,8.218,0,0,0,87.094,72.7C89,70.33,90.014,66.738,90.025,62.3a37.882,37.882,0,0,0-1.736-10.987,54.846,54.846,0,0,0-12.171-21.08,38.4,38.4,0,0,0-8.68-7.045,18.737,18.737,0,0,0-9.062-2.847,8.223,8.223,0,0,0-6.729,3.09c-1.905,2.365-2.92,5.959-2.931,10.394a37.87,37.87,0,0,0,1.736,10.984A54.833,54.833,0,0,0,62.623,65.894a38.513,38.513,0,0,0,8.68,7.045,18.755,18.755,0,0,0,9.062,2.845" transform="translate(-44.691 23.309)" fill="#a6afcd"/><path d="M65.3,50.186c.017-5.869-4.111-13.017-9.218-15.967-2.571-1.483-4.9-1.62-6.581-.644L65.289,24.4c.38.38.76.768,1.135,1.167A53.413,53.413,0,0,1,73.7,35.434,53.219,53.219,0,0,1,78.595,46.65l.045.152L62.606,56.119c1.659-.966,2.689-3.017,2.7-5.933" transform="translate(-34.996 27.96)" fill="#1499fc"/><path d="M65,29.654c-5.107-2.948-9.261-.582-9.278,5.287S59.83,47.96,64.937,50.909s9.261.582,9.278-5.287S70.1,32.6,65,29.654" transform="translate(-43.908 32.525)" fill="#13b7fd"/></g></g></g></svg>