<svg xmlns="http://www.w3.org/2000/svg" xmlns:xlink="http://www.w3.org/1999/xlink" width="94.208" height="90.133" viewBox="0 0 94.208 90.133"><defs><clipPath id="a"><rect width="94.208" height="90.133" fill="#599cb3"/></clipPath></defs><g transform="translate(0 0)"><g transform="translate(0 0)" clip-path="url(#a)"><path d="M58.644,14.015A1.88,1.88,0,1,1,56.763,15.9a1.882,1.882,0,0,1,1.881-1.881" transform="translate(31.489 7.775)" fill="#599cb3"/><path d="M58.644,45.471a1.881,1.881,0,1,1-1.881,1.881,1.882,1.882,0,0,1,1.881-1.881" transform="translate(31.489 25.225)" fill="#599cb3"/><path d="M51.082,55.553A1.881,1.881,0,1,1,49.2,57.434a1.881,1.881,0,0,1,1.881-1.881" transform="translate(27.294 30.818)" fill="#599cb3"/><path d="M4.5,2.622A1.881,1.881,0,1,1,2.621,4.5,1.882,1.882,0,0,1,4.5,2.622" transform="translate(1.454 1.455)" fill="#599cb3"/><path d="M4.5,42.95a1.881,1.881,0,1,1-1.881,1.881A1.882,1.882,0,0,1,4.5,42.95" transform="translate(1.454 23.827)" fill="#599cb3"/><path d="M57.853,15.832H46.1a2.075,2.075,0,0,1-2.037-2.038V2.038a2.037,2.037,0,1,1,4.075,0v9.874H58.01a2.075,2.075,0,0,1,2.038,2.038,2.348,2.348,0,0,1-2.2,1.881" transform="translate(24.441 0)" fill="#599cb3"/><path d="M66.344,84.057H9.6a2.074,2.074,0,0,1-2.037-2.038V9.6A2.075,2.075,0,0,1,9.6,7.562h7.839a2.037,2.037,0,1,1,0,4.075H11.48v68.5H64.462V74.181a2.038,2.038,0,0,1,4.077,0v7.837a2.34,2.34,0,0,1-2.2,2.038" transform="translate(4.195 4.195)" fill="#599cb3"/><path d="M75.3,80.413H14.64A2.075,2.075,0,0,1,12.6,78.376V2.038A2.076,2.076,0,0,1,14.64,0H63.548a1.916,1.916,0,0,1,1.41.627L76.715,12.384a2.341,2.341,0,0,1,.627,1.41V78.533a2.051,2.051,0,0,1-2.038,1.88M16.522,76.495h56.9V14.577L62.764,3.92H16.522Z" transform="translate(6.991 0)" fill="#599cb3"/><path d="M31.438,51.484A13.794,13.794,0,1,1,45.232,37.69,13.816,13.816,0,0,1,31.438,51.484m0-23.512a9.935,9.935,0,0,0-9.876,9.876,9.834,9.834,0,0,0,9.876,9.874,9.875,9.875,0,1,0,0-19.75" transform="translate(9.787 13.256)" fill="#599cb3"/><path d="M32.814,41.2a1.916,1.916,0,0,1-1.41-.627L23.1,32.269a1.995,1.995,0,0,1,2.822-2.82l8.309,8.307a1.988,1.988,0,0,1,0,2.822,2.814,2.814,0,0,1-1.412.627" transform="translate(12.486 16.011)" fill="#599cb3"/><path d="M24.507,41.2a1.919,1.919,0,0,1-1.412-.627,1.988,1.988,0,0,1,0-2.822L31.4,29.449a1.995,1.995,0,1,1,2.822,2.82l-8.309,8.309a2.809,2.809,0,0,1-1.41.627" transform="translate(12.486 16.011)" fill="#599cb3"/><path d="M58.889,11.914a5.957,5.957,0,1,1,5.956-5.956,6.057,6.057,0,0,1-5.956,5.956m0-7.837a2.075,2.075,0,0,0-2.038,2.038,2.038,2.038,0,0,0,4.077,0,2.181,2.181,0,0,0-2.038-2.038" transform="translate(29.363 0)" fill="#599cb3"/><path d="M4.859,41.377a4.859,4.859,0,0,1,0-9.719,4.859,4.859,0,0,1,0,9.719m0-5.956a.941.941,0,0,0,0,1.881,1.013,1.013,0,0,0,.941-.941.9.9,0,0,0-.941-.941" transform="translate(0 17.562)" fill="#599cb3"/><path d="M25.536,26.4H19.58a2.075,2.075,0,0,1-2.038-2.038V14.641A2.075,2.075,0,0,1,19.58,12.6h5.956a2.037,2.037,0,1,1,0,4.075H21.619v5.8h3.918a2.075,2.075,0,0,1,2.038,2.037A1.944,1.944,0,0,1,25.536,26.4" transform="translate(9.731 6.992)" fill="#599cb3"/><path d="M29.368,27.124H23.411a2.075,2.075,0,0,1-2.037-2.038V13.33a2.075,2.075,0,0,1,2.037-2.038h5.958a2.038,2.038,0,0,1,0,4.077H25.451v7.837h3.918a2.075,2.075,0,0,1,2.038,2.037,2.046,2.046,0,0,1-2.038,1.881" transform="translate(11.857 6.265)" fill="#599cb3"/><path d="M33.1,27.851H27.142A2.075,2.075,0,0,1,25.1,25.813V12.019a2.075,2.075,0,0,1,2.038-2.038H33.1a2.038,2.038,0,0,1,0,4.077h-3.92v9.876H33.1a2.075,2.075,0,0,1,2.037,2.037A1.943,1.943,0,0,1,33.1,27.851" transform="translate(13.926 5.537)" fill="#599cb3"/><path d="M36.93,28.522H30.974a2.075,2.075,0,0,1-2.038-2.038V10.809a2.075,2.075,0,0,1,2.038-2.038H36.93a2.038,2.038,0,1,1,0,4.077h-3.92V24.6h3.92a2.075,2.075,0,0,1,2.038,2.037,2.046,2.046,0,0,1-2.038,1.881" transform="translate(16.052 4.866)" fill="#599cb3"/><path d="M40.66,29.193H34.7a2.075,2.075,0,0,1-2.038-2.037V9.6A2.075,2.075,0,0,1,34.7,7.562H40.66A2.075,2.075,0,0,1,42.7,9.6V27.313a2.053,2.053,0,0,1-2.038,1.88m-3.918-3.918h2.038V11.482H36.743Z" transform="translate(18.121 4.195)" fill="#599cb3"/><path d="M40.573,43.094H38.535a2.037,2.037,0,0,1,0-4.075h2.038a2.074,2.074,0,0,1,2.038,2.037,2.189,2.189,0,0,1-2.038,2.038" transform="translate(20.247 21.646)" fill="#599cb3"/><path d="M51.414,43.094H43.576a2.037,2.037,0,1,1,0-4.075h7.837a2.037,2.037,0,1,1,0,4.075" transform="translate(23.043 21.646)" fill="#599cb3"/><path d="M40.573,39.363H38.535a2.037,2.037,0,0,1,0-4.075h2.038a2.074,2.074,0,0,1,2.038,2.037,2.189,2.189,0,0,1-2.038,2.038" transform="translate(20.247 19.576)" fill="#599cb3"/><path d="M51.414,39.363H43.576a2.037,2.037,0,1,1,0-4.075h7.837a2.037,2.037,0,1,1,0,4.075" transform="translate(23.043 19.576)" fill="#599cb3"/><path d="M40.573,35.533H38.535a2.038,2.038,0,0,1,0-4.077h2.038a2.075,2.075,0,0,1,2.038,2.038,2.191,2.191,0,0,1-2.038,2.038" transform="translate(20.247 17.45)" fill="#599cb3"/><path d="M51.414,35.533H43.576a2.038,2.038,0,1,1,0-4.077h7.837a2.038,2.038,0,1,1,0,4.077" transform="translate(23.043 17.45)" fill="#599cb3"/><path d="M40.573,31.8H38.535a2.038,2.038,0,0,1,0-4.077h2.038a2.075,2.075,0,0,1,2.038,2.038A2.326,2.326,0,0,1,40.573,31.8" transform="translate(20.247 15.381)" fill="#599cb3"/><path d="M51.414,31.8H43.576a2.038,2.038,0,1,1,0-4.077h7.837a2.038,2.038,0,1,1,0,4.077" transform="translate(23.043 15.381)" fill="#599cb3"/><path d="M40.573,27.972H38.535a2.038,2.038,0,0,1,0-4.077h2.038a2.075,2.075,0,0,1,2.038,2.038,2.191,2.191,0,0,1-2.038,2.038" transform="translate(20.247 13.256)" fill="#599cb3"/><path d="M51.414,27.972H43.576a2.038,2.038,0,1,1,0-4.077h7.837a2.038,2.038,0,1,1,0,4.077" transform="translate(23.043 13.256)" fill="#599cb3"/><path d="M54.21,22.929H38.535a2.037,2.037,0,1,1,0-4.075H54.21a2.037,2.037,0,1,1,0,4.075" transform="translate(20.246 10.46)" fill="#599cb3"/></g></g></svg>