<svg xmlns="http://www.w3.org/2000/svg" xmlns:xlink="http://www.w3.org/1999/xlink" width="75.163" height="75.029" viewBox="0 0 75.163 75.029"><defs><clipPath id="a"><rect width="75.163" height="75.03" fill="#63bb7c"/></clipPath></defs><g transform="translate(0 0)" clip-path="url(#a)"><path d="M42.558,3.885l-.923,4.221a16.027,16.027,0,0,0-3.165,1.318L34.779,7.05a.816.816,0,0,0-1.055.132L31.48,9.424a1,1,0,0,0-.131,1.054l2.374,3.693a16.159,16.159,0,0,0-1.32,3.165l-4.219.922a.835.835,0,0,0-.659.791v3.164a.837.837,0,0,0,.659.793l4.219.923a16.2,16.2,0,0,0,1.32,3.162l-2.374,3.693a.816.816,0,0,0,.131,1.054l2.243,2.242a1,1,0,0,0,1.055.132l3.691-2.374a16.027,16.027,0,0,0,3.165,1.318l.923,4.221a.834.834,0,0,0,.79.659h3.165a.835.835,0,0,0,.791-.659l.923-4.221a16.027,16.027,0,0,0,3.165-1.318l3.692,2.374a.817.817,0,0,0,1.055-.132l2.242-2.242a1,1,0,0,0,.131-1.054L56.14,27.092a16.111,16.111,0,0,0,1.317-3.162l4.221-.923a.836.836,0,0,0,.659-.793V19.05a.833.833,0,0,0-.659-.791l-4.221-.922a16.066,16.066,0,0,0-1.317-3.165l2.373-3.693a.816.816,0,0,0-.131-1.054L56.14,7.182a1,1,0,0,0-1.055-.132L51.523,9.424a11.325,11.325,0,0,0-3.165-1.318l-.922-4.221a.835.835,0,0,0-.791-.658H43.48a.989.989,0,0,0-.922.658M45.986,4.94l.923,4.087a1.081,1.081,0,0,0,.659.659,10.666,10.666,0,0,1,3.56,1.45,1.125,1.125,0,0,0,.923,0L55.48,8.9l1.32,1.318-2.242,3.561a1.125,1.125,0,0,0,0,.923,11.892,11.892,0,0,1,1.449,3.56,1.087,1.087,0,0,0,.66.659l4.087.923v1.845l-4.087.923a1.086,1.086,0,0,0-.66.659,10.626,10.626,0,0,1-1.449,3.56,1.125,1.125,0,0,0,0,.923l2.242,3.56-1.32,1.32-3.56-2.243a1.125,1.125,0,0,0-.923,0,11.861,11.861,0,0,1-3.56,1.45,1.088,1.088,0,0,0-.659.659l-.923,4.088H44.007L43.085,32.5a1.084,1.084,0,0,0-.659-.659,10.612,10.612,0,0,1-3.56-1.45,1.125,1.125,0,0,0-.923,0l-3.56,2.243-1.32-1.32,2.243-3.56a1.125,1.125,0,0,0,0-.923,10.6,10.6,0,0,1-1.45-3.56,1.088,1.088,0,0,0-.659-.659l-4.088-.923V19.841l4.088-.923a1.087,1.087,0,0,0,.659-.659,10.623,10.623,0,0,1,1.45-3.56,1.125,1.125,0,0,0,0-.923L33.2,10.214,34.514,8.9l3.56,2.242a1.122,1.122,0,0,0,.922,0,10.673,10.673,0,0,1,3.561-1.45,1.084,1.084,0,0,0,.659-.659L44.14,4.94Z" transform="translate(8.475 0.993)" fill="#63bb7c"/><path d="M37.809,17.465a3.955,3.955,0,1,0,3.955-3.955,4.056,4.056,0,0,0-3.955,3.955m6.461,0A2.374,2.374,0,1,1,41.9,15.093a2.451,2.451,0,0,1,2.374,2.373" transform="translate(11.641 4.159)" fill="#63bb7c"/><path d="M34.381,18.521a8.439,8.439,0,1,0,16.878,0,.791.791,0,0,0-1.583,0,6.857,6.857,0,1,1-6.857-6.856.852.852,0,0,0,.793-.793.852.852,0,0,0-.793-.79,8.5,8.5,0,0,0-8.438,8.439" transform="translate(10.586 3.104)" fill="#63bb7c"/><path d="M67.651,21.625a.791.791,0,0,0-1.583,0A20.043,20.043,0,1,1,46.025,1.583.851.851,0,0,0,46.816.79.851.851,0,0,0,46.025,0,21.625,21.625,0,1,0,67.651,21.625" transform="translate(7.512 0)" fill="#63bb7c"/><path d="M23.106,61.779l.923-4.221a16.185,16.185,0,0,0,3.165-1.318l3.692,2.374a.82.82,0,0,0,1.055-.132l2.242-2.242a1,1,0,0,0,.131-1.054l-2.373-3.693a16.073,16.073,0,0,0,1.318-3.165L37.48,47.4a.832.832,0,0,0,.659-.79V43.449a.835.835,0,0,0-.659-.791l-4.219-.923a16.139,16.139,0,0,0-1.318-3.165l2.373-3.692a.816.816,0,0,0-.131-1.054l-2.242-2.242a1,1,0,0,0-1.055-.132l-3.692,2.374A11.413,11.413,0,0,0,24.03,32.5l-.923-4.221a.836.836,0,0,0-.79-.659H19.151a.837.837,0,0,0-.791.659L17.437,32.5a16.105,16.105,0,0,0-3.165,1.318l-3.692-2.374a.818.818,0,0,0-1.054.132L7.283,33.823a.993.993,0,0,0-.132,1.054l2.374,3.692a16.218,16.218,0,0,0-1.318,3.165l-4.221.923a.836.836,0,0,0-.659.791v3.165a.833.833,0,0,0,.659.79l4.221.923a16.152,16.152,0,0,0,1.318,3.165L7.151,55.186a.816.816,0,0,0,.132,1.054l2.242,2.242a1,1,0,0,0,1.054.132l3.692-2.374a16.185,16.185,0,0,0,3.165,1.318l.923,4.221a.839.839,0,0,0,.791.659h3.165a.975.975,0,0,0,.79-.659m-3.428-1.055-.922-4.088a1.09,1.09,0,0,0-.66-.659,10.623,10.623,0,0,1-3.56-1.45,1.125,1.125,0,0,0-.923,0l-3.428,2.242-1.32-1.318,2.243-3.56a1.125,1.125,0,0,0,0-.923A10.619,10.619,0,0,1,9.657,47.4,1.087,1.087,0,0,0,9,46.745l-4.088-.79V44.108L9,43.186a1.09,1.09,0,0,0,.659-.66,10.623,10.623,0,0,1,1.45-3.56,1.125,1.125,0,0,0,0-.923l-2.243-3.56,1.32-1.318,3.56,2.242a1.125,1.125,0,0,0,.923,0,10.646,10.646,0,0,1,3.561-1.45,1.083,1.083,0,0,0,.658-.659l.925-4.088h1.845L22.58,33.3a1.081,1.081,0,0,0,.659.659,10.643,10.643,0,0,1,3.559,1.45,1.125,1.125,0,0,0,.923,0l3.561-2.242L32.6,34.482l-2.242,3.56a1.125,1.125,0,0,0,0,.923,11.906,11.906,0,0,1,1.449,3.56,1.092,1.092,0,0,0,.66.66l4.087.922v1.847l-4.087.922a1.092,1.092,0,0,0-.66.66A10.648,10.648,0,0,1,30.36,51.1a1.125,1.125,0,0,0,0,.923L32.6,55.58,31.283,56.9l-3.561-2.242a1.125,1.125,0,0,0-.923,0,11.888,11.888,0,0,1-3.559,1.45,1.078,1.078,0,0,0-.659.659l-1.055,3.956Z" transform="translate(1.024 8.505)" fill="#63bb7c"/><path d="M21.522,41.865a3.955,3.955,0,1,0-3.955,3.955,4.055,4.055,0,0,0,3.955-3.955m-6.46,0a2.373,2.373,0,1,1,2.373,2.373,2.45,2.45,0,0,1-2.373-2.373" transform="translate(4.191 11.672)" fill="#63bb7c"/><path d="M27.062,42.921a8.439,8.439,0,0,0-16.878,0,.847.847,0,0,0,.79.79.85.85,0,0,0,.793-.79,6.857,6.857,0,1,1,6.856,6.857.791.791,0,1,0,0,1.581,8.5,8.5,0,0,0,8.44-8.439" transform="translate(3.136 10.616)" fill="#63bb7c"/><path d="M21.626,24.3A21.639,21.639,0,0,0,0,45.924a.852.852,0,0,0,.791.791.852.852,0,0,0,.791-.791A20.043,20.043,0,1,1,21.626,65.966a.791.791,0,1,0,0,1.583,21.625,21.625,0,1,0,0-43.251" transform="translate(0 7.481)" fill="#63bb7c"/><path d="M10.331,22.881a6.2,6.2,0,1,0-6.2-6.2,6.277,6.277,0,0,0,6.2,6.2m0-10.814a4.483,4.483,0,1,1-4.483,4.483,4.531,4.531,0,0,1,4.483-4.483" transform="translate(1.273 3.228)" fill="#63bb7c"/><path d="M47.945,40.127a4.088,4.088,0,1,0,4.087,4.088,4.023,4.023,0,0,0-4.087-4.088m0,6.593a2.505,2.505,0,1,1,2.5-2.5,2.5,2.5,0,0,1-2.5,2.5" transform="translate(13.503 12.354)" fill="#63bb7c"/><path d="M4.716,3.528A1.187,1.187,0,1,1,3.53,4.716,1.185,1.185,0,0,1,4.716,3.528" transform="translate(1.087 1.086)" fill="#63bb7c"/><path d="M21.149,3.528a1.187,1.187,0,1,1-1.186,1.188,1.186,1.186,0,0,1,1.186-1.188" transform="translate(6.146 1.086)" fill="#63bb7c"/><path d="M53.311,33.17a1.187,1.187,0,1,1-1.186,1.188,1.187,1.187,0,0,1,1.186-1.188" transform="translate(16.049 10.212)" fill="#63bb7c"/><path d="M37.482,40.127A1.186,1.186,0,1,1,36.3,41.313a1.186,1.186,0,0,1,1.186-1.186" transform="translate(11.175 12.354)" fill="#63bb7c"/><path d="M44.439,52.73a1.187,1.187,0,1,1-1.186,1.186,1.186,1.186,0,0,1,1.186-1.186" transform="translate(13.317 16.235)" fill="#63bb7c"/><path d="M31.837,54.646a1.186,1.186,0,1,1-1.186,1.186,1.186,1.186,0,0,1,1.186-1.186" transform="translate(9.437 16.825)" fill="#63bb7c"/><path d="M2.9,22.483a1.186,1.186,0,1,1-1.188,1.186A1.186,1.186,0,0,1,2.9,22.483" transform="translate(0.528 6.922)" fill="#63bb7c"/></g></svg>