<svg xmlns="http://www.w3.org/2000/svg" xmlns:xlink="http://www.w3.org/1999/xlink" width="94.208" height="87.705" viewBox="0 0 94.208 87.705"><defs><clipPath id="a"><rect width="94.208" height="87.705" fill="#599cb3"/></clipPath></defs><g transform="translate(0 0)"><g transform="translate(0 0)" clip-path="url(#a)"><path d="M57.8,36.6a1.87,1.87,0,1,1-1.87,1.87A1.87,1.87,0,0,1,57.8,36.6" transform="translate(30.488 19.951)" fill="#599cb3"/><path d="M55.281,50.512a1.87,1.87,0,1,1-1.87,1.87,1.869,1.869,0,0,1,1.87-1.87" transform="translate(29.114 27.535)" fill="#599cb3"/><path d="M37.637,37.909a1.87,1.87,0,1,1-1.871,1.87,1.87,1.87,0,0,1,1.871-1.87" transform="translate(19.496 20.665)" fill="#599cb3"/><path d="M30.075,50.512a1.87,1.87,0,1,1-1.87,1.87,1.87,1.87,0,0,1,1.87-1.87" transform="translate(15.375 27.535)" fill="#599cb3"/><path d="M27.555,41.64a1.87,1.87,0,1,1-1.871,1.87,1.869,1.869,0,0,1,1.871-1.87" transform="translate(14 22.699)" fill="#599cb3"/><path d="M4.869,37.909A1.87,1.87,0,1,1,3,39.779a1.87,1.87,0,0,1,1.87-1.87" transform="translate(1.635 20.665)" fill="#599cb3"/><path d="M20.688,67.095a8.376,8.376,0,0,1-8.412-8.412V39.835a2.025,2.025,0,1,1,4.05,0V58.683A4.521,4.521,0,0,0,20.844,63.2a4.344,4.344,0,0,0,3.115-1.247,4.634,4.634,0,0,0,1.247-3.116v-19a2.025,2.025,0,1,1,4.05,0V58.683A8.51,8.51,0,0,1,26.763,64.6a9.181,9.181,0,0,1-6.075,2.492" transform="translate(6.692 20.61)" fill="#599cb3"/><path d="M30.445,44.781H12.686a2.062,2.062,0,0,1-2.024-2.026V34.189a2.062,2.062,0,0,1,2.024-2.027,1.932,1.932,0,0,1,1.87,2.027v6.7h13.71V34.344a2.025,2.025,0,0,1,4.05,0v8.568a1.894,1.894,0,0,1-1.87,1.87" transform="translate(5.812 17.532)" fill="#599cb3"/><path d="M83.074,52.654H29.8a2.025,2.025,0,1,1,0-4.05H81.049V3.894H18.736a2.038,2.038,0,0,1-2.024-1.87A2.177,2.177,0,0,1,18.736,0H82.918a2.062,2.062,0,0,1,2.026,2.024v48.6a2.04,2.04,0,0,1-1.87,2.026" transform="translate(9.11 0)" fill="#599cb3"/><path d="M27.534,55.3a27.744,27.744,0,0,1-9.5-1.714A28.04,28.04,0,0,1,8.061,47.2a27.736,27.736,0,0,1,0-39.1A27.22,27.22,0,0,1,27.534,0H28A27.654,27.654,0,0,1,47.163,47.2,25.256,25.256,0,0,1,40,52.34a16.744,16.744,0,0,1-2.96,1.247,29.882,29.882,0,0,1-9.5,1.714m0-51.407A23.565,23.565,0,0,0,10.71,10.9a23.978,23.978,0,0,0,0,33.648,21.772,21.772,0,0,0,8.569,5.454,24.879,24.879,0,0,0,8.255,1.4,23.989,23.989,0,0,0,8.1-1.4,12.036,12.036,0,0,0,2.492-1.091A24.08,24.08,0,0,0,44.2,44.551a23.978,23.978,0,0,0,0-33.648A24.179,24.179,0,0,0,27.69,3.894Z" transform="translate(0 0)" fill="#599cb3"/><path d="M20.788,27.411A8.511,8.511,0,0,1,12.376,19,8.37,8.37,0,0,1,26.707,13.08a8.365,8.365,0,0,1,0,11.839,8.8,8.8,0,0,1-5.919,2.492m0-12.929a4.348,4.348,0,0,0-3.116,1.247,4.628,4.628,0,0,0-1.245,3.113,4.35,4.35,0,0,0,1.245,3.116A4.635,4.635,0,0,0,20.788,23.2,4.353,4.353,0,0,0,23.9,21.958a4.613,4.613,0,0,0,0-6.387,5.8,5.8,0,0,0-3.116-1.089" transform="translate(6.746 5.771)" fill="#599cb3"/><path d="M46.031,28.9H40.112a2.062,2.062,0,0,1-2.026-2.026V13.319a2.064,2.064,0,0,1,2.026-2.027h5.919a2.026,2.026,0,0,1,0,4.053h-3.9v9.813h3.9a2.061,2.061,0,0,1,2.026,2.026A1.813,1.813,0,0,1,46.031,28.9" transform="translate(20.761 6.156)" fill="#599cb3"/><path d="M49.861,30.271H43.942a2.062,2.062,0,0,1-2.026-2.026V10.8a2.062,2.062,0,0,1,2.026-2.024h5.919A2.062,2.062,0,0,1,51.887,10.8v5.922a2.026,2.026,0,0,1-4.051,0v-3.9H45.811V26.531h3.9a2.061,2.061,0,0,1,2.024,2.026,1.762,1.762,0,0,1-1.87,1.714" transform="translate(22.849 4.782)" fill="#599cb3"/><path d="M53.592,28.237H47.673a2.062,2.062,0,0,1-2.026-2.026V14.528A2.063,2.063,0,0,1,47.673,12.5h5.919a2.026,2.026,0,0,1,0,4.053H49.7v7.789h3.894a2.061,2.061,0,0,1,2.026,2.024,1.933,1.933,0,0,1-2.026,1.87" transform="translate(24.882 6.815)" fill="#599cb3"/><path d="M57.424,31.645H51.5a2.062,2.062,0,0,1-2.024-2.026V8.277A2.062,2.062,0,0,1,51.5,6.251h5.921a2.063,2.063,0,0,1,2.024,2.026v21.5a2.312,2.312,0,0,1-2.024,1.87m-3.9-3.9h2.026V10.3H53.529Z" transform="translate(26.971 3.408)" fill="#599cb3"/><path d="M63.124,24.115H55.336a2.026,2.026,0,0,1,0-4.051h7.789A2.062,2.062,0,0,1,65.15,22.09a2.177,2.177,0,0,1-2.026,2.026" transform="translate(29.059 10.937)" fill="#599cb3"/><path d="M72.742,30.466H37.692a2.025,2.025,0,1,1,0-4.05H72.742a2.061,2.061,0,0,1,2.026,2.024,2.312,2.312,0,0,1-2.026,2.026" transform="translate(19.442 14.4)" fill="#599cb3"/><path d="M63.837,58.192H7.444a2.025,2.025,0,0,1,0-4.05H63.993a2.062,2.062,0,0,1,2.026,2.024,2.327,2.327,0,0,1-2.182,2.026" transform="translate(2.954 29.513)" fill="#599cb3"/><path d="M61.121,54.361H33.861a2.025,2.025,0,1,1,0-4.05h27.26a2.025,2.025,0,1,1,0,4.05" transform="translate(17.353 27.425)" fill="#599cb3"/><path d="M7.508,54.533a5.918,5.918,0,0,1-5.921-5.919,5.788,5.788,0,0,1,5.921-5.765,5.843,5.843,0,1,1,0,11.684m0-7.789A2.025,2.025,0,1,0,9.533,48.77a2.061,2.061,0,0,0-2.026-2.026" transform="translate(0.865 23.358)" fill="#599cb3"/><path d="M51.292,51.518a6.855,6.855,0,1,1,6.854-6.854,6.915,6.915,0,0,1-6.854,6.854m0-9.814a2.96,2.96,0,1,0,2.959,2.96,2.864,2.864,0,0,0-2.959-2.96" transform="translate(24.223 20.61)" fill="#599cb3"/><path d="M35.685,29.135a2.159,2.159,0,0,1-1.557-.779c-.468-.467-.779-.933-1.245-1.4a14.171,14.171,0,0,0-9.971-4.206,13.541,13.541,0,0,0-9.971,4.206c-.467.468-.779.935-1.245,1.4a2.123,2.123,0,0,1-2.8.312,2.125,2.125,0,0,1-.312-2.8,8.152,8.152,0,0,1,1.557-1.714,18.052,18.052,0,0,1,25.548,0,16.677,16.677,0,0,1,1.557,1.714,2.162,2.162,0,0,1-.311,2.8,1.774,1.774,0,0,1-1.247.467" transform="translate(4.467 10.278)" fill="#599cb3"/><path d="M24.181,42.237a17.907,17.907,0,0,1-12.773-5.3A15.49,15.49,0,0,1,9.85,35.225a18.034,18.034,0,1,1,28.663,0,8.164,8.164,0,0,1-1.559,1.715,18.451,18.451,0,0,1-12.773,5.3m0-32.092a13.536,13.536,0,0,0-9.971,4.207,14.218,14.218,0,0,0-1.245,18.538,10.227,10.227,0,0,0,1.245,1.4A14.166,14.166,0,0,0,24.181,38.5a13.547,13.547,0,0,0,9.971-4.206c.467-.468.779-.936,1.245-1.4a14.041,14.041,0,0,0-1.245-18.538,13.536,13.536,0,0,0-9.971-4.207" transform="translate(3.353 3.407)" fill="#599cb3"/></g></g></svg>