<svg xmlns="http://www.w3.org/2000/svg" xmlns:xlink="http://www.w3.org/1999/xlink" width="75.163" height="77.728" viewBox="0 0 75.163 77.728"><defs><clipPath id="a"><rect width="75.163" height="77.727" fill="#63bb7c"/></clipPath></defs><g transform="translate(0 0)" clip-path="url(#a)"><path d="M63.787,61.347A5.548,5.548,0,1,0,54.8,56.988a5.2,5.2,0,0,0,2.113,4.359,8.8,8.8,0,0,0-4.491,3.7,11.316,11.316,0,0,0-10.039-8.321,9.258,9.258,0,0,0,0-15.324h7.265a4.962,4.962,0,0,0,4.887-4.887V34.8h4.228a4.962,4.962,0,0,0,4.887-4.887V12.736a4.963,4.963,0,0,0-4.887-4.887H53.747v-7a.893.893,0,0,0-.528-.793,1.164,1.164,0,0,0-.925.131l-7.133,7.53H18.873A4.963,4.963,0,0,0,13.986,12.6v6.472H9.758a4.963,4.963,0,0,0-4.887,4.888V36.514A4.962,4.962,0,0,0,9.758,41.4h4.359v5.812a.819.819,0,0,0,1.322.662l10.3-6.474h6.077a9.322,9.322,0,0,0,0,15.324,11.609,11.609,0,0,0-10.04,8.321,8.808,8.808,0,0,0-4.491-3.7,5.548,5.548,0,1,0-8.983-4.359,5.2,5.2,0,0,0,2.115,4.359,8.593,8.593,0,0,0-5.681,8.059v4.227a.851.851,0,0,0,.793.793H21.384v2.51a.851.851,0,0,0,.793.791H51.9a.851.851,0,0,0,.791-.791v-2.51H68.541a.851.851,0,0,0,.793-.793V69.406a8.071,8.071,0,0,0-5.547-8.059m-3.435-8.453a3.963,3.963,0,1,1-3.962,3.962,3.974,3.974,0,0,1,3.962-3.962M15.7,12.736a3.271,3.271,0,0,1,3.3-3.3H45.689c.265,0,.4-.132.66-.263l5.944-6.341V8.51a.851.851,0,0,0,.793.791H58.9a3.271,3.271,0,0,1,3.3,3.3V29.777a3.271,3.271,0,0,1-3.3,3.3H54.672V23.965a4.963,4.963,0,0,0-4.888-4.888H15.7ZM25.61,39.684a.485.485,0,0,0-.4.131l-9.247,5.813V40.476a.851.851,0,0,0-.793-.791H10.023a3.271,3.271,0,0,1-3.3-3.3V23.832a3.27,3.27,0,0,1,3.3-3.3H49.916a3.269,3.269,0,0,1,3.3,3.3V36.381a3.271,3.271,0,0,1-3.3,3.3Zm3.963,9.246a7.661,7.661,0,1,1,7.661,7.662,7.666,7.666,0,0,1-7.661-7.662M14.117,52.894a3.963,3.963,0,1,1-3.962,3.962,3.973,3.973,0,0,1,3.962-3.962m4.36,19.814V69.934a.793.793,0,0,0-1.585,0v2.774H11.344V69.934a.851.851,0,0,0-.793-.793.852.852,0,0,0-.793.793v2.774H6.589V69.274A6.822,6.822,0,0,1,13.458,62.4h1.321a6.821,6.821,0,0,1,6.868,6.869v3.434Zm32.628,3.3H44.368V72.18a.851.851,0,0,0-.793-.793c-.4,0-.925.4-.925.793v3.831H31.687V72.18a.793.793,0,0,0-1.585,0v3.831H23.365V67.953a9.7,9.7,0,0,1,9.643-9.643h8.455a9.7,9.7,0,0,1,9.643,9.643v8.058Zm16.776-3.3H64.71V69.934a.792.792,0,1,0-1.584,0v2.774H57.578V69.934a.851.851,0,0,0-.793-.793c-.4,0-.925.4-.925.793v2.774H52.689V69.274A6.823,6.823,0,0,1,59.56,62.4h1.319a6.822,6.822,0,0,1,6.869,6.869Z" transform="translate(1.47 0)" fill="#63bb7c"/><path d="M45.484,19H10.876a.793.793,0,0,0,0,1.585h34.74a.853.853,0,0,0,.793-.794A.882.882,0,0,0,45.484,19" transform="translate(3.128 5.893)" fill="#63bb7c"/><path d="M45.484,22.122H10.876a.793.793,0,1,0,0,1.585h34.74a.852.852,0,0,0,.793-.793.883.883,0,0,0-.924-.793" transform="translate(3.128 6.862)" fill="#63bb7c"/><path d="M45.484,25.248H10.876a.792.792,0,1,0,0,1.584h34.74a.851.851,0,0,0,.793-.791.882.882,0,0,0-.924-.793" transform="translate(3.128 7.832)" fill="#63bb7c"/><path d="M8.19,7.362a4.1,4.1,0,0,0-8.19,0,4.116,4.116,0,0,0,4.094,4.1,4.116,4.116,0,0,0,4.1-4.1m-6.6,0A2.508,2.508,0,0,1,4.094,4.853,2.429,2.429,0,0,1,6.6,7.362a2.429,2.429,0,0,1-2.51,2.51,2.508,2.508,0,0,1-2.509-2.51" transform="translate(0 1.014)" fill="#63bb7c"/><path d="M54.308,29.683A5.813,5.813,0,1,0,60.12,35.5a5.864,5.864,0,0,0-5.812-5.813m0,9.908A4.1,4.1,0,1,1,58.4,35.5a4.114,4.114,0,0,1-4.1,4.094" transform="translate(15.043 9.208)" fill="#63bb7c"/><path d="M18.832,2.664a1.189,1.189,0,1,1-1.188,1.188,1.189,1.189,0,0,1,1.188-1.188" transform="translate(5.473 0.826)" fill="#63bb7c"/><path d="M3.71,12.746a1.188,1.188,0,1,1-1.19,1.188,1.188,1.188,0,0,1,1.19-1.188" transform="translate(0.782 3.954)" fill="#63bb7c"/><path d="M3.71,35.43a1.189,1.189,0,1,1-1.19,1.188A1.188,1.188,0,0,1,3.71,35.43" transform="translate(0.782 10.99)" fill="#63bb7c"/><path d="M52.911,25.348a1.188,1.188,0,1,1-1.19,1.188,1.188,1.188,0,0,1,1.19-1.188" transform="translate(16.043 7.863)" fill="#63bb7c"/><path d="M42.123,35.43a1.189,1.189,0,1,1-1.19,1.188,1.188,1.188,0,0,1,1.19-1.188" transform="translate(12.697 10.99)" fill="#63bb7c"/><path d="M50.994,2.664a1.189,1.189,0,1,1-1.188,1.188,1.189,1.189,0,0,1,1.188-1.188" transform="translate(15.449 0.826)" fill="#63bb7c"/></g></svg>