<svg xmlns="http://www.w3.org/2000/svg" xmlns:xlink="http://www.w3.org/1999/xlink" width="94.208" height="97.969" viewBox="0 0 94.208 97.969"><defs><clipPath id="a"><rect width="94.208" height="97.969" fill="#599cb3"/></clipPath></defs><g transform="translate(0 0)"><g transform="translate(0 0)" clip-path="url(#a)"><path d="M53.774,39.019a2.052,2.052,0,1,1-2.052,2.052,2.051,2.051,0,0,1,2.052-2.052" transform="translate(35.989 27.149)" fill="#599cb3"/><path d="M52.564,3.731a2.052,2.052,0,1,1-2.052,2.052,2.051,2.051,0,0,1,2.052-2.052" transform="translate(35.147 2.595)" fill="#599cb3"/><path d="M38.65,47.891A2.052,2.052,0,1,1,36.6,49.943a2.051,2.051,0,0,1,2.052-2.052" transform="translate(25.466 33.323)" fill="#599cb3"/><path d="M24.837,52.932a2.052,2.052,0,1,1-2.052,2.052,2.053,2.053,0,0,1,2.052-2.052" transform="translate(15.854 36.83)" fill="#599cb3"/><path d="M22.317,0a2.052,2.052,0,1,1-2.052,2.052A2.053,2.053,0,0,1,22.317,0" transform="translate(14.101 -0.001)" fill="#599cb3"/><path d="M7.194,12.6a2.052,2.052,0,1,1-2.052,2.052A2.051,2.051,0,0,1,7.194,12.6" transform="translate(3.578 8.769)" fill="#599cb3"/><path d="M4.673,36.5A2.052,2.052,0,1,1,2.621,38.55,2.053,2.053,0,0,1,4.673,36.5" transform="translate(1.824 25.395)" fill="#599cb3"/><path d="M10.7,72.275A10.5,10.5,0,0,1,.1,61.675,11.068,11.068,0,0,1,3.177,54.15L19.764,37.569a2.175,2.175,0,0,1,3.076,3.076L6.086,57.06A6.6,6.6,0,0,0,4.2,61.675a6.919,6.919,0,0,0,1.881,4.616A6.309,6.309,0,0,0,10.7,68.171a6.609,6.609,0,0,0,4.618-1.881L31.9,49.706a2.176,2.176,0,1,1,3.076,3.078L18.4,69.369A11.978,11.978,0,0,1,10.7,72.275" transform="translate(0.07 25.693)" fill="#599cb3"/><path d="M28.688,59.418a2.09,2.09,0,0,1-1.538-.683L10.563,42.321a2.558,2.558,0,0,1-.683-1.538,2.1,2.1,0,0,1,.683-1.542l7.524-7.521A2.176,2.176,0,1,1,21.166,34.8l-5.985,5.986L28.86,54.459l5.985-5.983a2.175,2.175,0,1,1,3.076,3.076L30.4,59.077a5.108,5.108,0,0,1-1.711.341" transform="translate(6.875 21.625)" fill="#599cb3"/><path d="M8.106,49.1a4.274,4.274,0,1,1-4.275,4.273A4.274,4.274,0,0,1,8.106,49.1" transform="translate(2.666 34.165)" fill="#599cb3"/><path d="M49.02,75.085a36.167,36.167,0,0,1-15.386-3.419A35.344,35.344,0,0,1,16.022,54.055,35.968,35.968,0,0,1,12.6,38.838,36.418,36.418,0,1,1,49.02,75.085m0-68.391A32.216,32.216,0,0,0,16.877,38.838a33.633,33.633,0,0,0,2.907,13.507A32.025,32.025,0,0,0,35.341,67.9,31.391,31.391,0,0,0,49.02,70.981a32.144,32.144,0,0,0,0-64.287" transform="translate(8.769 1.682)" fill="#599cb3"/><path d="M21.984,27.992a1.541,1.541,0,0,1-.855-.171,2.142,2.142,0,0,1-1.2-2.735,26.269,26.269,0,0,1,9.232-11.8,25.009,25.009,0,0,1,14.7-4.618,2.223,2.223,0,0,1,0,4.446A20.886,20.886,0,0,0,24.036,26.8a2.371,2.371,0,0,1-2.052,1.2" transform="translate(13.748 6.033)" fill="#599cb3"/><path d="M30.936,44.028H22.387A2.265,2.265,0,0,1,20.164,41.8v-17.1a2.265,2.265,0,0,1,2.223-2.223h8.549a2.223,2.223,0,0,1,0,4.446h-6.5V39.753h6.5a2.264,2.264,0,0,1,2.223,2.223,2.232,2.232,0,0,1-2.223,2.052" transform="translate(14.031 15.644)" fill="#599cb3"/><path d="M35.977,46.2H27.428A2.265,2.265,0,0,1,25.2,43.979v-22.4a2.263,2.263,0,0,1,2.223-2.222h8.549a2.222,2.222,0,1,1,0,4.443h-6.5V41.927h6.5A2.265,2.265,0,0,1,38.2,44.15,2.233,2.233,0,0,1,35.977,46.2" transform="translate(17.538 13.47)" fill="#599cb3"/><path d="M41.018,47.746H32.469a2.265,2.265,0,0,1-2.223-2.223V19.363a2.266,2.266,0,0,1,2.223-2.223h8.549a2.223,2.223,0,1,1,0,4.446h-6.5V43.471h6.5a2.265,2.265,0,0,1,2.225,2.223,2.233,2.233,0,0,1-2.225,2.052" transform="translate(21.046 11.926)" fill="#599cb3"/><path d="M46.061,49.219H37.51A2.265,2.265,0,0,1,35.287,47V17.244a2.263,2.263,0,0,1,2.223-2.22h8.55a2.263,2.263,0,0,1,2.223,2.22A2.233,2.233,0,0,1,46.061,19.3h-6.5V44.943h6.5a2.265,2.265,0,0,1,2.223,2.223,2.233,2.233,0,0,1-2.223,2.052" transform="translate(24.553 10.453)" fill="#599cb3"/><path d="M51.1,51.041H42.553a2.264,2.264,0,0,1-2.225-2.222v-34.2A2.264,2.264,0,0,1,42.553,12.4H51.1a2.263,2.263,0,0,1,2.222,2.222v34.2A2.537,2.537,0,0,1,51.1,51.041M48.877,16.847H44.6V46.766h4.275" transform="translate(28.061 8.629)" fill="#599cb3"/><path d="M6.5,38a6.5,6.5,0,1,1,6.5-6.5A6.723,6.723,0,0,1,6.5,38m0-8.549a2.222,2.222,0,1,0,0,4.445A2.262,2.262,0,0,0,8.72,31.674,2.39,2.39,0,0,0,6.5,29.45" transform="translate(0 17.397)" fill="#599cb3"/><path d="M15.381,10.6a5.3,5.3,0,1,1,5.3-5.3,5.327,5.327,0,0,1-5.3,5.3m0-6.5A1.1,1.1,0,0,0,14.355,5.13a1.026,1.026,0,1,0,2.052,0c.171-.512-.343-1.026-1.026-1.026" transform="translate(7.015 -0.001)" fill="#599cb3"/><path d="M50.372,60.316A7.524,7.524,0,1,1,57.9,52.793a7.591,7.591,0,0,1-7.524,7.523m0-10.772a3.248,3.248,0,1,0,3.249,3.249,3.248,3.248,0,0,0-3.249-3.249" transform="translate(29.815 31.498)" fill="#599cb3"/></g></g></svg>