<svg xmlns="http://www.w3.org/2000/svg" xmlns:xlink="http://www.w3.org/1999/xlink" width="60.954" height="63.654" viewBox="0 0 60.954 63.654"><defs><clipPath id="a"><rect width="60.954" height="63.654" fill="#fff"/></clipPath></defs><g transform="translate(0 0)" clip-path="url(#a)"><path d="M3.892,53.45a.992.992,0,1,1-.991.992.992.992,0,0,1,.991-.992" transform="translate(0.297 5.465)" fill="#fff"/><path d="M42.692,52.85a.992.992,0,1,1-.991.992.992.992,0,0,1,.991-.992" transform="translate(4.264 5.404)" fill="#fff"/><path d="M53.892,29.75a.992.992,0,1,1-.991.992.992.992,0,0,1,.991-.992" transform="translate(5.409 3.042)" fill="#fff"/><path d="M50.192,37.85a.992.992,0,1,1-.991.992.992.992,0,0,1,.991-.992" transform="translate(5.03 3.87)" fill="#fff"/><path d="M54.492,2.85a.992.992,0,1,1-.992.992.991.991,0,0,1,.992-.992" transform="translate(5.47 0.291)" fill="#fff"/><path d="M26.392.95a.992.992,0,1,1-.991.992A.992.992,0,0,1,26.392.95" transform="translate(2.597 0.097)" fill="#fff"/><path d="M50.192,10.35a.992.992,0,1,1-.991.992.992.992,0,0,1,.991-.992" transform="translate(5.03 1.058)" fill="#fff"/><path d="M15.792,7.25a.992.992,0,1,1-.992.992.991.991,0,0,1,.992-.992" transform="translate(1.513 0.741)" fill="#fff"/><path d="M2.692,15.35a.992.992,0,1,1-.991.992.992.992,0,0,1,.991-.992" transform="translate(0.174 1.569)" fill="#fff"/><path d="M49.492,36.42H25.9V12.611a.711.711,0,0,0-.66-.661A25.241,25.241,0,1,0,43.208,54.827a.857.857,0,0,0,.441-.441A25.147,25.147,0,0,0,50.372,37.3a.869.869,0,0,0-.881-.882M42.878,53.064a26.4,26.4,0,0,0-5.733-4.189,48.247,48.247,0,0,0,1.543-10.912H48.941a24.026,24.026,0,0,1-6.062,15.1M37.256,37.853a44.414,44.414,0,0,1-1.323,10.361A25.707,25.707,0,0,0,25.9,45.9V37.963ZM7.5,53.064A23.482,23.482,0,0,1,1.433,37.853H11.684a44.346,44.346,0,0,0,1.543,11.022A26.39,26.39,0,0,0,7.5,53.064m0-31.855A23.956,23.956,0,0,0,13.227,25.4,44.346,44.346,0,0,0,11.684,36.42H1.433A23.482,23.482,0,0,1,7.5,21.209m9.038-.661c2.1-4.3,4.96-6.834,7.936-7.165V27.161a24.56,24.56,0,0,1-9.7-2.315,26.782,26.782,0,0,1,1.762-4.3M13.006,37.853H24.47v7.936a24,24,0,0,0-10.03,2.425,44.409,44.409,0,0,1-1.433-10.361M24.47,47.222V61c-2.866-.331-5.621-2.645-7.826-6.724a29.109,29.109,0,0,1-1.873-4.629,22.929,22.929,0,0,1,9.7-2.425m1.433,0a23.609,23.609,0,0,1,9.589,2.315,36.734,36.734,0,0,1-1.874,4.629c-2.094,4.078-4.85,6.393-7.716,6.724Zm-12.9-10.8a39.206,39.206,0,0,1,1.433-10.361,24.415,24.415,0,0,0,10.03,2.425V36.42Zm.551-12.345a25.337,25.337,0,0,1-5.181-3.858A23.507,23.507,0,0,1,19.84,13.934c-2.976,2.425-5.069,6.5-6.283,10.141M8.487,54.056A21.848,21.848,0,0,1,13.669,50.2c1.211,3.748,3.2,7.826,6.282,10.251A24.6,24.6,0,0,1,8.487,54.056M36.7,50.088a21.865,21.865,0,0,1,5.181,3.858,24.6,24.6,0,0,1-11.463,6.393c3.087-2.425,5.07-6.5,6.283-10.251" transform="translate(0 1.222)" fill="#fff"/><path d="M8.289,13.627A4.189,4.189,0,1,0,4.1,9.439a4.187,4.187,0,0,0,4.19,4.189m0-6.944A2.756,2.756,0,1,1,5.533,9.439,2.73,2.73,0,0,1,8.289,6.683" transform="translate(0.419 0.537)" fill="#fff"/><path d="M50.986,46.55a3.086,3.086,0,1,0,0,6.173,3.086,3.086,0,1,0,0-6.173m0,4.85a1.764,1.764,0,1,1,1.764-1.764A1.813,1.813,0,0,1,50.986,51.4" transform="translate(4.897 4.759)" fill="#fff"/><path d="M52.229,20.557a.711.711,0,0,0,.661-.661.842.842,0,0,0-.22-.551l-6.724-6.062a.671.671,0,0,0-.882,0l-.772.661V9.975h4.85a.711.711,0,0,0,.661-.661.842.842,0,0,0-.22-.551L39.994.165a.671.671,0,0,0-.882,0l-9.7,8.6a.682.682,0,0,0-.22.772.744.744,0,0,0,.661.441H34.7v8.377L32.94,16.809a.671.671,0,0,0-.882,0l-6.724,5.952c-.331.22-.441.441-.331.772a.744.744,0,0,0,.661.441h3.2v10.8a.711.711,0,0,0,.661.661h5.732a.711.711,0,0,0,.661-.661V26.509h5.952v4.85a.711.711,0,0,0,.661.661h5.732a.711.711,0,0,0,.661-.661v-10.8Zm-6.724-5.842,4.96,4.409h-9.81ZM39.443,1.6l7.826,6.944H31.617ZM32.389,18.242l4.96,4.409h-9.81Zm2.2,15.872H30.184V23.974h4.409Zm1.433-8.928V23.974h3.086a.711.711,0,0,0,.661-.661.842.842,0,0,0-.22-.551l-3.527-3.2V9.975H42.97v5.291l-4.629,4.078a.682.682,0,0,0-.22.772.6.6,0,0,0,.661.441h3.2v4.629ZM47.71,30.7H43.3V20.557H47.71Z" transform="translate(2.552 0)" fill="#fff"/></g></svg>