<svg xmlns="http://www.w3.org/2000/svg" xmlns:xlink="http://www.w3.org/1999/xlink" width="77.188" height="77.728" viewBox="0 0 77.188 77.728"><defs><clipPath id="a"><rect width="77.188" height="77.727" fill="#63bb7c"/></clipPath></defs><g transform="translate(0 0)" clip-path="url(#a)"><path d="M76.188,6.17l-4.863-.555L70.768.751A.964.964,0,0,0,69.241.2L66.183,3.252a1.069,1.069,0,0,0-.277.695l.555,5.14-.834.973-.416-3.751a.966.966,0,0,0-1.53-.555L60.626,8.81a1.053,1.053,0,0,0-.278.695l.555,5.142-2.778,2.778a33.915,33.915,0,1,0,1.25,1.251l2.778-2.78c3.753.418,5.142.555,5.142.555a.716.716,0,0,0,.555-.278l3.057-3.057a.916.916,0,0,0-.555-1.528L66.6,11.173l.832-.834c3.753.416,5.142.555,5.142.555a.721.721,0,0,0,.555-.277l3.058-3.058c.972-.416.693-1.25,0-1.389M69.241,2.835l.416,3.335L68.129,7.7l-.418-3.335Zm-6.67,10.282-.418-3.335,1.528-1.527.418,3.334c-2.084,2.085-1.389,1.391-1.528,1.528m-5,51.689a32.128,32.128,0,1,1-.555-45.991L52.7,23.121a26.036,26.036,0,1,0,1.112,1.112l4.308-4.307a32.044,32.044,0,0,1-.557,44.879M36.727,41.047a.724.724,0,0,0,.555-.278L42.84,35.21a10.3,10.3,0,0,1-.555,14.034A10.414,10.414,0,0,1,27.557,34.516a10.31,10.31,0,0,1,14.034-.557l-5.558,5.559a.99.99,0,0,0,.695,1.528m6.113-8.2a12.151,12.151,0,1,0,.695,17.785A12.062,12.062,0,0,0,44.09,34.1l3.753-3.753a17.354,17.354,0,1,1-25.15-.695,17.164,17.164,0,0,1,23.9-.555Zm5-4.863A19.072,19.072,0,1,0,48.954,29.1L52.7,25.344a24.268,24.268,0,1,1-1.111-1.111ZM67.156,14.647l-3.335-.418L65.349,12.7l3.335.416Zm5.558-5.42L69.379,8.81c.139-.139-.555.557,1.528-1.528l3.335.418Z" transform="translate(0.372 0)" fill="#63bb7c"/><path d="M5.28,48.738a5.28,5.28,0,1,0,5.28,5.28,5.368,5.368,0,0,0-5.28-5.28m0,8.754a3.474,3.474,0,0,1,0-6.947,3.44,3.44,0,0,1,3.474,3.473A3.529,3.529,0,0,1,5.28,57.492" transform="translate(0 18.429)" fill="#63bb7c"/><path d="M53.279,15.366a3.474,3.474,0,1,0,3.474,3.473,3.44,3.44,0,0,0-3.474-3.473m0,5.28a1.806,1.806,0,1,1,1.807-1.807,1.942,1.942,0,0,1-1.807,1.807" transform="translate(18.834 5.81)" fill="#63bb7c"/><path d="M8.326,9.939a3.883,3.883,0,0,0,3.89-3.89,3.977,3.977,0,0,0-3.89-3.89,3.978,3.978,0,0,0-3.89,3.89,3.883,3.883,0,0,0,3.89,3.89m0-6.113A2.224,2.224,0,1,1,6.1,6.048,2.194,2.194,0,0,1,8.326,3.826" transform="translate(1.677 0.816)" fill="#63bb7c"/><path d="M40.369.948A1.251,1.251,0,1,1,39.118,2.2,1.251,1.251,0,0,1,40.369.948" transform="translate(14.792 0.358)" fill="#63bb7c"/><path d="M54.182,24.844a1.25,1.25,0,1,1-1.251,1.25,1.25,1.25,0,0,1,1.251-1.25" transform="translate(20.015 9.394)" fill="#63bb7c"/><path d="M52.972,45.008a1.25,1.25,0,1,1-1.251,1.25,1.25,1.25,0,0,1,1.251-1.25" transform="translate(19.558 17.019)" fill="#63bb7c"/><path d="M45.41,51.965a1.25,1.25,0,1,1-1.251,1.25,1.25,1.25,0,0,1,1.251-1.25" transform="translate(16.698 19.65)" fill="#63bb7c"/><path d="M13.248,53.175A1.25,1.25,0,1,1,12,54.425a1.25,1.25,0,0,1,1.25-1.25" transform="translate(4.537 20.107)" fill="#63bb7c"/><path d="M15.164,2.158a1.251,1.251,0,1,1-1.251,1.251,1.25,1.25,0,0,1,1.251-1.251" transform="translate(5.261 0.816)" fill="#63bb7c"/><path d="M1.956,12.241a1.25,1.25,0,1,1-1.25,1.25,1.251,1.251,0,0,1,1.25-1.25" transform="translate(0.267 4.628)" fill="#63bb7c"/><path d="M1.25,43.8A1.251,1.251,0,1,1,0,45.048,1.25,1.25,0,0,1,1.25,43.8" transform="translate(0 16.561)" fill="#63bb7c"/></g></svg>