<svg xmlns="http://www.w3.org/2000/svg" xmlns:xlink="http://www.w3.org/1999/xlink" width="56.662" height="56.662" viewBox="0 0 56.662 56.662"><defs><clipPath id="a"><rect width="56.662" height="56.662" transform="translate(0 0)" fill="#63bb7c"/></clipPath></defs><g clip-path="url(#a)"><path d="M56.056,27.726H52.931a24.736,24.736,0,0,0-24-24V.605a.6.6,0,1,0-1.21,0V3.73a24.736,24.736,0,0,0-24,24H.6a.6.6,0,1,0,0,1.209H3.73a24.736,24.736,0,0,0,24,24v3.125a.6.6,0,1,0,1.21,0V52.932a24.736,24.736,0,0,0,24-24h3.125a.6.6,0,1,0,0-1.209m-4.435,0H46.579A18.281,18.281,0,0,0,28.935,10.082V5.041A23.26,23.26,0,0,1,51.621,27.726m-9.377,1.209h3.125A16.946,16.946,0,0,1,29.036,45.269V42.144a.605.605,0,1,0-1.21,0v3.125A16.947,16.947,0,0,1,11.493,28.935h3.126a.6.6,0,0,0,0-1.209H11.493A16.947,16.947,0,0,1,27.826,11.392v3.126a.6.6,0,1,0,1.21,0V11.392A16.947,16.947,0,0,1,45.369,27.726H42.244a.65.65,0,0,0-.6.6c-.1.3.2.6.6.6M27.725,5.041v5.041A18.282,18.282,0,0,0,10.081,27.726H5.04A23.26,23.26,0,0,1,27.725,5.041M5.04,28.935h5.041A18.282,18.282,0,0,0,27.725,46.58v5.041A23.261,23.261,0,0,1,5.04,28.935M28.935,51.621V46.58A18.281,18.281,0,0,0,46.579,28.935h5.042A23.261,23.261,0,0,1,28.935,51.621" fill="#63bb7c"/><path d="M36.2,33.171l-2.824-1.21a5.724,5.724,0,0,1-1.31-.807,2.49,2.49,0,0,1-.807-.907l-.1-.1a.1.1,0,0,1-.1-.1h-.1v-.2a4.8,4.8,0,0,0,2.52-4.235V24.2h.2l.3-.3v-.1c1.31-6.049-2.42-7.259-2.521-7.359-.4-.1-.806.1-.806.5a7.821,7.821,0,0,0-2.824-.3,6.363,6.363,0,0,0-5.847,3.932.521.521,0,0,0,.3.706h.1c.4.1.908.3,1.513.5v3.73a4.643,4.643,0,0,0,2.52,4.134v.3h-.1c-.1,0,0,0-.1.1A5.475,5.475,0,0,1,24,31.759l-2.923,1.21c-1.815.807-2.824,3.731-2.824,5.445v1.109a.651.651,0,0,0,.606.6H38.615a.65.65,0,0,0,.6-.6V38.414c-.1-1.513-1.109-4.436-3.024-5.243M30.65,31.558l.3.3-.807,1.815-.6-.907Zm.4-13.208h.2a.871.871,0,0,0,.605-.3,4.5,4.5,0,0,1,1.21,3.328h-.5v-.1a.605.605,0,0,0-.807-.706l-.907.3a.64.64,0,0,0-1.009-.505s-1.411,1.009-4.435.505a4.073,4.073,0,0,1,1.612-.707.613.613,0,1,0-.2-1.209A4.349,4.349,0,0,0,24,20.568c-.1,0-.3-.1-.4-.1,2.219-4.133,7.159-2.218,7.461-2.117M25.1,25.609V22.181a9.386,9.386,0,0,0,4.335-.2.662.662,0,0,0,.806.5l.707-.3a.6.6,0,0,0,.806.706l.3-.1v2.722a3.572,3.572,0,0,1-3.529,3.529A3.4,3.4,0,0,1,25.1,25.609m4.436,4.638v.6l-.908.907-1.008-1.008v-.5a6.1,6.1,0,0,0,1.916,0m-2.923,1.311,1.208,1.21-.7.907-.806-1.815q.15-.151.3-.3m11.19,7.46H35.893V36.9a.605.605,0,0,0-1.21,0v2.117h-12V36.9a.6.6,0,1,0-1.21,0v2.117H19.458v-.4c0-1.512.909-3.731,2.118-4.234a28.166,28.166,0,0,0,3.832-1.714l1.108,2.419a.661.661,0,0,0,1.109.1l1.11-1.512,1.108,1.512a.662.662,0,0,0,1.11-.1l1.109-2.52c.7.5,1.108.5,3.831,1.714,1.21.5,2.117,2.722,2.117,4.234Z" fill="#63bb7c"/><path d="M29.843,26.315a.751.751,0,0,0-.907,0,.613.613,0,0,1-.807,0,.641.641,0,0,0-.907.907,1.765,1.765,0,0,0,2.521,0c.4-.3.4-.7.1-.907" fill="#63bb7c"/><path d="M6.251,46.58a3.831,3.831,0,1,0,3.831,3.831A3.829,3.829,0,0,0,6.251,46.58m0,6.352a2.521,2.521,0,1,1,2.521-2.521,2.5,2.5,0,0,1-2.521,2.521" fill="#63bb7c"/><path d="M51.621,11.292A2.52,2.52,0,1,0,49.1,8.772a2.5,2.5,0,0,0,2.521,2.52m0-3.73a1.311,1.311,0,1,1-1.312,1.311,1.335,1.335,0,0,1,1.312-1.311" fill="#63bb7c"/><path d="M7.259,1.311a.908.908,0,1,1-.907.907.907.907,0,0,1,.907-.907" fill="#63bb7c"/><path d="M2.218,13.208a.907.907,0,1,1-.907.907.907.907,0,0,1,.907-.907" fill="#63bb7c"/><path d="M40.631,1.311a.908.908,0,1,1-.907.907.907.907,0,0,1,.907-.907" fill="#63bb7c"/><path d="M53.839,15.728a.907.907,0,1,1-.907.908.907.907,0,0,1,.907-.908" fill="#63bb7c"/><path d="M54.443,39.119a.907.907,0,1,1-.907.907.907.907,0,0,1,.907-.907" fill="#63bb7c"/><path d="M45.672,52.326a.908.908,0,1,1-.907.907.907.907,0,0,1,.907-.907" fill="#63bb7c"/><path d="M17.946,54.242a.907.907,0,1,1-.907.907.907.907,0,0,1,.907-.907" fill="#63bb7c"/><path d="M3.428,39.119a.907.907,0,1,1-.907.907.907.907,0,0,1,.907-.907" fill="#63bb7c"/></g></svg>