<svg xmlns="http://www.w3.org/2000/svg" xmlns:xlink="http://www.w3.org/1999/xlink" width="84" height="80.161" viewBox="0 0 84 80.161"><defs><clipPath id="a"><rect width="84" height="80.161" fill="#63bb7c"/></clipPath></defs><g transform="translate(0 0)"><g transform="translate(0 0)" clip-path="url(#a)"><path d="M17.582,17.721l9.3,6.791L23.34,35.437a.914.914,0,0,0,.3,1.034.716.716,0,0,0,1.034,0l9.3-6.791,9.3,6.791c.148.148.3.148.59.148a.946.946,0,0,0,.886-1.182L41.2,24.512l9.3-6.791a.912.912,0,0,0,.294-1.032.809.809,0,0,0-.886-.59H38.4L34.854,5.028a.808.808,0,0,0-.886-.592.993.993,0,0,0-.884.592L29.541,15.949H18.026a1,1,0,0,0-.886.592,1.669,1.669,0,0,0,.442,1.18m12.7.149a1,1,0,0,0,.886-.59l2.953-8.859L37.07,17.28a.811.811,0,0,0,.886.59h9.3l-7.528,5.462a.912.912,0,0,0-.3,1.034l2.953,8.857-7.531-5.462a.713.713,0,0,0-1.034,0l-7.528,5.462,2.952-8.857a.914.914,0,0,0-.294-1.034L21.421,17.87Z" transform="translate(7.957 2.059)" fill="#63bb7c"/><path d="M78.011,55.891H70.926V47.624a.953.953,0,0,0-.886-.887H60.591V38.471a.953.953,0,0,0-.886-.887H51.438V29.318a.951.951,0,0,0-.886-.886H31.067a.951.951,0,0,0-.886.886v8.266H21.914a.953.953,0,0,0-.886.887v8.266H11.579a.953.953,0,0,0-.884.887v8.267H3.608a.953.953,0,0,0-.886.886v9.3a.954.954,0,0,0,.886.886h74.7a.953.953,0,0,0,.886-.886v-9.3a1.287,1.287,0,0,0-1.182-.886M31.952,30.056H49.52v7.381H31.952Zm-9.153,9.3H58.82v7.381H22.8ZM12.317,48.508H69.006v7.381H12.317ZM77.125,65.19H4.346V57.809h72.78Z" transform="translate(1.264 13.199)" fill="#63bb7c"/><path d="M43.13,37.551a.951.951,0,0,0,.886-.886V32.974H54.2v3.691a.886.886,0,0,0,1.772,0V5.221a.886.886,0,0,0-1.772,0V8.912H44.016V5.221a.886.886,0,0,0-1.772,0V36.665a.851.851,0,0,0,.886.886M54.2,25.593H44.016V21.9H54.2Zm0-5.609H44.016V16.292H54.2ZM44.016,27.364H54.2v3.69H44.016ZM54.2,14.522H44.016V10.83H54.2Z" transform="translate(19.611 2.012)" fill="#63bb7c"/><path d="M6.532,37.551a.953.953,0,0,0,.886-.886V32.974H17.6v3.691a.886.886,0,0,0,1.772,0V5.221a.886.886,0,1,0-1.772,0V8.912H7.418V5.221a.954.954,0,0,0-.886-.886.953.953,0,0,0-.886.886V36.665a.951.951,0,0,0,.886.886M17.6,25.593H7.419V21.9H17.6Zm0-5.609H7.419V16.292H17.6ZM7.566,27.364H17.751v3.69H7.566ZM17.6,14.522H7.419V10.83H17.6Z" transform="translate(2.621 2.012)" fill="#63bb7c"/><path d="M5.181,42.525A4.576,4.576,0,1,0,.605,37.948a4.6,4.6,0,0,0,4.576,4.577m0-7.381a2.8,2.8,0,0,1,0,5.609,2.716,2.716,0,0,1-2.805-2.805,2.9,2.9,0,0,1,2.805-2.8" transform="translate(0.281 15.492)" fill="#63bb7c"/><path d="M55.314,28.331a5.609,5.609,0,1,0,5.609,5.609,5.515,5.515,0,0,0-5.609-5.609m0,9.153A3.691,3.691,0,1,1,59,33.794a3.655,3.655,0,0,1-3.69,3.69" transform="translate(23.075 13.152)" fill="#63bb7c"/><path d="M1.328,2.521A1.328,1.328,0,1,1,0,3.849,1.328,1.328,0,0,1,1.328,2.521" transform="translate(0 1.17)" fill="#63bb7c"/><path d="M3.244,18.249a1.328,1.328,0,1,1-1.328,1.328,1.329,1.329,0,0,1,1.328-1.328" transform="translate(0.889 8.472)" fill="#63bb7c"/><path d="M10.2,28.936a1.33,1.33,0,1,1-1.33,1.33,1.328,1.328,0,0,1,1.33-1.33" transform="translate(4.119 13.433)" fill="#63bb7c"/><path d="M2.639,42.85a1.328,1.328,0,1,1-1.328,1.328A1.329,1.329,0,0,1,2.639,42.85" transform="translate(0.609 19.892)" fill="#63bb7c"/><path d="M48.009,35.287a1.329,1.329,0,1,1-1.328,1.33,1.329,1.329,0,0,1,1.328-1.33" transform="translate(21.671 16.381)" fill="#63bb7c"/><path d="M38.531,21.374A1.329,1.329,0,1,1,37.2,22.7a1.328,1.328,0,0,1,1.328-1.328" transform="translate(17.271 9.922)" fill="#63bb7c"/><path d="M48.009,0a1.328,1.328,0,1,1-1.328,1.328A1.328,1.328,0,0,1,48.009,0" transform="translate(21.671 0)" fill="#63bb7c"/><path d="M34.7,4.335a1.33,1.33,0,1,1-1.328,1.33A1.328,1.328,0,0,1,34.7,4.335" transform="translate(15.492 2.012)" fill="#63bb7c"/><path d="M20.283,6.251a1.328,1.328,0,1,1-1.328,1.328,1.328,1.328,0,0,1,1.328-1.328" transform="translate(8.799 2.902)" fill="#63bb7c"/></g></g></svg>