<svg xmlns="http://www.w3.org/2000/svg" width="80.503" height="88" viewBox="0 0 80.503 88"><defs><clipPath id="a"><path fill="#63bb7c" d="M0 0h80.503v88H0z"/></clipPath></defs><g fill="#63bb7c" clip-path="url(#a)"><path d="M74.356 11.094H9.744a6.08 6.08 0 0 0-6.147 6.147v64.612A6.08 6.08 0 0 0 9.744 88h64.612a6.08 6.08 0 0 0 6.147-6.147V17.241a6.174 6.174 0 0 0-6.147-6.147m4.2 6.147v8.844H48.572V12.893h25.784a4.32 4.32 0 0 1 4.2 4.348m-73.01 3.148h41.227v5.7H5.546Zm4.2-7.347h37.027v5.7H5.546V17.39a4.226 4.226 0 0 1 4.2-4.348m64.61 73.009H9.744a4.19 4.19 0 0 1-4.2-4.2V28.033h73.16v53.82a4.32 4.32 0 0 1-4.348 4.2"/><path d="M60.865 17.544a1.949 1.949 0 1 1-1.949 1.949 1.95 1.95 0 0 1 1.949-1.949m5.544 0a1.949 1.949 0 1 1-1.949 1.949 1.95 1.95 0 0 1 1.949-1.949m5.699 0a1.949 1.949 0 1 1-1.949 1.949 1.95 1.95 0 0 1 1.949-1.949m0 16.037H12.144a.97.97 0 0 0-.9.9v44.973a.966.966 0 0 0 .9.9h59.964a.966.966 0 0 0 .9-.9V34.481a.97.97 0 0 0-.9-.9M71.06 78.556H13.042V35.529h58.166v43.027Z"/><path d="M52.47 62.065a2.652 2.652 0 0 0 2.549-3.448 2.69 2.69 0 0 0-2.549-1.8 2.65 2.65 0 0 0-2.549 3.447 2.61 2.61 0 0 0 2.549 1.8m0-3.448a.77.77 0 0 1 .749.6.8.8 0 0 1-.749 1.05.76.76 0 0 1-.749-.6.85.85 0 0 1 .749-1.05m6.295 10.796a2.69 2.69 0 0 0 2.549 1.8 2.653 2.653 0 0 0 2.549-3.45 2.69 2.69 0 0 0-2.549-1.8 2.652 2.652 0 0 0-2.549 3.45m3.3-.451a.772.772 0 1 1-.3-1.05c.15 0 .451.6.3 1.05m-9.294 2.997a2.637 2.637 0 0 0 3.6-1.05l5.7-11.243a2.523 2.523 0 0 0-1.2-3.45h-.15a2.564 2.564 0 0 0-3.448 1.2L51.721 68.36a2.68 2.68 0 0 0 1.05 3.6m.6-2.7 5.7-11.246c.15-.3.3-.448.6-.448s.3.149.451.149a.86.86 0 0 1 .3 1.05l-5.7 11.244a.86.86 0 0 1-1.048.3 1.1 1.1 0 0 1-.451-.449c0-.3 0-.451.15-.6"/><path d="M44.524 68.061a12.658 12.658 0 0 0 23.986-8.095 12.55 12.55 0 0 0-11.992-8.7 12.89 12.89 0 0 0-11.993 16.79M56.518 53.22a10.743 10.743 0 0 1 9.6 15.59 10.758 10.758 0 1 1-9.6-15.59M19.636 41.076h21.59a.9.9 0 0 0 0-1.8h-21.59a.97.97 0 0 0-.9.9.865.865 0 0 0 .9.9m11.246 2.85a.97.97 0 0 0 .9.9h15.89a.9.9 0 1 0 0-1.8h-15.89a.864.864 0 0 0-.9.9m9.295 2.847H25.186a.9.9 0 1 0 0 1.8h14.991a.966.966 0 0 0 .9-.9.865.865 0 0 0-.9-.9m-7.496 4.648a.966.966 0 0 0 .9.9h10.343a.9.9 0 1 0 0-1.8H33.581a.966.966 0 0 0-.9.9m10.343-4.648a.9.9 0 1 1-.9.9.9.9 0 0 1 .9-.9m-26.233-7.496a.9.9 0 1 1-.9.9.9.9 0 0 1 .9-.9m-2.85-29.982a2.848 2.848 0 1 0-2.849-2.849 2.95 2.95 0 0 0 2.849 2.849m0-3.749a.97.97 0 0 1 .9.9.97.97 0 0 1-.9.9.97.97 0 0 1-.9-.9.97.97 0 0 1 .9-.9m59.966 3.75a4.647 4.647 0 1 0-4.648-4.648 4.67 4.67 0 0 0 4.648 4.648m0-7.5a2.848 2.848 0 1 1-2.849 2.847 2.846 2.846 0 0 1 2.849-2.842M1.349 10.193A1.35 1.35 0 1 1 0 11.543a1.35 1.35 0 0 1 1.349-1.35m26.235-7.495a1.349 1.349 0 1 1-1.349 1.349 1.35 1.35 0 0 1 1.349-1.349m19.638 3.748a1.35 1.35 0 1 1-1.349 1.35 1.35 1.35 0 0 1 1.349-1.35m16.94-3.748a1.349 1.349 0 1 1-1.349 1.349 1.35 1.35 0 0 1 1.349-1.349M34.63 60.866h-2.849v-1.949a.9.9 0 1 0-1.8 0v1.949h-8.4v-1.949a.9.9 0 1 0-1.8 0v1.949h-2.838a.843.843 0 0 0-.9 1.05l1.649 11.243a3.07 3.07 0 0 0 3 2.7h10.34a3.07 3.07 0 0 0 3-2.7l1.649-11.243a1.12 1.12 0 0 0-.15-.749 1.48 1.48 0 0 0-.9-.3m-2.55 11.991a1.27 1.27 0 0 1-1.2 1.05H20.543a1.16 1.16 0 0 1-1.2-1.05l-1.5-10.194h15.59Z"/><path d="M21.437 64.613a.97.97 0 0 0-.9.9v5.7a.9.9 0 0 0 1.8 0v-5.7a.8.8 0 0 0-.9-.9m2.849 0a.97.97 0 0 0-.9.9v5.7a.9.9 0 0 0 1.8 0v-5.7a.865.865 0 0 0-.9-.9m2.849 0a.97.97 0 0 0-.9.9v5.7a.9.9 0 0 0 1.8 0v-5.7a.866.866 0 0 0-.9-.9m2.697 0a.97.97 0 0 0-.9.9v5.7a.9.9 0 1 0 1.8 0v-5.7c.149-.6-.3-.9-.9-.9"/></g></svg>