<svg xmlns="http://www.w3.org/2000/svg" xmlns:xlink="http://www.w3.org/1999/xlink" width="59.186" height="58.679" viewBox="0 0 59.186 58.679"><defs><clipPath id="a"><rect width="59.186" height="58.679" transform="translate(0 0)" fill="#63bb7c"/></clipPath></defs><g transform="translate(0 0)"><g clip-path="url(#a)"><path d="M28.331,54.848h2.52a.605.605,0,1,0,0-1.21h-2.52a.6.6,0,0,0,0,1.21" fill="#63bb7c"/><path d="M8.167,50.915a3.125,3.125,0,1,0,3.126,3.126,3.018,3.018,0,0,0-3.126-3.126m0,5.041a1.916,1.916,0,1,1,0-3.831,1.916,1.916,0,0,1,0,3.831" fill="#63bb7c"/><path d="M51.722,50.31a3.831,3.831,0,1,0,3.831,3.831,3.9,3.9,0,0,0-3.831-3.831m0,6.251a2.521,2.521,0,1,1,2.521-2.52,2.56,2.56,0,0,1-2.521,2.52" fill="#63bb7c"/><path d="M54.545,43.353a.907.907,0,1,1-.907.908.907.907,0,0,1,.907-.908" fill="#63bb7c"/><path d="M45.067,51.621a.908.908,0,1,1-.907.907.907.907,0,0,1,.907-.907" fill="#63bb7c"/><path d="M51.42,43.353a.907.907,0,1,1-.908.908.907.907,0,0,1,.908-.908" fill="#63bb7c"/><path d="M14.821,49.706a.907.907,0,1,1-.907.907.907.907,0,0,1,.907-.907" fill="#63bb7c"/><path d="M2.219,52.226a.907.907,0,1,1-.908.907.907.907,0,0,1,.908-.907" fill="#63bb7c"/><path d="M58.275,55.956a.907.907,0,1,1-.907.907.907.907,0,0,1,.907-.907" fill="#63bb7c"/><path d="M48.193,43.353a.907.907,0,1,1-.907.908.907.907,0,0,1,.907-.908" fill="#63bb7c"/><path d="M54.747,7.461H42.85V1.815a.651.651,0,0,0-.6-.605H17.039a.651.651,0,0,0-.6.605V7.461H4.537A4.519,4.519,0,0,0,0,12V44.06A4.519,4.519,0,0,0,4.537,48.6H25.206a4.171,4.171,0,0,1-4.134,3.831h-.2a3.125,3.125,0,0,0,0,6.251H38.413a3.125,3.125,0,1,0,0-6.251h-.3A4.245,4.245,0,0,1,33.977,48.6H54.645a4.519,4.519,0,0,0,4.538-4.537V12a4.435,4.435,0,0,0-4.436-4.537m-.505,18.854H48.6a.605.605,0,1,0,0,1.21h5.645v1.311H48.6a.605.605,0,1,0,0,1.21h5.645v1.31H48.6a.605.605,0,1,0,0,1.21h5.645v1.311H48.6a.605.605,0,1,0,0,1.21h5.645V36.4H5.041v-1.31h5.646a.605.605,0,1,0,0-1.21H5.041V32.566h5.646a.605.605,0,1,0,0-1.21H5.041v-1.31h5.646a.605.605,0,1,0,0-1.21H5.041V27.525h5.646a.605.605,0,1,0,0-1.21H5.041V12.5H16.334V32.062a.65.65,0,0,0,.6.6H42.143a.651.651,0,0,0,.606-.6V12.5H54.142V26.315Zm-36.6-23.9H41.64V31.457H17.645ZM4.537,8.671h11.8v2.521H4.436a.65.65,0,0,0-.6.6V37a.65.65,0,0,0,.6.6H54.848a.65.65,0,0,0,.6-.6V11.8a.65.65,0,0,0-.6-.6h-12V8.671h11.9A3.357,3.357,0,0,1,58.074,12V39.724H1.31V12A3.272,3.272,0,0,1,4.537,8.671M38.111,53.537h.3a1.916,1.916,0,1,1,0,3.831H20.972a1.916,1.916,0,1,1,0-3.831h.2A5.323,5.323,0,0,0,26.517,48.5h6.351a5.232,5.232,0,0,0,5.243,5.041m16.636-6.251H4.537A3.357,3.357,0,0,1,1.21,43.959V40.934H57.973v3.025a3.271,3.271,0,0,1-3.226,3.327" fill="#63bb7c"/><path d="M47.588,2.42a.908.908,0,1,1-.907.908.907.907,0,0,1,.907-.908" fill="#63bb7c"/><path d="M12.3,3.73a.908.908,0,1,1-.907.908A.907.907,0,0,1,12.3,3.73" fill="#63bb7c"/><path d="M6.957,6.15a2.5,2.5,0,0,0,2.52-2.52,2.521,2.521,0,1,0-5.041,0A2.5,2.5,0,0,0,6.957,6.15m0-3.73a1.334,1.334,0,0,1,1.31,1.311,1.311,1.311,0,1,1-2.621,0A1.271,1.271,0,0,1,6.957,2.42" fill="#63bb7c"/><path d="M54.545,6.856a3.4,3.4,0,0,0,3.428-3.428,3.428,3.428,0,1,0-6.856,0,3.4,3.4,0,0,0,3.428,3.428m0-5.747a2.237,2.237,0,0,1,2.218,2.218,2.218,2.218,0,0,1-4.436,0,2.237,2.237,0,0,1,2.218-2.218" fill="#63bb7c"/><path d="M27.223,12.9a.637.637,0,0,0,.907.1c.4-.3.807-.706,1.21-1.008.6.806,1.411,1.512,2.218,2.42a.638.638,0,0,0,.907.1C34.281,13.006,36.2,12.1,36.3,10.082a2.256,2.256,0,0,0-2.117-2.42,2.554,2.554,0,0,0-1.21.2,4.312,4.312,0,0,0,.1-.5A2.721,2.721,0,0,0,30.55,4.436a2.63,2.63,0,0,0-2.219.807,2.6,2.6,0,0,0-2.016-1.21,2.72,2.72,0,0,0-2.924,2.52c-.1,1.916,1.109,3.226,2.522,4.739.4.605.907,1.109,1.31,1.613m6.755-3.932a1.058,1.058,0,0,1,1.109,1.109c-.1,1.21-1.412,1.916-2.924,3.126-1.311-1.513-2.521-2.42-2.419-3.529a.962.962,0,0,1,1.108-.908.762.762,0,0,1,.706.4c.1.2.2.4.3.605a.623.623,0,0,0,1.108.1c.4-.806.706-.907,1.009-.907M24.6,6.755a1.631,1.631,0,0,1,1.613-1.412c.706.1,1.11.4,1.412,1.412a.624.624,0,0,0,1.109.1c.5-.908.907-1.21,1.613-1.109A1.629,1.629,0,0,1,31.759,7.36v.3a1.907,1.907,0,0,0-.805-.2,2.257,2.257,0,0,0-2.42,2.117,5.937,5.937,0,0,0,.2,1.411,5.544,5.544,0,0,0-.907.706c-.3-.4-.707-.706-1.008-1.109C25.408,9.174,24.5,8.167,24.6,6.755" fill="#63bb7c"/><path d="M20.165,16.938h8.872a.605.605,0,0,0,0-1.21H20.165a.605.605,0,1,0,0,1.21" fill="#63bb7c"/><path d="M20.165,18.753H39.119a.605.605,0,1,0,0-1.21H20.165a.605.605,0,1,0,0,1.21" fill="#63bb7c"/><path d="M20.165,21.979h8.872a.605.605,0,0,0,0-1.21H20.165a.605.605,0,1,0,0,1.21" fill="#63bb7c"/><path d="M20.165,23.794H39.119a.605.605,0,1,0,0-1.21H20.165a.605.605,0,1,0,0,1.21" fill="#63bb7c"/><path d="M20.165,27.02h8.872a.605.605,0,0,0,0-1.21H20.165a.605.605,0,1,0,0,1.21" fill="#63bb7c"/><path d="M20.165,28.835H39.119a.605.605,0,1,0,0-1.21H20.165a.6.6,0,1,0,0,1.21" fill="#63bb7c"/></g></g></svg>