<svg xmlns="http://www.w3.org/2000/svg" xmlns:xlink="http://www.w3.org/1999/xlink" width="60.97" height="60.323" viewBox="0 0 60.97 60.323"><defs><clipPath id="a"><rect width="60.971" height="60.323" fill="#fff"/></clipPath></defs><g transform="translate(0 0)"><g transform="translate(0 0)" clip-path="url(#a)"><path d="M29.731,13.461a3.214,3.214,0,1,0-3.215-3.215,3.231,3.231,0,0,0,3.215,3.215m0-5.186a1.971,1.971,0,0,1,0,3.941,1.907,1.907,0,0,1-1.971-1.971,1.969,1.969,0,0,1,1.971-1.971" transform="translate(0.755 0.201)" fill="#fff"/><path d="M56.512,51.2a5.341,5.341,0,0,0,1.867-4.043V17.705a5.421,5.421,0,0,0-5.392-5.392H39.3A19.918,19.918,0,0,0,30.9.077a.893.893,0,0,0-.726,0,19.522,19.522,0,0,0-8.4,12.236H7.984a5.421,5.421,0,0,0-5.391,5.392V47.154A5.181,5.181,0,0,0,4.458,51.2,4.515,4.515,0,0,0,0,55.76a4.6,4.6,0,0,0,4.562,4.562H56.408a4.563,4.563,0,0,0,.1-9.126M46.039,52.545h5.807v1.348H46.039ZM45.418,24.03a.669.669,0,0,0,.621-.622V18.223h1.348v7.155a.622.622,0,0,0,1.244,0V18.223h1.347v9.125a.622.622,0,1,0,1.244,0V18.223h1.348V33.155A7.6,7.6,0,0,0,46.454,37.1a6.259,6.259,0,0,0-2.177.829,4.534,4.534,0,0,0-7.362.83,5.033,5.033,0,0,0-5.6-.416,5.258,5.258,0,0,0-8.4.416A5.649,5.649,0,0,0,16.9,39.9a7.162,7.162,0,0,0-8.4-3.836V18.223H9.747v9.125a.622.622,0,0,0,1.244,0V18.223h1.244v7.155a.622.622,0,0,0,1.244,0V18.223h1.451v5.184a.622.622,0,0,0,1.244,0V18.223h5.081a24.172,24.172,0,0,0,.416,2.7,8.238,8.238,0,0,0-.934,7.985.613.613,0,0,0,1.142,0,8.352,8.352,0,0,1,1.763-2.489c.207.414.518.829.829,1.347.1.1.311.208.416.312a.777.777,0,0,0,.518-.1,3.067,3.067,0,0,1,.726-.517,8.635,8.635,0,0,0,3.835,6.429.893.893,0,0,0,.726,0,8.641,8.641,0,0,0,3.837-6.429,4.412,4.412,0,0,1,.726.517.656.656,0,0,0,.933-.1,14.969,14.969,0,0,0,.829-1.349,8.347,8.347,0,0,1,1.763,2.489.613.613,0,0,0,1.142,0,7.978,7.978,0,0,0-.934-7.983,20.958,20.958,0,0,0,.414-2.7h5.081v5.184c.312.208.519.518.935.518M8.5,37.3a5.879,5.879,0,0,1,7.57,3.836.648.648,0,0,0,1.142.207A4.558,4.558,0,0,1,22.916,40a.466.466,0,0,0,.518,0,1.427,1.427,0,0,0,.414-.312,3.8,3.8,0,0,1,3.526-2.177,3.962,3.962,0,0,1,3.318,1.867.675.675,0,0,0,.933.207,3.544,3.544,0,0,1,2.282-.726,3.859,3.859,0,0,1,2.9,1.348.763.763,0,0,0,.623.208A1.037,1.037,0,0,0,37.951,40a3.33,3.33,0,0,1,3.11-2.386,3.129,3.129,0,0,1,2.7,1.453.584.584,0,0,0,.933.1,4.819,4.819,0,0,1,2.385-.933.572.572,0,0,0,.519-.312A6.478,6.478,0,0,1,52.78,34.4V46.635H8.5ZM23.124,25.067a8.245,8.245,0,0,0-1.556,1.763,6.468,6.468,0,0,1,.622-4.355,19.049,19.049,0,0,0,.934,2.592m10.264,1.451a7.217,7.217,0,0,1-2.9,5.7,6.932,6.932,0,0,1-2.9-5.7,8.02,8.02,0,0,1,5.806,0m5.392-3.94a7.051,7.051,0,0,1,.622,4.357,8.248,8.248,0,0,0-1.555-1.764c.311-.933.726-1.763.933-2.593M30.486,1.425A18.444,18.444,0,0,1,35.67,26.311a9.047,9.047,0,0,0-10.369,0A18.485,18.485,0,0,1,30.486,1.425M3.94,47.154V17.705a4.049,4.049,0,0,1,4.044-4.044h13.48a17.265,17.265,0,0,0-.208,3.214H7.777a.67.67,0,0,0-.623.622V47.361a.669.669,0,0,0,.623.622H53.194a.669.669,0,0,0,.622-.622V17.5a.67.67,0,0,0-.622-.622H39.714a17.265,17.265,0,0,0-.208-3.214h13.48a4.049,4.049,0,0,1,4.044,4.044V47.154A4.048,4.048,0,0,1,52.987,51.2h-45A3.983,3.983,0,0,1,3.94,47.154m20.738,5.391H36.4v1.348H24.678Zm-15.553,0h5.807v1.348H9.125Zm47.284,6.429H4.562a3.214,3.214,0,0,1,0-6.429H7.777v1.971a.667.667,0,0,0,.621.621h7.155a.667.667,0,0,0,.622-.621V52.545h7.155v1.971a.668.668,0,0,0,.621.621H36.915a.667.667,0,0,0,.621-.621V52.545h7.155v1.971a.668.668,0,0,0,.622.621h7.155a.666.666,0,0,0,.621-.621V52.545h3.319a3.214,3.214,0,1,1,0,6.429" transform="translate(0 0)" fill="#fff"/><path d="M25.108,19.19a.664.664,0,0,0,1.037.83,4.732,4.732,0,0,1,7.155,0c.1.207.312.207.518.207a.657.657,0,0,0,.518-1.037,6.046,6.046,0,0,0-9.228,0" transform="translate(0.711 0.486)" fill="#fff"/><path d="M24.3,17.617a.656.656,0,0,0,.933-.1,6.123,6.123,0,0,1,9.229,0c.1.209.311.209.518.209a.657.657,0,0,0,.518-1.037,7.36,7.36,0,0,0-11.3,0,.655.655,0,0,0,.1.933" transform="translate(0.685 0.4)" fill="#fff"/><path d="M12.052,40.4a1.971,1.971,0,0,0,0,3.941,1.907,1.907,0,0,0,1.971-1.971A1.969,1.969,0,0,0,12.052,40.4m0,2.593a.622.622,0,1,1,.622-.622.67.67,0,0,1-.622.622" transform="translate(0.287 1.151)" fill="#fff"/><path d="M32.89,41.009a.669.669,0,0,0-.622.622,1.373,1.373,0,0,1-1.347,1.348,1.286,1.286,0,0,1-1.244-1.348.622.622,0,0,0-1.244,0,2.592,2.592,0,0,0,5.184,0,.694.694,0,0,0-.726-.622" transform="translate(0.809 1.168)" fill="#fff"/><path d="M42.349,40.526a.66.66,0,1,0,.933.933,1.32,1.32,0,0,1,1.868,1.867.66.66,0,0,0,.933.933,2.5,2.5,0,0,0,0-3.628,2.543,2.543,0,0,0-3.733-.1" transform="translate(1.201 1.132)" fill="#fff"/><path d="M21.084,41.728a1.756,1.756,0,0,0,0,2.384.66.66,0,1,0,.933-.933.367.367,0,0,1,.519-.518.66.66,0,0,0,.933-.933,1.757,1.757,0,0,0-2.385,0" transform="translate(0.587 1.175)" fill="#fff"/><path d="M7.634,8.384A2.592,2.592,0,1,0,5.042,5.793,2.567,2.567,0,0,0,7.634,8.384m0-3.94A1.348,1.348,0,1,1,6.286,5.793,1.447,1.447,0,0,1,7.634,4.444" transform="translate(0.144 0.091)" fill="#fff"/><path d="M49.915,9.669a3.94,3.94,0,1,0-3.94-3.94,3.938,3.938,0,0,0,3.94,3.94m0-6.429a2.592,2.592,0,1,1-2.592,2.593A2.568,2.568,0,0,1,49.915,3.24" transform="translate(1.309 0.051)" fill="#fff"/><path d="M41.967,1.991a.933.933,0,1,1-.933.933.933.933,0,0,1,.933-.933" transform="translate(1.168 0.057)" fill="#fff"/><path d="M57.09,8.847a.933.933,0,1,1-.933.933.933.933,0,0,1,.933-.933" transform="translate(1.599 0.252)" fill="#fff"/><path d="M48.218,37.279a.933.933,0,1,1-.933.933.933.933,0,0,1,.933-.933" transform="translate(1.346 1.062)" fill="#fff"/><path d="M38.842,40.4a.933.933,0,1,1-.934.933.933.933,0,0,1,.934-.933" transform="translate(1.079 1.151)" fill="#fff"/><path d="M26.239,38.489a.933.933,0,1,1-.933.933.933.933,0,0,1,.933-.933" transform="translate(0.72 1.096)" fill="#fff"/><path d="M16.762,42.32a.933.933,0,1,1-.933.933.933.933,0,0,1,.933-.933" transform="translate(0.451 1.205)" fill="#fff"/><path d="M21.8.075a.933.933,0,1,1-.933.933A.933.933,0,0,1,21.8.075" transform="translate(0.594 0.003)" fill="#fff"/><path d="M15.452,7.032a.933.933,0,1,1-.934.933.933.933,0,0,1,.934-.933" transform="translate(0.413 0.201)" fill="#fff"/><path d="M2.848,8.241a.934.934,0,1,1-.933.934.934.934,0,0,1,.933-.934" transform="translate(0.055 0.235)" fill="#fff"/></g></g></svg>