<svg xmlns="http://www.w3.org/2000/svg" xmlns:xlink="http://www.w3.org/1999/xlink" width="95.721" height="95.721" viewBox="0 0 95.721 95.721"><defs><clipPath id="a"><rect width="95.721" height="95.721" fill="#599cb3"/></clipPath></defs><g transform="translate(0 0)"><g transform="translate(0 0)" clip-path="url(#a)"><path d="M57.645,5.678a2.017,2.017,0,0,1,.637,1.433,1.728,1.728,0,0,1-.637,1.434,2.015,2.015,0,0,1-1.433.638A2.11,2.11,0,0,1,54.141,7.11a1.728,1.728,0,0,1,.638-1.433,2.017,2.017,0,0,1,1.433-.637,3.008,3.008,0,0,1,1.433.637" transform="translate(31.386 2.923)" fill="#599cb3"/><path d="M52.6,43.487a2.014,2.014,0,0,1,.637,1.433,1.723,1.723,0,0,1-.637,1.433,2.011,2.011,0,0,1-1.433.638A2.109,2.109,0,0,1,49.1,44.919a1.726,1.726,0,0,1,.638-1.433,1.931,1.931,0,0,1,2.866,0" transform="translate(28.464 24.841)" fill="#599cb3"/><path d="M51.395,52.417a2.017,2.017,0,0,1,.637,1.433,1.728,1.728,0,0,1-.637,1.433,2.214,2.214,0,0,1-1.434.479,2.107,2.107,0,0,1-2.069-2.069,1.728,1.728,0,0,1,.637-1.434,2.017,2.017,0,0,1,1.433-.637,2.584,2.584,0,0,1,1.434.8" transform="translate(27.763 29.926)" fill="#599cb3"/><path d="M48.874,43.487a2.014,2.014,0,0,1,.637,1.433,1.723,1.723,0,0,1-.637,1.433,2.008,2.008,0,0,1-1.433.638,2.109,2.109,0,0,1-2.071-2.071,1.726,1.726,0,0,1,.638-1.433,2.011,2.011,0,0,1,1.433-.637,2.366,2.366,0,0,1,1.433.637" transform="translate(26.301 24.841)" fill="#599cb3"/><path d="M45.043,43.487a2.014,2.014,0,0,1,.637,1.433,1.728,1.728,0,0,1-.637,1.433,2.011,2.011,0,0,1-1.433.638,2.109,2.109,0,0,1-2.071-2.071,1.729,1.729,0,0,1,.637-1.433,1.932,1.932,0,0,1,2.867,0" transform="translate(24.081 24.841)" fill="#599cb3"/><path d="M41.312,2.006a2.017,2.017,0,0,1,.637,1.433,1.728,1.728,0,0,1-.637,1.434,2.22,2.22,0,0,1-1.433.477,2.107,2.107,0,0,1-2.071-2.069,1.729,1.729,0,0,1,.638-1.434,2.362,2.362,0,0,1,1.433-.637,1.671,1.671,0,0,1,1.433.8" transform="translate(21.918 0.702)" fill="#599cb3"/><path d="M28.71,4.468A2.021,2.021,0,0,1,29.346,5.9a1.731,1.731,0,0,1-.637,1.433,2.019,2.019,0,0,1-1.434.638A2.109,2.109,0,0,1,25.206,5.9a1.732,1.732,0,0,1,.637-1.434,2.379,2.379,0,0,1,1.433-.637,1.732,1.732,0,0,1,1.434.637" transform="translate(14.612 2.221)" fill="#599cb3"/><path d="M12.276,52.417a2.017,2.017,0,0,1,.637,1.433,1.728,1.728,0,0,1-.637,1.433,2.21,2.21,0,0,1-1.433.479,2.107,2.107,0,0,1-2.071-2.069,1.732,1.732,0,0,1,.637-1.434,2.018,2.018,0,0,1,1.434-.637,2.143,2.143,0,0,1,1.433.8" transform="translate(5.085 29.926)" fill="#599cb3"/><path d="M9.755,3.158a2.017,2.017,0,0,1,.637,1.433,1.732,1.732,0,0,1-.637,1.434,2.372,2.372,0,0,1-1.433.638A2.11,2.11,0,0,1,6.251,4.59a1.731,1.731,0,0,1,.637-1.433,2.379,2.379,0,0,1,1.434-.637,3,3,0,0,1,1.433.637" transform="translate(3.624 1.462)" fill="#599cb3"/><path d="M40.329,58.591a2.2,2.2,0,0,1-1.752-.954l-4.619-7.963A1.967,1.967,0,0,1,37.3,47.6l4.619,7.965a2.041,2.041,0,0,1-.8,2.708,1.222,1.222,0,0,1-.8.318" transform="translate(19.556 27.096)" fill="#599cb3"/><path d="M20.888,58.63a2.28,2.28,0,0,1-.956-.318,2.041,2.041,0,0,1-.8-2.708l4.619-7.965A1.864,1.864,0,0,1,26.462,47a2.043,2.043,0,0,1,.8,2.709L22.64,57.676a1.83,1.83,0,0,1-1.752.954" transform="translate(10.966 27.057)" fill="#599cb3"/><path d="M56.949,63.725a2.07,2.07,0,1,1,0-4.14,1.946,1.946,0,0,0,1.433-.637,2.376,2.376,0,0,0,.638-1.434,2.107,2.107,0,0,0-2.071-2.069H19.361a1.944,1.944,0,0,0-1.434.637,2.02,2.02,0,0,0-.637,1.433,2.109,2.109,0,0,0,2.071,2.071,2.07,2.07,0,1,1,0,4.14,6.05,6.05,0,0,1-6.053-6.052,6.46,6.46,0,0,1,1.752-4.3,5.549,5.549,0,0,1,4.3-1.75H56.949a5.915,5.915,0,0,1,5.892,6.052,6.452,6.452,0,0,1-1.752,4.3,5.524,5.524,0,0,1-4.14,1.75" transform="translate(7.715 29.926)" fill="#599cb3"/><path d="M6.053,62.515a6.052,6.052,0,1,1,6.05-6.052,6.05,6.05,0,0,1-6.05,6.052m0-7.963a2.07,2.07,0,1,0,0,4.14,2.07,2.07,0,0,0,0-4.14" transform="translate(0 29.224)" fill="#599cb3"/><path d="M18.655,12.105a6.053,6.053,0,1,1,6.052-6.053,6.051,6.051,0,0,1-6.052,6.053m0-7.965a2.109,2.109,0,0,0-2.071,2.071,2.071,2.071,0,0,0,4.142,0A2.009,2.009,0,0,0,18.655,4.14" transform="translate(7.306 0)" fill="#599cb3"/><path d="M49.1,11.287a4.938,4.938,0,1,1,4.938-4.938A4.964,4.964,0,0,1,49.1,11.287m0-6.053a1.029,1.029,0,0,0-.956.956.956.956,0,1,0,1.911,0c.16-.477-.319-.956-.956-.956" transform="translate(25.6 0.818)" fill="#599cb3"/><path d="M58.984,65.036a6.052,6.052,0,1,1,6.053-6.052,6.049,6.049,0,0,1-6.053,6.052m0-7.963a2.071,2.071,0,1,0,2.071,2.071,2.109,2.109,0,0,0-2.071-2.071" transform="translate(30.685 30.686)" fill="#599cb3"/><path d="M67.9,60.8H12.152a2.07,2.07,0,0,1,0-4.14H67.9a2.07,2.07,0,1,1,0,4.14" transform="translate(5.845 32.848)" fill="#599cb3"/><path d="M81.423,72.582H8.8A7.477,7.477,0,0,1,1.311,65.1V16.36A7.478,7.478,0,0,1,8.8,8.872H81.423a7.478,7.478,0,0,1,7.485,7.488V65.1a7.477,7.477,0,0,1-7.485,7.486M8.8,12.854a3.536,3.536,0,0,0-3.5,3.505V65.1a3.535,3.535,0,0,0,3.5,3.5H81.423a3.535,3.535,0,0,0,3.5-3.5V16.36a3.536,3.536,0,0,0-3.5-3.505Z" transform="translate(0.76 5.144)" fill="#599cb3"/><path d="M40.163,55.258a2.95,2.95,0,0,1-1.117-.319,1.893,1.893,0,0,1-.637-2.708l2.548-3.981a17.356,17.356,0,0,1-1.273-3.027l-4.619-.956a1.891,1.891,0,0,1-1.592-1.911V38.535a1.892,1.892,0,0,1,1.592-1.911l4.619-.956a24.585,24.585,0,0,1,1.273-3.025L38.41,28.66a2.188,2.188,0,0,1,.319-2.548L41.436,23.4a2.162,2.162,0,0,1,2.548-.319l3.981,2.548a17.235,17.235,0,0,1,3.027-1.273l.956-4.619a1.891,1.891,0,0,1,1.911-1.592h3.823a1.889,1.889,0,0,1,1.91,1.592l.956,4.619a9.375,9.375,0,0,1,2.231.956,2.029,2.029,0,1,1-1.75,3.662,7.846,7.846,0,0,0-2.709-.954,1.891,1.891,0,0,1-1.434-1.434l-.956-4.3h-.637l-.954,4.3A1.887,1.887,0,0,1,52.9,28.024a13.493,13.493,0,0,0-4.142,1.75,1.671,1.671,0,0,1-2.069,0l-3.663-2.387-.479.475,2.39,3.665a1.671,1.671,0,0,1,0,2.069,13.509,13.509,0,0,0-1.753,4.14,1.878,1.878,0,0,1-1.433,1.434l-4.14.8v.638l4.3.954a1.887,1.887,0,0,1,1.434,1.433A13.464,13.464,0,0,0,45.1,47.135a1.677,1.677,0,0,1,0,2.071l-3.186,5.1a2.2,2.2,0,0,1-1.75.954" transform="translate(19.405 10.522)" fill="#599cb3"/><path d="M50.611,42.889a7.884,7.884,0,1,1,0-15.767,7.884,7.884,0,0,1,0,15.767m0-11.786a3.823,3.823,0,1,0,3.823,3.823A3.773,3.773,0,0,0,50.611,31.1" transform="translate(24.723 15.723)" fill="#599cb3"/><path d="M78.783,58.473H7.111A2.107,2.107,0,0,1,5.042,56.4V14.674A2.107,2.107,0,0,1,7.111,12.6H78.783a2.109,2.109,0,0,1,2.071,2.071V56.562a2.086,2.086,0,0,1-2.071,1.911m-69.6-3.982H76.871V16.743H9.182Z" transform="translate(2.923 7.307)" fill="#599cb3"/><path d="M18.2,40.34H12.153a2.109,2.109,0,0,1-2.071-2.071V32.217a2.109,2.109,0,0,1,2.071-2.071H18.2a2.071,2.071,0,0,1,0,4.142H14.222v2.071H18.2a2.107,2.107,0,0,1,2.071,2.069A2.079,2.079,0,0,1,18.2,40.34" transform="translate(5.845 17.476)" fill="#599cb3"/><path d="M21.936,41.742H15.884a2.109,2.109,0,0,1-2.071-2.071V29.8a2.108,2.108,0,0,1,2.071-2.071h6.052a2.07,2.07,0,1,1,0,4.14H17.953v5.894h3.982a2.107,2.107,0,0,1,2.071,2.069,1.975,1.975,0,0,1-2.071,1.911" transform="translate(8.008 16.074)" fill="#599cb3"/><path d="M25.767,43.262H19.715a2.109,2.109,0,0,1-2.071-2.071V27.174a2.108,2.108,0,0,1,2.071-2.069h6.052a2.071,2.071,0,1,1,0,4.142H21.784V39.281h3.982a2.107,2.107,0,0,1,2.071,2.069,2.08,2.08,0,0,1-2.071,1.911" transform="translate(10.228 14.554)" fill="#599cb3"/><path d="M29.5,44.665H23.445a2.109,2.109,0,0,1-2.071-2.071V24.757a2.108,2.108,0,0,1,2.071-2.071H29.5a2.07,2.07,0,1,1,0,4.14H25.516V40.684H29.5a2.107,2.107,0,0,1,2.071,2.069A1.975,1.975,0,0,1,29.5,44.665" transform="translate(12.391 13.152)" fill="#599cb3"/><path d="M33.328,46.125H27.276a2.108,2.108,0,0,1-2.071-2.069V22.235a2.109,2.109,0,0,1,2.071-2.071h6.052A2.109,2.109,0,0,1,35.4,22.235v21.98a2.362,2.362,0,0,1-2.071,1.91m-3.981-3.981h1.911V24.306H29.187V42.144Z" transform="translate(14.612 11.69)" fill="#599cb3"/><path d="M10.908,35.607a1.958,1.958,0,0,1-1.592-.8A1.855,1.855,0,0,1,9.793,32.1l19.75-14.015a1.944,1.944,0,1,1,2.229,3.186L12.023,35.288a4.107,4.107,0,0,1-1.115.319" transform="translate(5.178 10.264)" fill="#599cb3"/></g></g></svg>