<svg xmlns="http://www.w3.org/2000/svg" xmlns:xlink="http://www.w3.org/1999/xlink" width="79.962" height="80.161" viewBox="0 0 79.962 80.161"><defs><clipPath id="a"><rect width="79.962" height="80.161" fill="#63bb7c"/></clipPath></defs><g transform="translate(0 0)"><g transform="translate(0 0)" clip-path="url(#a)"><path d="M49.033,52.753l18.207-8.3a6.017,6.017,0,0,0,2.622-8.885,6.166,6.166,0,0,0-7.72-2.33l-7.428,3.5a21.017,21.017,0,0,1-8.448,1.894,20.177,20.177,0,0,1-9.759-2.476A21.356,21.356,0,0,0,8.4,46.927L3.445,58a.916.916,0,0,0,.436,1.164L18.3,65.57a.917.917,0,0,0,1.166-.436c1.166-2.768,2.914-6.554,2.914-6.554l1.31-3.058A5.175,5.175,0,0,1,30.536,52.9a22.025,22.025,0,0,0,9.175,1.894,22.354,22.354,0,0,0,9.322-2.04M18.3,63.532,5.483,57.852l2.186-5.1L20.34,58.58Zm3.788-8.739-1.02,2.184L8.4,51.153l1.6-3.5a19.436,19.436,0,0,1,25.634-9.906,23.748,23.748,0,0,0,10.488,2.623,23.387,23.387,0,0,0,9.321-2.04l7.574-3.35a4.367,4.367,0,0,1,5.826,5.68,4.018,4.018,0,0,1-2.184,2.184l-18.208,8.3a20.152,20.152,0,0,1-16.9,0c-1.018-.293-7.865.144-9.467,3.64" transform="translate(1.507 14.536)" fill="#63bb7c"/><path d="M15.46,19.291l5.972,5.972a4.958,4.958,0,0,0-1.02,3.2,5.41,5.41,0,0,0,5.534,5.39,5.5,5.5,0,0,0,5.534-5.39,4.572,4.572,0,0,0-1.018-3.058l7.719-6.118a5.244,5.244,0,0,0,6.41,0l5.971,5.972a5.512,5.512,0,0,0,.582,6.992,5.459,5.459,0,0,0,7.72-7.72,5.525,5.525,0,0,0-6.991-.584L45.9,17.981a5.51,5.51,0,0,0-.582-6.991,5.364,5.364,0,0,0-7.72,0,5.508,5.508,0,0,0-.582,6.991L29.152,24.1a5.249,5.249,0,0,0-6.41,0L16.77,17.981a5.506,5.506,0,0,0-.582-6.991,5.363,5.363,0,0,0-7.719,0,5.445,5.445,0,0,0,6.991,8.3m42.238,6.7a3.688,3.688,0,1,1-2.476-1.021A3.189,3.189,0,0,1,57.7,25.993M38.911,12.3a3.6,3.6,0,1,1,5.1,5.1,3.6,3.6,0,0,1-5.1-5.1M28.568,25.993a3.69,3.69,0,1,1-2.476-1.021,3.191,3.191,0,0,1,2.476,1.021M9.779,12.3a3.6,3.6,0,0,1,5.1,5.1,3.517,3.517,0,0,1-5.1,0,3.518,3.518,0,0,1,0-5.1" transform="translate(3.037 4.157)" fill="#63bb7c"/><path d="M50.8,14.7a5.535,5.535,0,1,0-5.534-5.536A5.532,5.532,0,0,0,50.8,14.7m0-9.176a3.641,3.641,0,1,1-3.64,3.64,3.606,3.606,0,0,1,3.64-3.64" transform="translate(20.128 1.613)" fill="#63bb7c"/><path d="M6.666,34.907a3.641,3.641,0,0,0,0-7.282,3.606,3.606,0,0,0-3.642,3.642,3.7,3.7,0,0,0,3.642,3.64m0-5.388a1.893,1.893,0,1,1-1.894,1.894,2.034,2.034,0,0,1,1.894-1.894" transform="translate(1.345 12.283)" fill="#63bb7c"/><path d="M34.077,2.521a1.31,1.31,0,1,1-1.31,1.31,1.31,1.31,0,0,1,1.31-1.31" transform="translate(14.569 1.12)" fill="#63bb7c"/><path d="M52.327,17.038a1.311,1.311,0,1,1-1.312,1.312,1.31,1.31,0,0,1,1.312-1.312" transform="translate(22.683 7.575)" fill="#63bb7c"/><path d="M34.077,28.33a1.311,1.311,0,1,1-1.31,1.312,1.31,1.31,0,0,1,1.31-1.312" transform="translate(14.569 12.596)" fill="#63bb7c"/><path d="M14.518,27.121a1.31,1.31,0,1,1-1.31,1.31,1.311,1.311,0,0,1,1.31-1.31" transform="translate(5.873 12.058)" fill="#63bb7c"/><path d="M17.038,0a1.31,1.31,0,1,1-1.31,1.31A1.311,1.311,0,0,1,17.038,0" transform="translate(6.993 0)" fill="#63bb7c"/><path d="M3.831,18.248a1.311,1.311,0,1,1-1.31,1.31,1.311,1.311,0,0,1,1.31-1.31" transform="translate(1.121 8.113)" fill="#63bb7c"/><path d="M1.31,39.018A1.31,1.31,0,1,1,0,40.328a1.31,1.31,0,0,1,1.31-1.31" transform="translate(0 17.348)" fill="#63bb7c"/><path d="M36.767,49.1a.874.874,0,1,0,0,1.748H52.206a.874.874,0,0,0,0-1.748Z" transform="translate(15.959 21.831)" fill="#63bb7c"/><path d="M66.8,51.62H28.5a.874.874,0,0,0,0,1.748H66.8a.874.874,0,1,0,0-1.748" transform="translate(12.283 22.952)" fill="#63bb7c"/><path d="M55.79,47.454a.939.939,0,0,0-.874-.874h-11.8a.873.873,0,1,0,0,1.747h11.8a.838.838,0,0,0,.874-.873" transform="translate(18.783 20.711)" fill="#63bb7c"/></g></g></svg>