<svg xmlns="http://www.w3.org/2000/svg" width="62.973" height="61.046" viewBox="0 0 62.973 61.046"><defs><clipPath id="a"><path fill="#63bb7c" d="M0 0h62.973v61.046H0z"/></clipPath></defs><g fill="#63bb7c" clip-path="url(#a)"><path d="M58.369 51.621a5.52 5.52 0 0 0 1.931-4.177V17.029a5.6 5.6 0 0 0-5.57-5.57H8.247a5.6 5.6 0 0 0-5.568 5.57v30.415a5.35 5.35 0 0 0 1.928 4.177A4.663 4.663 0 0 0 0 56.333a4.755 4.755 0 0 0 4.712 4.712h53.55a4.754 4.754 0 0 0 4.711-4.712 4.66 4.66 0 0 0-4.6-4.712m-10.822 1.285h6v1.392h-6ZM4.07 26.882h6.747v4.069a3.32 3.32 0 0 1-6.64 0v-4.069Zm20.13-9.423c-.535.857-4.605 7.07-5.14 8.033h-6l8.04-8.033Zm1.606 0H28.6l-1.718 8.03h-6.211c.535-.857 4.605-7.069 5.14-8.033M12.1 26.882h6.75v4.069a3.32 3.32 0 0 1-6.64 0v-4.069Zm8.032 0h6.747v4.069a3.32 3.32 0 0 1-6.64 0v-4.069Zm8.032 0h6.747v4.069a3.32 3.32 0 0 1-6.64 0v-4.069Zm8.032 0h6.747v4.069a3.32 3.32 0 1 1-6.639 0v-4.069Zm8.032 0h6.747v4.069a3.32 3.32 0 0 1-6.64 0v-4.069Zm7.6-1.392L43.8 17.459h2.142l11.458 8.03Zm-9.952-8.031 8.032 8.033h-6l-5.138-8.033Zm-4.713 0 5.137 8.03h-6.208c-.32-1.606-1.392-6.426-1.714-8.033Zm-4.175 0c.106.321 1.5 7.176 1.713 8.033h-6.427l1.714-8.033Zm-21.85 8.03H5.462l11.46-8.03h2.142Zm-2.356 9.853a4.67 4.67 0 0 0 2.677-2.035 4.72 4.72 0 0 0 4.071 2.252 4.97 4.97 0 0 0 4.07-2.252 4.72 4.72 0 0 0 4.07 2.249 4.97 4.97 0 0 0 4.069-2.249 4.72 4.72 0 0 0 4.07 2.249 4.97 4.97 0 0 0 4.069-2.249 4.72 4.72 0 0 0 4.07 2.249 4.97 4.97 0 0 0 4.069-2.249 4.72 4.72 0 0 0 4.07 2.249 4.97 4.97 0 0 0 4.069-2.249 4.67 4.67 0 0 0 2.678 2.035v11.566H8.782Zm43.482-4.5v-4.07H58.9v4.07a3.247 3.247 0 0 1-3.315 3.217 3.18 3.18 0 0 1-3.32-3.213M8.247 12.745h46.48a4.18 4.18 0 0 1 4.173 4.176v7.925l-12.312-8.675c-.108-.106-.214-.106-.429-.106H16.707a.65.65 0 0 0-.428.106L3.963 24.846v-7.925a4.35 4.35 0 0 1 4.284-4.176M4.07 47.444V34.159a4.7 4.7 0 0 0 3.32 1.4v12.1a.69.69 0 0 0 .643.643h46.909a.69.69 0 0 0 .643-.643v-12.1a4.7 4.7 0 0 0 3.315-1.4v13.179a4.18 4.18 0 0 1-4.176 4.176h-16.6a.69.69 0 0 0-.643.643v2.034H25.49v-2.032a.69.69 0 0 0-.643-.643h-16.6a4.027 4.027 0 0 1-4.176-4.07m5.355 5.462h6V54.3h-6Zm48.836 6.747H4.712a3.32 3.32 0 0 1 0-6.64h3.321v2.035a.69.69 0 0 0 .642.643h7.389a.69.69 0 0 0 .643-.643v-2.037H24.1v2.035a.69.69 0 0 0 .642.643h13.385a.69.69 0 0 0 .643-.643v-2.035h7.389v2.035a.69.69 0 0 0 .642.643h7.39a.69.69 0 0 0 .643-.643v-2.035h3.427a3.32 3.32 0 0 1 0 6.64M56.226 8.139a4.069 4.069 0 1 0-4.07-4.069 4.14 4.14 0 0 0 4.07 4.069m0-6.746a2.65 2.65 0 0 1 2.675 2.677 2.677 2.677 0 1 1-5.354 0 2.65 2.65 0 0 1 2.677-2.677m-40.16 8.031a3.32 3.32 0 1 0-3.32-3.32 3.336 3.336 0 0 0 3.32 3.32m0-5.354a2.034 2.034 0 0 1 2.035 2.034 2.035 2.035 0 1 1-4.069 0 2.033 2.033 0 0 1 2.034-2.034m31.165 2.034a.964.964 0 1 1-.963.965.964.964 0 0 1 .963-.965M35.877.75a.963.963 0 1 1-.963.963.963.963 0 0 1 .963-.963m-30.2 4.712a.964.964 0 1 1-.965.965.964.964 0 0 1 .965-.965m18.742.642a.964.964 0 1 1-.965.965.964.964 0 0 1 .965-.965"/></g></svg>