<svg xmlns="http://www.w3.org/2000/svg" xmlns:xlink="http://www.w3.org/1999/xlink" width="62.465" height="63.271" viewBox="0 0 62.465 63.271"><defs><clipPath id="a"><rect width="62.465" height="63.271" fill="#599cb3"/></clipPath></defs><g transform="translate(0 0)"><g transform="translate(0 0)" clip-path="url(#a)"><path d="M42.735,33.935l-6.213-3.221,1.151-6.9a1.04,1.04,0,0,0-.346-.805.706.706,0,0,0-.805.116l-4.945,4.945-6.213-3.221a.679.679,0,0,0-.921.921l3.223,6.211-4.948,4.947a.7.7,0,0,0,.691,1.151l6.9-1.151,3.221,6.213a.7.7,0,0,0,.805.346.617.617,0,0,0,.575-.576l1.15-6.9,6.9-1.15a.616.616,0,0,0,.575-.575c-.346.115-.575-.23-.805-.345m-7.822,1.15a.615.615,0,0,0-.575.575l-.805,5.291-2.416-4.716a.7.7,0,0,0-.805-.345L25.02,36.7l3.8-3.8a.707.707,0,0,0,.115-.805l-2.416-4.716,4.716,2.416a.709.709,0,0,0,.805-.116l3.8-3.8-.8,5.291a1.04,1.04,0,0,0,.344.805l4.718,2.416Z" transform="translate(3.28 3.338)" fill="#599cb3"/><path d="M27.566,3.543a.878.878,0,0,0-.462-.229H12.841a.6.6,0,0,0-.461.229l-9.2,9.2a.871.871,0,0,0-.231.461v6.786A11.737,11.737,0,0,0,.3,27.587,12.164,12.164,0,0,0,14.8,39.551L33.662,58.417a4.931,4.931,0,0,0,7.018,0L58.05,41.046a4.929,4.929,0,0,0,0-7.017ZM1.681,27.587a10.643,10.643,0,0,1,1.265-5.061v4.831a.6.6,0,0,0,.231.461L13.531,38.17A10.619,10.619,0,0,1,1.681,27.587m55.334,12.54L39.758,57.382a3.61,3.61,0,0,1-5.061,0L16.406,39.091a12.207,12.207,0,0,0,8.284-11.619.69.69,0,1,0-1.38,0A10.974,10.974,0,0,1,15.257,37.94L4.442,27.126V20.454a11.155,11.155,0,0,1,7.593-3.681,3.582,3.582,0,1,0,3.452-4.6,3.525,3.525,0,0,0-3.567,3.221A11.285,11.285,0,0,0,4.558,18.5V13.552L13.3,4.809H26.99L57.359,35.18a3.859,3.859,0,0,1-.344,4.947M13.185,15.738a2.185,2.185,0,0,1,2.186-2.186,2.186,2.186,0,0,1,0,4.372,2.185,2.185,0,0,1-2.186-2.186" transform="translate(0.044 0.482)" fill="#599cb3"/><path d="M30.458,0a1.036,1.036,0,1,1-1.036,1.036A1.035,1.035,0,0,1,30.458,0" transform="translate(4.283 -0.001)" fill="#599cb3"/><path d="M3.546,4.418A1.036,1.036,0,1,1,2.51,5.455,1.036,1.036,0,0,1,3.546,4.418" transform="translate(0.365 0.643)" fill="#599cb3"/><path d="M49.94,15.766A1.035,1.035,0,1,1,48.9,16.8a1.034,1.034,0,0,1,1.036-1.034" transform="translate(7.12 2.295)" fill="#599cb3"/><path d="M19.813,48.4a1.036,1.036,0,1,1-1.034,1.036A1.036,1.036,0,0,1,19.813,48.4" transform="translate(2.734 7.046)" fill="#599cb3"/><path d="M1.034,36.452A1.036,1.036,0,1,1,0,37.488a1.035,1.035,0,0,1,1.034-1.036" transform="translate(0 5.306)" fill="#599cb3"/><path d="M53.754,42.076a1.036,1.036,0,1,1-1.034,1.036,1.035,1.035,0,0,1,1.034-1.036" transform="translate(7.675 6.125)" fill="#599cb3"/><path d="M41.806,53.423a1.036,1.036,0,1,1-1.036,1.036,1.034,1.034,0,0,1,1.036-1.036" transform="translate(5.936 7.777)" fill="#599cb3"/><path d="M48.329,13.412A5.7,5.7,0,0,0,54.081,7.66a5.752,5.752,0,1,0-11.5,0,5.77,5.77,0,0,0,5.752,5.752m0-10.124a4.372,4.372,0,1,1-4.37,4.372,4.369,4.369,0,0,1,4.37-4.372" transform="translate(6.199 0.277)" fill="#599cb3"/><path d="M7.384,45.189a4.372,4.372,0,1,0,4.372,4.372,4.37,4.37,0,0,0-4.372-4.372m0,7.247a2.876,2.876,0,1,1,2.877-2.875,2.848,2.848,0,0,1-2.877,2.875" transform="translate(0.439 6.578)" fill="#599cb3"/></g></g></svg>