<svg xmlns="http://www.w3.org/2000/svg" xmlns:xlink="http://www.w3.org/1999/xlink" width="61.927" height="61.926" viewBox="0 0 61.927 61.926"><defs><clipPath id="a"><rect width="61.927" height="61.926" fill="#fff"/></clipPath></defs><g transform="translate(0 0)"><g transform="translate(0 0)" clip-path="url(#a)"><path d="M40.574,17.827a.716.716,0,0,0,1.432,0,12.889,12.889,0,0,0-25.773-.359.716.716,0,1,0,1.432,0,11.46,11.46,0,0,1,22.909.359" transform="translate(2.978 0.906)" fill="#fff"/><path d="M35.292,41.633V36.5a3.017,3.017,0,0,1,1.791-2.744A17.425,17.425,0,0,0,47.225,18.009,17.214,17.214,0,0,0,29.685.708,17.147,17.147,0,0,0,12.5,17.292,17.451,17.451,0,0,0,22.526,33.639a3.012,3.012,0,0,1,1.789,2.744v5.13a2.346,2.346,0,0,0,2.268,2.268H27.3v.477a2.506,2.506,0,1,0,5.012,0v-.477h.715a2.1,2.1,0,0,0,2.266-2.148m-9.425-3.7h8v1.552h-8ZM27.18,21.946H25.271a1.2,1.2,0,0,1-1.193-1.194,1.283,1.283,0,0,1,1.193-1.193h.6a1.2,1.2,0,0,1,1.193,1.193v1.194Zm3.937,3.221H28.73V23.378h2.387Zm0,11.216H28.73V26.718h2.387Zm-7.875-4.057a15.93,15.93,0,1,1,13.244,0,4.616,4.616,0,0,0-2.625,4.057H32.549V26.718h.6a.716.716,0,1,0,0-1.432h-.6V23.5h1.909a2.744,2.744,0,1,0,0-5.488h-.6a2.7,2.7,0,0,0-2.744,2.743v1.194H28.731V20.752a2.7,2.7,0,0,0-2.744-2.743h-.6a2.744,2.744,0,0,0,0,5.488H27.3v1.789h-.6a.716.716,0,1,0,0,1.432h.6v9.665H25.987a4.809,4.809,0,0,0-2.744-4.057m9.307-10.38V20.752a1.2,1.2,0,0,1,1.193-1.193h.6a1.194,1.194,0,0,1,0,2.387ZM25.867,41.633v-.716h7.994v.716a.688.688,0,0,1-.716.716H26.7a.8.8,0,0,1-.836-.716m5.012,2.744a.942.942,0,0,1-.955.955,1.027,1.027,0,0,1-.954-.955V43.9H31Z" transform="translate(2.292 0.129)" fill="#fff"/><path d="M44.85,41.188A5.991,5.991,0,0,0,47.475,36.3a5.847,5.847,0,0,0-11.694,0,5.989,5.989,0,0,0,2.626,4.892,11.017,11.017,0,0,0-6.921,14.675.805.805,0,0,0,.716.478h19.09a.807.807,0,0,0,.716-.478,12.392,12.392,0,0,0,.836-4.175,11.437,11.437,0,0,0-7.994-10.5M43.3,47.63,41.627,49.3l-1.789-1.67,1.671-4.3ZM37.213,36.3a4.415,4.415,0,1,1,4.414,4.415A4.482,4.482,0,0,1,37.213,36.3M50.576,54.789h-3.1v-3.1a.716.716,0,1,0-1.432,0v3.1h-8.83v-3.1a.716.716,0,1,0-1.432,0v3.1H32.559a9.506,9.506,0,0,1,7.876-12.528L38.286,47.63a1.045,1.045,0,0,0,.121.834l2.625,2.626a.892.892,0,0,0,1.073,0l2.625-2.626a.7.7,0,0,0,.12-.834L42.7,42.261a9.5,9.5,0,0,1,7.875,12.528" transform="translate(5.623 5.586)" fill="#fff"/><path d="M19.342,41.188A5.991,5.991,0,0,0,21.967,36.3a5.846,5.846,0,1,0-11.693,0A5.993,5.993,0,0,0,12.9,41.188a11.017,11.017,0,0,0-6.92,14.675.805.805,0,0,0,.716.478H25.786a.8.8,0,0,0,.715-.478,12.363,12.363,0,0,0,.836-4.175,11.435,11.435,0,0,0-7.994-10.5M17.79,47.63,16.12,49.3l-1.67-1.67,1.67-4.3ZM11.7,36.3a4.415,4.415,0,1,1,4.415,4.415A4.567,4.567,0,0,1,11.7,36.3M25.188,54.789h-3.1v-3.1a.716.716,0,1,0-1.432,0v3.1h-8.83v-3.1a.716.716,0,1,0-1.432,0v3.1h-3.1a9.5,9.5,0,0,1,7.875-12.528L13.018,47.63a1.044,1.044,0,0,0,.118.834l2.625,2.626a.892.892,0,0,0,1.073,0l2.626-2.626a.708.708,0,0,0,.12-.834l-2.148-5.369a9.438,9.438,0,0,1,8.353,9.426,13.039,13.039,0,0,1-.6,3.1" transform="translate(0.943 5.586)" fill="#fff"/><path d="M37.315,17.644a.716.716,0,1,1-.716.716.715.715,0,0,1,.716-.716" transform="translate(6.714 3.237)" fill="#fff"/><path d="M17.15,17.644a.716.716,0,1,1-.715.716.717.717,0,0,1,.715-.716" transform="translate(3.015 3.237)" fill="#fff"/><path d="M9.069,17.742a4.534,4.534,0,1,0-4.534,4.535,4.611,4.611,0,0,0,4.534-4.535M4.535,20.725a2.983,2.983,0,1,1,0-5.966,2.953,2.953,0,0,1,2.982,2.982,3.031,3.031,0,0,1-2.982,2.984" transform="translate(0 2.423)" fill="#fff"/><path d="M50.27,23.9a2.983,2.983,0,1,0,2.982,2.982A2.954,2.954,0,0,0,50.27,23.9m0,4.534a1.551,1.551,0,1,1,1.552-1.552,1.579,1.579,0,0,1-1.552,1.552" transform="translate(8.675 4.384)" fill="#fff"/><path d="M50.376,0A1.073,1.073,0,1,1,49.3,1.073,1.073,1.073,0,0,1,50.376,0" transform="translate(9.045 0)" fill="#fff"/><path d="M49.67,13.208A1.073,1.073,0,1,1,48.6,14.281a1.073,1.073,0,0,1,1.073-1.073" transform="translate(8.916 2.423)" fill="#fff"/><path d="M26.986,45.37a1.073,1.073,0,1,1-1.075,1.073,1.073,1.073,0,0,1,1.075-1.073" transform="translate(4.754 8.323)" fill="#fff"/><path d="M49.67,36.6A1.073,1.073,0,1,1,48.6,37.672,1.073,1.073,0,0,1,49.67,36.6" transform="translate(8.916 6.714)" fill="#fff"/><path d="M9.341,2.521A1.073,1.073,0,1,1,8.268,3.594,1.074,1.074,0,0,1,9.341,2.521" transform="translate(1.517 0.462)" fill="#fff"/><path d="M9.341,25.2a1.074,1.074,0,1,1-1.073,1.073A1.074,1.074,0,0,1,9.341,25.2" transform="translate(1.517 4.624)" fill="#fff"/><path d="M3.09,37.809a1.073,1.073,0,1,1-1.073,1.073A1.073,1.073,0,0,1,3.09,37.809" transform="translate(0.37 6.936)" fill="#fff"/></g></g></svg>