<svg xmlns="http://www.w3.org/2000/svg" xmlns:xlink="http://www.w3.org/1999/xlink" width="135.551" height="125.955" viewBox="0 0 135.551 125.955"><defs><clipPath id="a"><rect width="73.209" height="113.742" fill="none"/></clipPath><clipPath id="b"><rect width="73.21" height="113.743" fill="none"/></clipPath><clipPath id="c"><path d="M25.643,2.27l9.165.024C31.042,2.286,27.272,4.768,24.4,9.749c-5.709,9.885-5.709,25.865,0,35.689,2.836,4.88,6.55,7.326,10.267,7.334L25.5,52.744c-3.717-.012-7.431-2.45-10.267-7.33-5.709-9.825-5.709-25.809,0-35.693C18.1,4.756,21.865,2.27,25.618,2.27h.024" transform="translate(-10.953 -2.27)" fill="none"/></clipPath><clipPath id="e"><path d="M15.385.028C20.446.04,25.5,3.367,29.361,10.014c7.773,13.377,7.773,35.138,0,48.6-3.915,6.779-9.048,10.167-14.174,10.15L6.023,68.74c5.13.016,10.263-3.367,14.174-10.146,7.781-13.465,7.781-35.227,0-48.608C16.338,3.343,11.285.016,6.22,0Z" transform="translate(-6.023)" fill="none"/></clipPath><clipPath id="g"><path d="M20.93,39.929a2.281,2.281,0,0,0-.229,2.305L6.265,17.391a2.286,2.286,0,0,1,.221-2.305Z" transform="translate(-6.045 -15.086)" fill="none"/></clipPath><clipPath id="i"><path d="M9.732,14.284a2.27,2.27,0,0,1,2.08.945L26.247,40.072a2.27,2.27,0,0,0-2.08-.945,7.091,7.091,0,0,0-5.584,3.227L4.14,17.511a7.126,7.126,0,0,1,5.576-3.227h.016" transform="translate(-4.14 -14.284)" fill="none"/></clipPath><clipPath id="k"><path d="M25.04,53.46c-.958,1.649-1.042,3.15-.418,4.228L4,22.2c-.628-1.082-.539-2.579.414-4.232Z" transform="translate(-3.598 -17.968)" fill="none"/></clipPath><clipPath id="m"><path d="M10.363,16.5c1.875,0,3.194.668,3.814,1.738L34.8,53.717c-.62-1.066-1.935-1.726-3.814-1.734a13.051,13.051,0,0,0-10.259,5.93L.1,22.421A13.081,13.081,0,0,1,10.339,16.5h.024" transform="translate(-0.1 -16.495)" fill="none"/></clipPath><clipPath id="o"><rect width="29.238" height="50.477" fill="none"/></clipPath><clipPath id="p"><rect width="22.47" height="50.421" fill="none"/></clipPath></defs><g transform="translate(-1173.449 -466)"><g transform="translate(1173.449 466)"><path d="M18.708,2.16,18.494,78.4,3.741,86.971l.214-76.238Z" transform="translate(11.106 6.412)" fill="#c5243c"/><path d="M0,78.4l14.844,8.569.218-76.238L.214,2.16Z" transform="translate(0 6.413)" fill="#e5354f"/><path d="M14.807,0,.054,8.573,14.9,17.143,29.651,8.569Z" transform="translate(0.16 0)" fill="#f75061"/><path d="M23.446,14.074,23.232,53.88,8.479,62.453l.214-39.806Z" transform="translate(25.175 41.785)" fill="#078aa5"/><path d="M19.8,22.647l-.214,39.806L4.738,53.883l.214-39.81Z" transform="translate(14.069 41.785)" fill="#18b6d6"/><path d="M34.393,20.487,19.64,29.06,4.792,20.487l14.753-8.573Z" transform="translate(14.228 35.372)" fill="#15d9fd"/><path d="M28.184,11.914,27.97,71.152,13.217,79.726l.214-59.238Z" transform="translate(39.242 35.373)" fill="#ffb700"/><path d="M24.539,20.487l-.214,59.238L9.476,71.152l.214-59.238Z" transform="translate(28.136 35.372)" fill="#ffc400"/><path d="M39.131,18.327,24.378,26.9,9.53,18.327,24.283,9.754Z" transform="translate(28.295 28.96)" fill="#ffde23"/><path d="M18.173,32.086l-.218,24.045,14.753-8.573.214-24.041Z" transform="translate(53.309 69.824)" fill="#bcc5df"/><path d="M14.215,47.558l14.844,8.573.218-24.045L14.429,23.517Z" transform="translate(42.204 69.824)" fill="#dde3f4"/><path d="M14.269,29.93,29.117,38.5,43.866,29.93,29.022,21.357Z" transform="translate(42.364 63.41)" fill="#e9ecf5"/></g><g transform="translate(1235.791 471.5)"><g transform="translate(0 0)" clip-path="url(#a)"><g transform="translate(-0.001 0)"><g clip-path="url(#b)"><path d="M25.643,2.27l9.165.028c-3.766-.012-7.539,2.47-10.412,7.447-5.709,9.889-5.7,25.869,0,35.693,2.836,4.88,6.546,7.322,10.263,7.334L25.5,52.745c-3.717-.008-7.431-2.45-10.267-7.334-5.709-9.821-5.709-25.8,0-35.689,2.873-4.977,6.642-7.463,10.408-7.451" transform="translate(-5.664 6.863)" fill="#bcc5df"/></g></g><g transform="translate(5.289 9.133)"><g transform="translate(0)" clip-path="url(#c)"><path d="M16.211,2.27l9.165.028A9.417,9.417,0,0,0,20.118,3.96l-9.165-.024A9.463,9.463,0,0,1,16.211,2.27" transform="translate(-1.522 -2.27)" fill="#bcc5df"/><path d="M21.692,2.683l9.165.028A16.888,16.888,0,0,0,25.7,8.5c-3.8,6.574-5.065,15.843-3.814,24.2l-9.165-.024c-1.251-8.36.02-17.629,3.814-24.207a16.926,16.926,0,0,1,5.154-5.785" transform="translate(-12.257 -1.021)" fill="#bcc5df"/><path d="M10.988,10.138l9.165.024a32.648,32.648,0,0,0,3.814,11.49c2.836,4.88,6.55,7.322,10.267,7.334l-9.165-.028c-3.717-.008-7.427-2.454-10.263-7.334a32.63,32.63,0,0,1-3.818-11.486" transform="translate(-10.52 21.516)" fill="#bcc5df"/></g></g><g transform="translate(-0.001 0)"><g clip-path="url(#b)"><path d="M6.22,0l9.165.024C20.446.04,25.5,3.367,29.361,10.014c7.773,13.377,7.773,35.138,0,48.608C25.447,65.4,20.313,68.78,15.188,68.764L6.023,68.74c5.126.016,10.263-3.371,14.174-10.146,7.777-13.465,7.777-35.227,0-48.608C16.334,3.339,11.281.012,6.22,0" transform="translate(13.787 0)" fill="#bcc5df"/></g></g><g transform="translate(19.809)"><g clip-path="url(#e)"><path d="M6.18,0l9.165.024c5.061.016,10.114,3.343,13.977,9.989a44.552,44.552,0,0,1,5.2,15.638l-9.165-.024a44.465,44.465,0,0,0-5.2-15.642C16.294,3.339,11.241.012,6.18,0" transform="translate(-5.983)" fill="#bcc5df"/><path d="M18.233,6.37,27.4,6.4c1.706,11.386-.028,24.01-5.2,32.966a23.042,23.042,0,0,1-7.016,7.877l-9.161-.024a23.055,23.055,0,0,0,7.012-7.881c5.17-8.956,6.9-21.58,5.2-32.966" transform="translate(1.139 19.257)" fill="#bcc5df"/><path d="M16.376,16.523l9.165.028a12.9,12.9,0,0,1-7.161,2.265l-9.165-.028a12.865,12.865,0,0,0,7.161-2.265" transform="translate(-9.215 49.952)" fill="#bcc5df"/></g></g><g transform="translate(-0.001 0)"><g clip-path="url(#b)"><path d="M20.7,42.234,6.266,17.391a2.279,2.279,0,0,1,.225-2.305L20.927,39.929a2.288,2.288,0,0,0-.225,2.305" transform="translate(27.959 45.608)" fill="#372b3d"/></g></g><g transform="translate(34.004 60.693)"><g transform="translate(0)" clip-path="url(#g)"><path d="M20.7,42.234,6.266,17.391a2.279,2.279,0,0,1,.225-2.305L20.927,39.929a2.288,2.288,0,0,0-.225,2.305" transform="translate(-6.046 -15.086)" fill="#372b3d"/></g></g><g transform="translate(-0.001 0)"><g clip-path="url(#b)"><path d="M11.808,15.229,26.243,40.072a2.262,2.262,0,0,0-2.076-.945,7.1,7.1,0,0,0-5.588,3.227L4.14,17.511a7.126,7.126,0,0,1,5.588-3.227,2.27,2.27,0,0,1,2.08.945" transform="translate(30.31 43.183)" fill="#372b3d"/></g></g><g transform="translate(34.446 57.467)"><g clip-path="url(#i)"><path d="M18.579,42.354,4.14,17.511a7.127,7.127,0,0,1,5.592-3.227,2.262,2.262,0,0,1,2.076.945L26.247,40.072a2.27,2.27,0,0,0-2.08-.945,7.115,7.115,0,0,0-5.588,3.227" transform="translate(-4.14 -14.284)" fill="#372b3d"/></g></g><g transform="translate(-0.001 0)"><g clip-path="url(#b)"><path d="M4.531,23.686a7.115,7.115,0,0,1,5.588-3.227c2.056,0,2.885,1.46,1.855,3.247a7.12,7.12,0,0,1-5.592,3.231c-2.056-.008-2.885-1.46-1.851-3.251" transform="translate(44.355 61.851)" fill="#372b3d"/><path d="M24.623,57.689,4,22.2c-.632-1.082-.539-2.579.414-4.232L25.038,53.456c-.953,1.654-1.042,3.15-.414,4.232" transform="translate(33.697 54.32)" fill="#e5354f"/></g></g><g transform="translate(37.292 72.288)"><g clip-path="url(#k)"><path d="M24.623,57.689,4,22.2c-.632-1.082-.539-2.579.414-4.232L25.038,53.456c-.953,1.654-1.042,3.15-.414,4.232" transform="translate(-3.596 -17.968)" fill="#e5354f"/></g></g><g transform="translate(-0.001 0)"><g clip-path="url(#b)"><path d="M14.177,18.229,34.8,53.717c-.62-1.066-1.935-1.726-3.81-1.734a13.065,13.065,0,0,0-10.263,5.926L.1,22.421A13.061,13.061,0,0,1,10.363,16.5c1.875,0,3.194.668,3.814,1.734" transform="translate(38.008 49.867)" fill="#e5354f"/></g></g><g transform="translate(38.107 66.362)"><g clip-path="url(#m)"><path d="M20.722,57.909.1,22.421A13.054,13.054,0,0,1,10.362,16.5c1.875,0,3.19.668,3.81,1.734L34.8,53.717c-.624-1.066-1.939-1.726-3.814-1.734a13.065,13.065,0,0,0-10.263,5.926" transform="translate(-0.095 -16.495)" fill="#e5354f"/></g></g><g transform="translate(-0.001 0)"><g clip-path="url(#b)"><path d="M.815,31.242a13.065,13.065,0,0,1,10.263-5.926c3.774.012,5.294,2.683,3.4,5.966A13.072,13.072,0,0,1,4.21,37.208c-3.77-.012-5.29-2.683-3.4-5.966" transform="translate(57.92 76.535)" fill="#d12842"/><g transform="translate(8.101 9.132)" opacity="0.5"><g transform="translate(0)"><g clip-path="url(#o)"><path d="M33.87,45.3c5.713-9.889,5.713-25.869,0-35.693S18.908-.168,13.195,9.721s-5.7,25.869,0,35.689,14.97,9.776,20.675-.113" transform="translate(-8.916 -2.269)" fill="#13b7fd"/></g></g></g><g transform="translate(14.869 9.132)" opacity="0.5"><g transform="translate(0)"><g clip-path="url(#p)"><path d="M27.1,9.6c5.709,9.825,5.709,25.8,0,35.693-2.623,4.538-5.986,7-9.418,7.395a20.325,20.325,0,0,0,2.486-3.46c5.709-9.889,5.7-25.869,0-35.693C17.083,8.224,12.959,5.8,8.916,6.261,14.568,0,22.164,1.1,27.1,9.6" transform="translate(-8.915 -2.269)" fill="#13b7fd"/></g></g></g><path d="M14.133,58.754C21.905,72.131,34.51,72.062,42.287,58.6s7.773-35.231,0-48.608S21.905-3.32,14.133,10.15s-7.777,35.227,0,48.6M38.545,52.16c-5.709,9.889-14.966,9.937-20.675.113s-5.709-25.8,0-35.689,14.966-9.941,20.675-.117,5.709,25.8,0,35.693" transform="translate(-8.299 0.001)" fill="#e9ecf5"/></g></g></g></g></g></svg>