<svg xmlns="http://www.w3.org/2000/svg" xmlns:xlink="http://www.w3.org/1999/xlink" width="59.185" height="58.679" viewBox="0 0 59.185 58.679"><defs><clipPath id="a"><rect width="59.185" height="58.679" transform="translate(0 0)" fill="#fff"/></clipPath></defs><g transform="translate(0 0)"><g clip-path="url(#a)"><path d="M28.33,54.848h2.521a.6.6,0,0,0,0-1.21H28.33a.605.605,0,0,0,0,1.21" fill="#fff"/><path d="M8.166,50.915a3.125,3.125,0,1,0,3.126,3.126,3.018,3.018,0,0,0-3.126-3.126m0,5.041a1.916,1.916,0,0,1,0-3.831,1.916,1.916,0,1,1,0,3.831" fill="#fff"/><path d="M51.722,50.31a3.831,3.831,0,1,0,3.831,3.831,3.9,3.9,0,0,0-3.831-3.831m0,6.251a2.521,2.521,0,1,1,2.521-2.52,2.5,2.5,0,0,1-2.521,2.52" fill="#fff"/><path d="M54.544,43.353a.907.907,0,1,1-.907.907.906.906,0,0,1,.907-.907" fill="#fff"/><path d="M45.067,51.621a.907.907,0,1,1-.907.907.907.907,0,0,1,.907-.907" fill="#fff"/><path d="M51.419,43.353a.907.907,0,1,1-.907.907.907.907,0,0,1,.907-.907" fill="#fff"/><path d="M14.82,49.705a.907.907,0,1,1-.907.908.907.907,0,0,1,.907-.908" fill="#fff"/><path d="M2.218,52.226a.907.907,0,1,1-.907.907.907.907,0,0,1,.907-.907" fill="#fff"/><path d="M57.67,55.956a.908.908,0,1,1-.907.907.907.907,0,0,1,.907-.907" fill="#fff"/><path d="M48.192,43.353a.907.907,0,1,1-.907.907.907.907,0,0,1,.907-.907" fill="#fff"/><path d="M54.746,7.461H4.537A4.518,4.518,0,0,0,0,12V44.059A4.518,4.518,0,0,0,4.537,48.6H25.2a4.17,4.17,0,0,1-4.134,3.831h-.2a3.125,3.125,0,1,0,0,6.251H38.413a3.125,3.125,0,0,0,0-6.251h-.3A4.244,4.244,0,0,1,33.977,48.6H54.645a4.518,4.518,0,0,0,4.537-4.538V12a4.372,4.372,0,0,0-4.436-4.537M4.537,8.671H54.746A3.356,3.356,0,0,1,58.073,12V39.724H1.31V12A3.271,3.271,0,0,1,4.537,8.671M38.211,53.537h.3a1.916,1.916,0,1,1,0,3.831H20.971a1.916,1.916,0,1,1,0-3.831h.2a5.324,5.324,0,0,0,5.344-5.042h6.351a5.257,5.257,0,0,0,5.344,5.042m16.535-6.251H4.537a3.358,3.358,0,0,1-3.328-3.327V40.933H57.973v3.026a3.272,3.272,0,0,1-3.227,3.327" fill="#fff"/><path d="M4.435,37.708H54.846a.651.651,0,0,0,.6-.6V11.9a.651.651,0,0,0-.6-.606H4.435a.651.651,0,0,0-.6.606V37.1a.651.651,0,0,0,.6.6M14.114,36.4A2.068,2.068,0,0,1,12.2,35.086h13.51A2.114,2.114,0,0,1,23.794,36.4ZM15.123,23.19a.605.605,0,0,1-1.21,0V19.359a.605.605,0,1,1,1.21,0ZM14.517,25.1a1.914,1.914,0,0,0,1.916-1.915h5.041A1.915,1.915,0,0,0,23.39,25.1a1.853,1.853,0,0,0,1.915-1.915h1.311a1.311,1.311,0,1,1,0,2.621H11.493a1.311,1.311,0,1,1,0-2.621H12.7A1.83,1.83,0,0,0,14.517,25.1M24,23.19a.605.605,0,0,1-1.21,0V19.359a.605.605,0,1,1,1.21,0Zm0,4.435a.651.651,0,0,0-.605.606v5.645H22.08V28.231a.605.605,0,1,0-1.21,0v5.645H19.558V28.231a.6.6,0,1,0-1.209,0v5.645h-1.31V28.231a.605.605,0,1,0-1.21,0v5.645H14.517V28.231a.6.6,0,1,0-1.209,0v5.645H12V26.92H25.911v6.956H24.6V28.231a.651.651,0,0,0-.6-.606M37.2,23.19a.65.65,0,0,0,.6-.606V21.273h5.041v1.311a.605.605,0,1,0,1.21,0V21.273h2.521v9.478h-12.5V21.273H36.6v1.311a.652.652,0,0,0,.606.606m5.645-3.126H37.807V18.753a2.521,2.521,0,1,1,5.041,0Zm-8.771,12h12.6v1.21h-12.6ZM35.791,36.4a1.767,1.767,0,0,1-1.714-1.714v-.2h12.6v.2A1.767,1.767,0,0,1,44.966,36.4ZM54.242,12.5v24H47.386a3.4,3.4,0,0,0,.5-1.714V20.669a.649.649,0,0,0-.6-.605H44.16V18.753a3.831,3.831,0,0,0-7.663,0v1.311H33.372a.651.651,0,0,0-.606.605V34.683a3.413,3.413,0,0,0,.5,1.714H26.314a3.642,3.642,0,0,0,.7-1.714V26.92a2.574,2.574,0,0,0,1.916-2.42,2.5,2.5,0,0,0-2.52-2.52H25.1V19.459a1.914,1.914,0,0,0-1.916-1.916,1.854,1.854,0,0,0-1.915,1.916V21.98H16.232V19.459a1.914,1.914,0,0,0-1.916-1.916A1.855,1.855,0,0,0,12.4,19.459V21.98H11.09a2.505,2.505,0,0,0-.605,4.94v7.763a2.966,2.966,0,0,0,.7,1.714H4.839V15.628H31.255a.605.605,0,0,0,0-1.21H5.041V12.5Z" fill="#fff"/><path d="M47.588,2.42a.907.907,0,1,1-.908.907.907.907,0,0,1,.908-.907" fill="#fff"/><path d="M12.3,3.73a.908.908,0,1,1-.907.907A.907.907,0,0,1,12.3,3.73" fill="#fff"/><path d="M30.549,2.42a.907.907,0,1,1-.907.907.907.907,0,0,1,.907-.907" fill="#fff"/><path d="M6.956,6.15a2.5,2.5,0,0,0,2.52-2.52,2.52,2.52,0,1,0-5.041,0A2.5,2.5,0,0,0,6.956,6.15m0-3.73A1.335,1.335,0,0,1,8.267,3.731a1.311,1.311,0,0,1-2.622,0A1.272,1.272,0,0,1,6.956,2.42" fill="#fff"/><path d="M54.544,6.856a3.4,3.4,0,0,0,3.429-3.429,3.428,3.428,0,0,0-6.857,0,3.4,3.4,0,0,0,3.428,3.429m0-5.747a2.238,2.238,0,0,1,2.219,2.218,2.219,2.219,0,1,1-4.437,0,2.237,2.237,0,0,1,2.218-2.218" fill="#fff"/></g></g></svg>