<svg xmlns="http://www.w3.org/2000/svg" xmlns:xlink="http://www.w3.org/1999/xlink" width="62.096" height="61.427" viewBox="0 0 62.096 61.427"><defs><clipPath id="a"><rect width="62.096" height="61.427" fill="#fff"/></clipPath></defs><g transform="translate(0 0)"><g transform="translate(0 0)" clip-path="url(#a)"><path d="M25.579,28.941l2.564,2.117,2.007,1.785a3.487,3.487,0,0,1-.334,5.573l-7.8,5.017a.727.727,0,0,0,.78,1.227l7.8-5.017a4.871,4.871,0,0,0,.558-7.8c-.446-.446-4.014-3.455-4.571-3.9a3.481,3.481,0,0,1,0-5.351l5.128-4.236V22.81a.669.669,0,0,0,1.338,0V16.678a.389.389,0,0,0-.113-.222.836.836,0,0,0-.446-.223H26.583a.669.669,0,1,0,0,1.338H30.6L25.8,21.584a4.7,4.7,0,0,0-1.784,3.679,4.16,4.16,0,0,0,1.56,3.679" transform="translate(2.292 1.716)" fill="#fff"/><path d="M21.367,29.172l-3.01,5.13a.768.768,0,0,0,.668,1.115h6.021A.706.706,0,0,0,25.6,34.3l-3.01-5.13a.615.615,0,0,0-.557-.334.541.541,0,0,0-.669.334m2.453,4.794H20.14l1.784-3.121Z" transform="translate(1.934 3.046)" fill="#fff"/><path d="M4.129,2.521a1,1,0,1,1-1,1,1,1,0,0,1,1-1" transform="translate(0.331 0.266)" fill="#fff"/><path d="M42.038.706a1,1,0,1,1-1,1,1,1,0,0,1,1-1" transform="translate(4.339 0.074)" fill="#fff"/><path d="M53.33,15.829a1,1,0,1,1-1,1,1,1,0,0,1,1-1" transform="translate(5.533 1.673)" fill="#fff"/><path d="M2.314,17.644a1,1,0,1,1-1,1,1,1,0,0,1,1-1" transform="translate(0.139 1.865)" fill="#fff"/><path d="M51.414,41.639a1,1,0,1,1-1,1,1,1,0,0,1,1-1" transform="translate(5.33 4.402)" fill="#fff"/><path d="M4.23,49.806a1,1,0,1,1-1,1,1,1,0,0,1,1-1" transform="translate(0.341 5.266)" fill="#fff"/><path d="M47.5,6.873H41.6a4.12,4.12,0,0,0-3.01-1.226H34.35a4.236,4.236,0,1,0-8.472,0H21.641A4.312,4.312,0,0,0,18.63,6.873H11.942a4.711,4.711,0,0,0-4.683,4.683V56.595a4.711,4.711,0,0,0,4.683,4.683H47.169a4.711,4.711,0,0,0,4.683-4.683V11.444A4.154,4.154,0,0,0,47.5,6.873m-25.53.112H26.88a.717.717,0,0,0,.668-.669V5.647a2.788,2.788,0,0,1,5.575,0v.669a.719.719,0,0,0,.669.669H38.7a2.787,2.787,0,1,1,0,5.574H21.974a2.787,2.787,0,0,1,0-5.574m28.764,49.5A3.236,3.236,0,0,1,47.5,59.716H12.276a3.236,3.236,0,0,1-3.233-3.233V11.444a3.236,3.236,0,0,1,3.233-3.233h5.8a4.159,4.159,0,0,0,3.9,5.686H38.7a4.191,4.191,0,0,0,3.9-5.686h5.017a3.236,3.236,0,0,1,3.233,3.233V56.483Z" transform="translate(0.768 0.149)" fill="#fff"/><path d="M45.378,17.644a.719.719,0,0,0-.668.669V53.208H13.94V25.337a.669.669,0,0,0-1.338,0V53.876a.72.72,0,0,0,.67.669H45.378a.719.719,0,0,0,.669-.669V18.313a.719.719,0,0,0-.669-.669" transform="translate(1.332 1.865)" fill="#fff"/><path d="M52.731,0a4.235,4.235,0,0,0-4.236,4.237,4.141,4.141,0,0,0,4.236,4.124,4.235,4.235,0,0,0,4.237-4.236A4.211,4.211,0,0,0,52.731,0m0,7.024a2.76,2.76,0,0,1-2.786-2.786,2.787,2.787,0,1,1,5.574,0,2.831,2.831,0,0,1-2.788,2.786" transform="translate(5.128 0)" fill="#fff"/><path d="M3.457,39.119a3.456,3.456,0,1,0,3.455,3.457,3.473,3.473,0,0,0-3.455-3.457m0,5.574a2.118,2.118,0,1,1,0-4.236,2.05,2.05,0,0,1,2.117,2.119,2.192,2.192,0,0,1-2.117,2.117" transform="translate(0 4.136)" fill="#fff"/><path d="M35.655,43.382A2.787,2.787,0,1,0,32.869,40.6a2.761,2.761,0,0,0,2.786,2.786m0-4.124a1.449,1.449,0,1,1-1.45,1.45,1.476,1.476,0,0,1,1.45-1.45" transform="translate(3.475 3.997)" fill="#fff"/><path d="M19.323,23.218a2.787,2.787,0,1,0-2.788-2.786,2.76,2.76,0,0,0,2.788,2.786m0-4.124a1.449,1.449,0,1,1-1.45,1.45,1.405,1.405,0,0,1,1.45-1.45" transform="translate(1.748 1.865)" fill="#fff"/><path d="M30.656,43.066a.835.835,0,0,0-1,0l-1.56,1.561L26.53,43.066a.71.71,0,0,0-1,1l1.561,1.56-1.561,1.56a.724.724,0,0,0,.447,1.227.58.58,0,0,0,.446-.222l1.561-1.561,1.56,1.561a.71.71,0,0,0,1-1.005l-1.56-1.56,1.56-1.56c.447-.335.447-.781.113-1" transform="translate(2.677 4.536)" fill="#fff"/><path d="M34.041,31.685h5.575a.669.669,0,0,0,0-1.338H34.041a.669.669,0,1,0,0,1.338" transform="translate(3.529 3.208)" fill="#fff"/><path d="M34.041,29.77h5.575a.669.669,0,0,0,0-1.338H34.041a.669.669,0,1,0,0,1.338" transform="translate(3.529 3.006)" fill="#fff"/><path d="M34.041,27.854h5.575a.669.669,0,0,0,0-1.338H34.041a.669.669,0,1,0,0,1.338" transform="translate(3.529 2.803)" fill="#fff"/><path d="M34.041,25.938h5.575a.669.669,0,0,0,0-1.338H34.041a.669.669,0,1,0,0,1.338" transform="translate(3.529 2.601)" fill="#fff"/><path d="M34.041,24.124h5.575a.669.669,0,0,0,0-1.338H34.041a.669.669,0,1,0,0,1.338" transform="translate(3.529 2.409)" fill="#fff"/></g></g></svg>