<svg xmlns="http://www.w3.org/2000/svg" xmlns:xlink="http://www.w3.org/1999/xlink" width="60.903" height="61.055" viewBox="0 0 60.903 61.055"><defs><clipPath id="a"><rect width="60.903" height="61.055" fill="#fff"/></clipPath></defs><g transform="translate(0 0)"><g transform="translate(0 0)" clip-path="url(#a)"><path d="M38.154,47.972l13.867-6.323a4.583,4.583,0,0,0,2-6.767,4.7,4.7,0,0,0-5.88-1.775L42.48,35.77a16.008,16.008,0,0,1-6.435,1.442,15.368,15.368,0,0,1-7.433-1.886A16.266,16.266,0,0,0,7.2,43.534L3.432,51.966a.7.7,0,0,0,.332.887l10.982,4.881a.7.7,0,0,0,.888-.332c.888-2.108,2.219-4.992,2.219-4.992l1-2.329a3.942,3.942,0,0,1,5.214-2,16.775,16.775,0,0,0,6.988,1.443,17.026,17.026,0,0,0,7.1-1.554M14.746,56.181,4.984,51.855l1.665-3.883L16.3,52.409Zm2.885-6.656-.777,1.664L7.2,46.753,8.424,44.09a14.8,14.8,0,0,1,19.524-7.545,18.088,18.088,0,0,0,7.988,2,17.813,17.813,0,0,0,7.1-1.554L48.8,34.438a3.326,3.326,0,0,1,4.438,4.326,3.06,3.06,0,0,1-1.664,1.664L37.71,46.753a15.349,15.349,0,0,1-12.868,0c-.776-.223-5.99.11-7.21,2.773" transform="translate(0.34 3.279)" fill="#fff"/><path d="M13.4,16.922l4.549,4.549a3.776,3.776,0,0,0-.777,2.44,4.12,4.12,0,0,0,4.215,4.105,4.191,4.191,0,0,0,4.215-4.105,3.482,3.482,0,0,0-.776-2.329l5.879-4.66a3.994,3.994,0,0,0,4.882,0l4.548,4.549a4.2,4.2,0,0,0,.443,5.325,4.158,4.158,0,1,0,5.88-5.88,4.208,4.208,0,0,0-5.324-.445l-4.549-4.548a4.2,4.2,0,0,0-.443-5.324,4.086,4.086,0,0,0-5.88,0,4.2,4.2,0,0,0-.443,5.324l-5.99,4.659a4,4,0,0,0-4.882,0L14.4,15.924a4.194,4.194,0,0,0-.443-5.324,4.157,4.157,0,0,0-5.879,5.879,4.062,4.062,0,0,0,5.324.443m32.171,5.1a2.809,2.809,0,1,1-1.886-.778,2.429,2.429,0,0,1,1.886.778M31.264,11.6a2.745,2.745,0,1,1,3.882,3.882A2.745,2.745,0,0,1,31.264,11.6M23.387,22.026a2.81,2.81,0,1,1-1.886-.778,2.43,2.43,0,0,1,1.886.778M9.077,11.6A2.745,2.745,0,0,1,12.96,15.48,2.745,2.745,0,0,1,9.077,11.6" transform="translate(0.685 0.938)" fill="#fff"/><path d="M49.484,12.061a4.216,4.216,0,1,0-4.215-4.216,4.213,4.213,0,0,0,4.215,4.216m0-6.989a2.773,2.773,0,1,1-2.773,2.773,2.746,2.746,0,0,1,2.773-2.773" transform="translate(4.541 0.364)" fill="#fff"/><path d="M5.8,33.172A2.773,2.773,0,1,0,3.024,30.4,2.818,2.818,0,0,0,5.8,33.172m0-4.1A1.442,1.442,0,1,1,4.355,30.51,1.549,1.549,0,0,1,5.8,29.067" transform="translate(0.303 2.771)" fill="#fff"/><path d="M33.765,2.521a1,1,0,1,1-1,1,1,1,0,0,1,1-1" transform="translate(3.287 0.253)" fill="#fff"/><path d="M52.014,17.038a1,1,0,1,1-1,1,1,1,0,0,1,1-1" transform="translate(5.117 1.709)" fill="#fff"/><path d="M33.765,28.33a1,1,0,1,1-1,1,1,1,0,0,1,1-1" transform="translate(3.287 2.841)" fill="#fff"/><path d="M14.206,27.121a1,1,0,1,1-1,1,1,1,0,0,1,1-1" transform="translate(1.325 2.72)" fill="#fff"/><path d="M16.726,0a1,1,0,1,1-1,1,1,1,0,0,1,1-1" transform="translate(1.578 0)" fill="#fff"/><path d="M3.519,18.248a1,1,0,1,1-1,1,1,1,0,0,1,1-1" transform="translate(0.253 1.83)" fill="#fff"/><path d="M1,39.018a1,1,0,1,1-1,1,1,1,0,0,1,1-1" transform="translate(0 3.913)" fill="#fff"/><path d="M36.559,49.1a.666.666,0,0,0,0,1.331H48.318a.666.666,0,0,0,0-1.331Z" transform="translate(3.6 4.925)" fill="#fff"/><path d="M57.466,51.62H28.291a.666.666,0,0,0,0,1.331H57.466a.666.666,0,1,0,0-1.331" transform="translate(2.771 5.177)" fill="#fff"/><path d="M52.562,47.246a.715.715,0,0,0-.666-.666H42.911a.665.665,0,1,0,0,1.33H51.9a.639.639,0,0,0,.666-.665" transform="translate(4.237 4.672)" fill="#fff"/></g></g></svg>