<svg xmlns="http://www.w3.org/2000/svg" width="83.353" height="88" viewBox="0 0 83.353 88"><defs><clipPath id="a"><path fill="#63bb7c" d="M0 0h83.353v88H0z"/></clipPath></defs><g fill="#63bb7c" clip-path="url(#a)"><path d="M23.387 18.591a1.949 1.949 0 1 1-1.949 1.949 1.95 1.95 0 0 1 1.949-1.949m-5.546 0a1.949 1.949 0 1 1-1.949 1.949 1.947 1.947 0 0 1 1.949-1.949m-5.698 0a1.949 1.949 0 1 1-1.95 1.949 1.95 1.95 0 0 1 1.95-1.949m2.849-7.497a3.71 3.71 0 0 0 3.748-3.748 3.748 3.748 0 1 0-7.495 0 3.71 3.71 0 0 0 3.747 3.747m0-5.546a1.984 1.984 0 0 1 1.949 1.947 1.95 1.95 0 1 1-3.9 0 1.89 1.89 0 0 1 1.949-1.947m52.022 4.648a5.056 5.056 0 0 0 5.1-5.1 5.1 5.1 0 1 0-10.2 0 5.056 5.056 0 0 0 5.1 5.1m0-8.395a3.33 3.33 0 0 1 3.3 3.3 3.3 3.3 0 0 1-6.6 0 3.327 3.327 0 0 1 3.3-3.3M1.349 13.042A1.349 1.349 0 1 1 0 14.392a1.35 1.35 0 0 1 1.349-1.35m26.236-9.295a1.349 1.349 0 1 1-1.349 1.35 1.35 1.35 0 0 1 1.349-1.35m26.234 1.8a1.349 1.349 0 1 1-1.349 1.349 1.35 1.35 0 0 1 1.349-1.349m-16.79 3.749a1.349 1.349 0 1 1-1.349 1.349 1.35 1.35 0 0 1 1.349-1.349m44.974 3.746a1.349 1.349 0 1 1-1.349 1.35 1.35 1.35 0 0 1 1.349-1.35"/><path d="M72.708 13.943H9.743a6.014 6.014 0 0 0-6 6v62.06a6.013 6.013 0 0 0 6 6h62.965a6.01 6.01 0 0 0 6-6V19.939a6.013 6.013 0 0 0-6-6M35.53 21.438h41.226v3.747H35.53Zm41.226-1.8H35.53v-3.746h37.178a4.08 4.08 0 0 1 4.049 3.747M9.743 15.892H33.73v9.445H5.546v-5.4a4.16 4.16 0 0 1 4.2-4.047m62.962 70.165H9.743a4.19 4.19 0 0 1-4.2-4.2v-54.72h71.213v54.868a4.03 4.03 0 0 1-4.048 4.052"/><path d="M70.31 32.677H12.143a.97.97 0 0 0-.9.9v45.878a.97.97 0 0 0 .9.9H70.31a.97.97 0 0 0 .9-.9V33.577a.97.97 0 0 0-.9-.9M22.036 78.556a2.85 2.85 0 0 1 0-5.7h38.379a2.85 2.85 0 0 1 0 5.7Zm47.224 0h-5.1a4.6 4.6 0 0 0 .9-2.849 4.67 4.67 0 0 0-4.647-4.647H22.036a4.67 4.67 0 0 0-4.647 4.647 4.6 4.6 0 0 0 .9 2.849h-5.1V34.631H69.41v43.925Z"/><path d="m28.034 50.072.75-.151V68.21a.97.97 0 0 0 .9.9h23.985a.97.97 0 0 0 .9-.9V49.92l.749.151a4.02 4.02 0 0 0 4.047-1.05 4.12 4.12 0 0 0-1.2-6.746l-10.491-4.947c-.452-.3-1.05 0-1.35.6a5.32 5.32 0 0 1-4.946 3.6 5.125 5.125 0 0 1-4.947-3.6c-.151-.6-.75-.75-1.35-.6l-10.043 4.8a4.37 4.37 0 0 0-2.4 3.747 4.29 4.29 0 0 0 5.4 4.2m-3.447-4.049a2.26 2.26 0 0 1 1.349-2.1l9.145-4.5a7.06 7.06 0 0 0 5.4 3.747v11.395a.9.9 0 0 0 1.8 0V43.174a7.07 7.07 0 0 0 5.4-3.747l9.745 4.5a2.35 2.35 0 0 1 1.349 2.1 2.313 2.313 0 0 1-2.849 2.249l-1.949-.45a.96.96 0 0 0-1.2.9v18.585H30.583V48.72a.96.96 0 0 0-1.2-.9l-1.95.45a2.23 2.23 0 0 1-2.847-2.249"/></g></svg>