<svg xmlns="http://www.w3.org/2000/svg" xmlns:xlink="http://www.w3.org/1999/xlink" width="94.208" height="95.32" viewBox="0 0 94.208 95.32"><defs><clipPath id="a"><rect width="94.208" height="95.32" fill="#599cb3"/></clipPath></defs><g transform="translate(0 0)" clip-path="url(#a)"><path d="M58.67,10.183a1.907,1.907,0,1,1-1.907,1.907,1.907,1.907,0,0,1,1.907-1.907" transform="translate(32.68 5.862)" fill="#599cb3"/><path d="M56.148,44.16a1.906,1.906,0,1,1-1.905,1.905,1.9,1.9,0,0,1,1.905-1.905" transform="translate(31.229 25.424)" fill="#599cb3"/><path d="M49.9,1.311a1.907,1.907,0,1,1-1.907,1.907A1.907,1.907,0,0,1,49.9,1.311" transform="translate(27.63 0.755)" fill="#599cb3"/><path d="M34.775,55.553a1.907,1.907,0,1,1-1.907,1.907,1.907,1.907,0,0,1,1.907-1.907" transform="translate(18.923 31.983)" fill="#599cb3"/><path d="M28.423,49.2a1.907,1.907,0,1,1-1.907,1.907A1.906,1.906,0,0,1,28.423,49.2" transform="translate(15.266 28.326)" fill="#599cb3"/><rect width="3.972" height="3.972" transform="translate(39.718 49.724)" fill="#599cb3"/><rect width="3.972" height="3.972" transform="translate(33.839 49.724)" fill="#599cb3"/><rect width="3.972" height="3.971" transform="translate(33.839 33.837)" fill="#599cb3"/><rect width="3.972" height="3.972" transform="translate(27.801 49.724)" fill="#599cb3"/><rect width="3.972" height="3.971" transform="translate(27.801 33.837)" fill="#599cb3"/><rect width="3.972" height="3.971" transform="translate(21.923 33.837)" fill="#599cb3"/><path d="M13.3,1.311a1.907,1.907,0,1,1-1.907,1.907A1.909,1.909,0,0,1,13.3,1.311" transform="translate(6.559 0.755)" fill="#599cb3"/><path d="M3.217,42.95A1.906,1.906,0,1,1,1.31,44.857,1.906,1.906,0,0,1,3.217,42.95" transform="translate(0.754 24.727)" fill="#599cb3"/><path d="M57.6,72.51a9.857,9.857,0,0,1-6.99-2.86L35.2,54.24a2.022,2.022,0,0,1,2.86-2.86L53.473,66.79A5.957,5.957,0,0,0,63.64,62.5a6.429,6.429,0,0,0-1.747-4.289L46.482,42.8a2.022,2.022,0,1,1,2.86-2.86L64.752,55.351a9.6,9.6,0,0,1,2.86,6.992,10.272,10.272,0,0,1-2.86,6.99A9.565,9.565,0,0,1,57.6,72.51" transform="translate(19.924 22.652)" fill="#599cb3"/><path d="M37.775,60.192a1.939,1.939,0,0,1-1.429-.635l-6.992-6.992a2.022,2.022,0,1,1,2.86-2.858l5.561,5.559.635-.635L50.326,42.715l-5.561-5.559a2.022,2.022,0,1,1,2.86-2.86l6.99,6.99a2.364,2.364,0,0,1,.635,1.429,1.931,1.931,0,0,1-.635,1.429L39.047,59.557a1.449,1.449,0,0,1-1.272.635" transform="translate(16.557 19.401)" fill="#599cb3"/><path d="M50.652,51.621a3.972,3.972,0,1,1-3.972,3.971,3.97,3.97,0,0,1,3.972-3.971" transform="translate(26.875 29.719)" fill="#599cb3"/><path d="M53.114,54.331H47.4a2.065,2.065,0,1,1,0-4.13h4.13l1.27-5.72a1.88,1.88,0,0,1,1.431-1.429,15.393,15.393,0,0,0,5.242-2.223,1.669,1.669,0,0,1,2.066,0l4.924,3.177,1.112-1.112L64.4,37.969a1.669,1.669,0,0,1,0-2.066,19.343,19.343,0,0,0,2.223-5.242,1.88,1.88,0,0,1,1.429-1.431l5.72-1.27V26.371L68.048,25.1a1.876,1.876,0,0,1-1.429-1.429A15.38,15.38,0,0,0,64.4,18.428a1.669,1.669,0,0,1,0-2.066l3.177-4.926-1.112-1.111L61.535,13.5a1.669,1.669,0,0,1-2.066,0,19.272,19.272,0,0,0-5.242-2.223A1.88,1.88,0,0,1,52.8,9.848L51.526,4.13H49.938L48.666,9.848a1.88,1.88,0,0,1-1.429,1.431A15.38,15.38,0,0,0,41.994,13.5a1.669,1.669,0,0,1-2.066,0L35,10.326l-3.495,3.495a2.022,2.022,0,0,1-2.858-2.86l4.606-4.607A2.157,2.157,0,0,1,35.8,6.037l5.242,3.336a19.023,19.023,0,0,1,4.13-1.749l1.272-6.037A1.886,1.886,0,0,1,48.349,0h4.765a1.887,1.887,0,0,1,1.907,1.587l1.272,6.037a19.056,19.056,0,0,1,4.13,1.749l5.242-3.336a2.183,2.183,0,0,1,2.542.317L71.7,9.691a2.155,2.155,0,0,1,.318,2.54l-3.336,5.242A18.954,18.954,0,0,1,70.432,21.6l6.037,1.272a1.887,1.887,0,0,1,1.588,1.907v4.765a1.887,1.887,0,0,1-1.588,1.907l-6.037,1.272a18.942,18.942,0,0,1-1.747,4.13L72.02,42.1a2.188,2.188,0,0,1-.318,2.543l-3.495,3.336a2.157,2.157,0,0,1-2.542.317l-5.242-3.336a19.051,19.051,0,0,1-4.13,1.747l-1.272,6.037a1.886,1.886,0,0,1-1.907,1.588" transform="translate(16.151 0)" fill="#599cb3"/><path d="M45.533,30.037a15.624,15.624,0,0,1-2.7-.317A2.01,2.01,0,0,1,44.1,25.907a4.886,4.886,0,0,0,1.588.159,5.4,5.4,0,0,0,0-10.8,5.063,5.063,0,0,0-4.767,3.019,2.025,2.025,0,1,1-3.654-1.747,9.377,9.377,0,0,1,17.793,4.13,9.525,9.525,0,0,1-9.532,9.372" transform="translate(21.351 6.501)" fill="#599cb3"/><path d="M29.486,56.247A21.924,21.924,0,1,1,51.251,34.483,21.968,21.968,0,0,1,29.486,56.247m0-39.716A17.951,17.951,0,1,0,47.438,34.483,17.933,17.933,0,0,0,29.486,16.531" transform="translate(4.353 7.139)" fill="#599cb3"/><path d="M14.63,34.563a2,2,0,0,1-.794-3.813l7.943-3.972a1.963,1.963,0,0,1,2.7.955L25.592,29.8l12.073-6.829a1.99,1.99,0,1,1,1.907,3.493L25.592,34.4A1.877,1.877,0,0,1,24,34.563a2.468,2.468,0,0,1-1.272-.953L21.62,31.385l-6.2,3.019a1.721,1.721,0,0,1-.794.159" transform="translate(7.293 13.096)" fill="#599cb3"/><path d="M35.277,66.356H3.98a2.1,2.1,0,0,1-2.064-2.064V60a2.106,2.106,0,0,1,.476-1.27A24.4,24.4,0,0,1,4.3,56.665,21.5,21.5,0,0,1,19.709,50.31,21.77,21.77,0,0,1,35.12,56.665c.635.635,1.27,1.429,1.907,2.066A1.808,1.808,0,0,1,37.5,60v4.291a2.373,2.373,0,0,1-2.225,2.064M6.046,62.385H33.371v-1.59c-.317-.476-.794-.794-1.111-1.27a17.641,17.641,0,0,0-25.1,0,9.145,9.145,0,0,0-1.112,1.27Z" transform="translate(1.103 28.965)" fill="#599cb3"/><path d="M33.839,72.632a31.124,31.124,0,0,1-5.4-.476A2.031,2.031,0,0,1,26.69,70.25,2.079,2.079,0,0,1,28.6,68.186h.317a24.129,24.129,0,0,0,4.767.317,28.481,28.481,0,0,0,12.551-2.86A30.415,30.415,0,0,0,60.686,51.187a12.067,12.067,0,0,0,.955-2.543,31.092,31.092,0,0,0,1.746-10.168,32.2,32.2,0,0,0-.793-6.831,30.8,30.8,0,0,0-4.132-9.691A29.654,29.654,0,0,0,45.277,10.993a29.128,29.128,0,0,0-11.6-2.384A29.67,29.67,0,0,0,16.522,62.623c.159,0,.159.159.318.159a2.022,2.022,0,0,1,.635,1.431,2.1,2.1,0,0,1-2.066,2.066,2.3,2.3,0,0,1-1.111-.318A34.106,34.106,0,0,1,0,38.318,33.791,33.791,0,0,1,47.024,7.337,33.38,33.38,0,0,1,61.958,19.73a33.794,33.794,0,0,1,4.767,10.962,31.654,31.654,0,0,1,.953,7.783,31.031,31.031,0,0,1-2.066,11.44c-.318.952-.794,1.907-1.111,2.86A34.118,34.118,0,0,1,48.137,69.137a28.839,28.839,0,0,1-14.3,3.495" transform="translate(0 2.67)" fill="#599cb3"/><path d="M16.807,60.028a9.586,9.586,0,0,1-6.99-2.858,9.972,9.972,0,0,1,0-13.98c.158-.159.158-.159.318-.318a9.481,9.481,0,0,1,6.672-2.543A9.588,9.588,0,0,1,23.8,43.19a9.848,9.848,0,0,1-6.988,16.838m0-15.726a5.511,5.511,0,0,0-3.972,1.588l-.161.158a5.953,5.953,0,0,0,0,8.262,5.756,5.756,0,0,0,8.262,0,6.516,6.516,0,0,0,1.749-4.448,5.074,5.074,0,0,0-1.749-3.813A5.762,5.762,0,0,0,16.807,44.3" transform="translate(4.005 23.218)" fill="#599cb3"/><path d="M56.448,46.052a6.037,6.037,0,1,1,6.037-6.038,6.14,6.14,0,0,1-6.037,6.038m0-7.945a2.066,2.066,0,1,0,2.066,2.067,2.221,2.221,0,0,0-2.066-2.067" transform="translate(29.022 19.561)" fill="#599cb3"/><path d="M8.2,13.98A7.053,7.053,0,0,1,1.209,6.99,7.054,7.054,0,0,1,8.2,0a7.053,7.053,0,0,1,6.99,6.99A7.052,7.052,0,0,1,8.2,13.98m0-10.007A3.018,3.018,0,1,0,11.218,6.99,2.921,2.921,0,0,0,8.2,3.972" transform="translate(0.696 0)" fill="#599cb3"/></g></svg>