<svg xmlns="http://www.w3.org/2000/svg" xmlns:xlink="http://www.w3.org/1999/xlink" width="96" height="94.538" viewBox="0 0 96 94.538"><defs><clipPath id="a"><rect width="96" height="94.538" fill="#599cb3"/></clipPath></defs><g transform="translate(0 0)"><g transform="translate(0 0)" clip-path="url(#a)"><path d="M58.716,10.687a1.953,1.953,0,1,1-1.953,1.953,1.952,1.952,0,0,1,1.953-1.953" transform="translate(34.846 6.561)" fill="#599cb3"/><path d="M57.506,38.413a1.953,1.953,0,1,1-1.953,1.953,1.953,1.953,0,0,1,1.953-1.953" transform="translate(34.103 23.581)" fill="#599cb3"/><path d="M42.381,1.916A1.953,1.953,0,1,1,40.43,3.869a1.952,1.952,0,0,1,1.951-1.953" transform="translate(24.819 1.177)" fill="#599cb3"/><path d="M41.071,52.327a1.953,1.953,0,1,1-1.953,1.953,1.952,1.952,0,0,1,1.953-1.953" transform="translate(24.014 32.123)" fill="#599cb3"/><path d="M12.4,10.7V8.265c-.978,0-1.3.487-1.3,1.138a1.255,1.255,0,0,0,.323.813.987.987,0,0,0,.978.489m.975,3.743v2.277q1.467,0,1.465-.976a1.244,1.244,0,0,0-.326-.813,3.411,3.411,0,0,0-1.139-.487m4.4-7.322-1.465,2.6s-.165-.163-.326-.326-.489-.161-.652-.326a2.323,2.323,0,0,0-.975-.324,10.412,10.412,0,0,0-1.138-.326v2.6l.649.165a5.777,5.777,0,0,1,1.79.65,3.532,3.532,0,0,1,1.3.813,2.945,2.945,0,0,1,.815,1.138,4.854,4.854,0,0,1,.323,1.628,7.055,7.055,0,0,1-.323,1.953,9.211,9.211,0,0,1-.978,1.3,6.49,6.49,0,0,1-1.465.813,5.829,5.829,0,0,1-1.79.326v2.277h-1.3V19.817a14.74,14.74,0,0,1-2.6-.487A6.04,6.04,0,0,1,7.359,18.19l1.464-2.766a2.033,2.033,0,0,0,.489.324,3.547,3.547,0,0,0,.813.489c.326.163.815.326,1.141.487a3.811,3.811,0,0,0,1.3.326v-2.6l-.975-.326a4.919,4.919,0,0,1-1.628-.65,2.943,2.943,0,0,1-1.139-.813,3.369,3.369,0,0,1-.647-.976,3.112,3.112,0,0,1-.166-1.3,5.936,5.936,0,0,1,.326-1.79,2.524,2.524,0,0,1,.976-1.3,3.132,3.132,0,0,1,1.464-.813c.491-.163,1.139-.326,1.79-.489V4.033h1.3V5.986a9.362,9.362,0,0,1,2.277.489,3.445,3.445,0,0,1,1.63.65" transform="translate(4.518 2.476)" fill="#599cb3"/><path d="M4.574,39.724a1.953,1.953,0,1,1-1.953,1.953,1.953,1.953,0,0,1,1.953-1.953" transform="translate(1.609 24.386)" fill="#599cb3"/><path d="M3.263,56.057A1.952,1.952,0,1,1,1.31,58.01a1.952,1.952,0,0,1,1.953-1.953" transform="translate(0.804 34.413)" fill="#599cb3"/><path d="M22.28,54.027a2.154,2.154,0,0,1-2.116-2.116V24.9a2.116,2.116,0,0,1,4.232,0v27.01a2.415,2.415,0,0,1-2.116,2.116" transform="translate(12.378 13.988)" fill="#599cb3"/><path d="M26.01,54.1a2.154,2.154,0,0,1-2.116-2.116V30.346a2.116,2.116,0,0,1,4.232,0V51.986A2.154,2.154,0,0,1,26.01,54.1" transform="translate(14.668 17.33)" fill="#599cb3"/><path d="M29.841,53.979a2.155,2.155,0,0,1-2.116-2.116v-19.2a2.116,2.116,0,0,1,4.232,0V52.027a2.247,2.247,0,0,1-2.116,1.953" transform="translate(17.02 18.754)" fill="#599cb3"/><path d="M33.572,56.108a2.154,2.154,0,0,1-2.116-2.116V28.935a2.116,2.116,0,0,1,4.232,0V53.992a2.154,2.154,0,0,1-2.116,2.116" transform="translate(19.31 16.464)" fill="#599cb3"/><path d="M78.687,80.238a2.267,2.267,0,0,1-1.628-.813L41.913,36.468,35.4,42.976a2.09,2.09,0,0,1-1.627.65,1.708,1.708,0,0,1-1.464-.813l-14.32-20.34a1.986,1.986,0,0,1,3.254-2.279L34.1,38.582l6.347-6.346a2.422,2.422,0,0,1,1.464-.65,1.708,1.708,0,0,1,1.464.813L80.313,76.982a2.093,2.093,0,0,1-.324,2.929,3.076,3.076,0,0,1-1.3.326" transform="translate(10.806 11.859)" fill="#599cb3"/><path d="M40.025,64.6a10.717,10.717,0,0,1-2.277-.163,23.332,23.332,0,0,1-6.672-1.465A22.641,22.641,0,0,1,24.4,59.234,25.361,25.361,0,0,1,14.316,39.057a24.937,24.937,0,0,1,5.369-15.622,25.2,25.2,0,0,1,20.177-9.924,25.5,25.5,0,0,1,4.558,50.6,20.2,20.2,0,0,1-4.395.489m0-47.025A21.554,21.554,0,0,0,18.546,39.057a21.658,21.658,0,0,0,8.463,17.085,23.03,23.03,0,0,0,5.531,3.092,22.811,22.811,0,0,0,5.532,1.3c.65,0,1.3.163,1.79.163a29,29,0,0,0,3.743-.326A21.989,21.989,0,0,0,56.3,53.049,21.6,21.6,0,0,0,40.025,17.578" transform="translate(8.788 8.295)" fill="#599cb3"/><path d="M46.1,94.538c-.163,0-.163-.163,0,0a1.991,1.991,0,0,1-1.953-2.116l.815-10.251a1.9,1.9,0,0,1,1.464-1.788,36.107,36.107,0,0,0,8.949-3.743,1.946,1.946,0,0,1,2.277.161L64,82.171l8.786-8.786-5.532-6.346a2.21,2.21,0,0,1-.163-2.44,33.528,33.528,0,0,0,3.743-8.951,1.907,1.907,0,0,1,1.791-1.464l8.3-.65V41.167l-8.462-.65a1.9,1.9,0,0,1-1.788-1.464A36,36,0,0,0,66.929,30.1a2.232,2.232,0,0,1,.163-2.44l5.369-6.346L64,12.53,57.654,17.9a2.21,2.21,0,0,1-2.44.163,35.888,35.888,0,0,0-8.947-3.743A1.908,1.908,0,0,1,44.8,12.53l-.65-8.3H31.784l-.65,8.3a1.908,1.908,0,0,1-1.465,1.79,35.863,35.863,0,0,0-8.947,3.743,1.975,1.975,0,0,1-2.442-.326,2.063,2.063,0,0,1,0-2.929c.161-.163.324-.163.324-.326a35.4,35.4,0,0,1,8.462-3.741l.65-8.788A2.245,2.245,0,0,1,29.668,0H46.1a1.881,1.881,0,0,1,1.953,1.953l.65,8.788a36.631,36.631,0,0,1,7.322,3.091l6.672-5.7a2.025,2.025,0,0,1,2.766.163L76.856,19.689a2.023,2.023,0,0,1,.161,2.766l-5.694,6.672a36.563,36.563,0,0,1,3.091,7.321L83.2,37.1a2.243,2.243,0,0,1,1.953,1.953V55.161A1.88,1.88,0,0,1,83.2,57.114l-8.786.65a36.577,36.577,0,0,1-3.091,7.322l5.694,6.672a2.023,2.023,0,0,1-.161,2.766L65.466,85.913a2.022,2.022,0,0,1-2.766.163l-6.672-5.694a36.632,36.632,0,0,1-7.322,3.091l-.65,8.786A2.072,2.072,0,0,1,46.1,94.538" transform="translate(10.847 0)" fill="#599cb3"/><path d="M40.059,84.225a1.98,1.98,0,0,1-1.953-1.953l-.65-8.786a36.582,36.582,0,0,1-7.322-3.092l-6.672,5.7a2.025,2.025,0,0,1-2.766-.163L9.3,64.536a2.023,2.023,0,0,1-.161-2.766l5.7-6.67a36.581,36.581,0,0,1-3.092-7.322l-8.786-.65a2.1,2.1,0,0,1-1.953-1.953V29.064a1.881,1.881,0,0,1,1.953-1.953l8.786-.65a36.461,36.461,0,0,1,3.743-8.623,2.086,2.086,0,0,1,2.766-.815,1.951,1.951,0,0,1,.813,2.766v.163A35.91,35.91,0,0,0,15.326,28.9a1.906,1.906,0,0,1-1.79,1.464l-8.3.487V43.221l8.3.65a1.906,1.906,0,0,1,1.79,1.464,35.91,35.91,0,0,0,3.743,8.951,1.949,1.949,0,0,1-.161,2.277l-5.371,6.346L22.324,71.7l6.344-5.369a1.968,1.968,0,0,1,2.28-.163A33.5,33.5,0,0,0,39.9,69.905,1.91,1.91,0,0,1,41.361,71.7l.813,10.25a1.9,1.9,0,0,1-1.79,2.116c-.163,0-.163.163-.326.163" transform="translate(0.619 10.313)" fill="#599cb3"/><path d="M16.508,30.835h-.489a15.138,15.138,0,0,1-14.8-15.621A15.747,15.747,0,0,1,5.769,4.639,14.57,14.57,0,0,1,16.834.409,15.2,15.2,0,0,1,27.411,5.126a15.8,15.8,0,0,1,4.23,10.9v.326a15.856,15.856,0,0,1-4.395,10.088,15.5,15.5,0,0,1-10.088,4.393Zm0-26.359a11.23,11.23,0,0,0-.324,22.456H17A11,11,0,0,0,27.574,16.354v-.163A10.536,10.536,0,0,0,24.48,8.218a12.028,12.028,0,0,0-7.808-3.58c.161-.163,0-.163-.165-.163" transform="translate(0.738 0.244)" fill="#599cb3"/><path d="M68.173,60.188H7.155a2.116,2.116,0,0,1,0-4.232H68.173a2.154,2.154,0,0,1,2.116,2.116,2.415,2.415,0,0,1-2.116,2.116" transform="translate(3.095 34.351)" fill="#599cb3"/><path d="M57.8,12.87a6.183,6.183,0,1,1,6.183-6.183A6.182,6.182,0,0,1,57.8,12.87m0-8.136A2.156,2.156,0,0,0,55.687,6.85a2.117,2.117,0,0,0,4.233,0A2.052,2.052,0,0,0,57.8,4.734" transform="translate(31.688 0.31)" fill="#599cb3"/><path d="M5.043,58.583a5.044,5.044,0,0,1,0-10.088,5.071,5.071,0,0,1,5.045,5.043,4.967,4.967,0,0,1-5.045,5.045m0-6.02a.976.976,0,1,0,0,1.951,1.049,1.049,0,0,0,.976-.976c.163-.649-.326-.975-.976-.975" transform="translate(0 29.771)" fill="#599cb3"/><path d="M59.175,61.4h-.326l-7.811-1.3a1.98,1.98,0,0,1,.65-3.906l5.534.976.163-5.206a1.978,1.978,0,0,1,1.953-1.953H59.5a2.018,2.018,0,0,1,1.953,2.116l-.326,7.485a1.7,1.7,0,0,1-.813,1.464,1.892,1.892,0,0,1-1.138.326" transform="translate(30.318 30.699)" fill="#599cb3"/></g></g></svg>