<svg xmlns="http://www.w3.org/2000/svg" xmlns:xlink="http://www.w3.org/1999/xlink" width="58.945" height="57.038" viewBox="0 0 58.945 57.038"><defs><clipPath id="a"><rect width="58.945" height="57.038" transform="translate(0 0)" fill="#599cb3"/></clipPath></defs><g transform="translate(0 0)"><g clip-path="url(#a)"><path d="M16.971,21.69h25.1a.6.6,0,1,0,0-1.2h-25.1a.6.6,0,1,0,0,1.2" fill="#599cb3"/><path d="M16.971,24.2h25.1a.6.6,0,1,0,0-1.2h-25.1a.6.6,0,1,0,0,1.2" fill="#599cb3"/><path d="M16.971,16.669h25.1a.6.6,0,1,0,0-1.2h-25.1a.6.6,0,1,0,0,1.2" fill="#599cb3"/><path d="M16.971,19.18h25.1a.6.6,0,1,0,0-1.2h-25.1a.6.6,0,1,0,0,1.2" fill="#599cb3"/><path d="M16.971,26.711h25.1a.6.6,0,1,0,0-1.2h-25.1a.6.6,0,1,0,0,1.2" fill="#599cb3"/><path d="M16.971,29.322h25.1a.6.6,0,1,0,0-1.2h-25.1a.6.6,0,1,0,0,1.2" fill="#599cb3"/><path d="M35.146,30.427H16.97a.6.6,0,0,0,0,1.2H35.146a.648.648,0,0,0,.6-.6.579.579,0,0,0-.6-.6" fill="#599cb3"/><path d="M16.971,34.142H28.319a.648.648,0,0,0,.6-.6c0-.3-.3-.7-.6-.7H16.971a.649.649,0,0,0-.6.6c0,.3.3.7.6.7" fill="#599cb3"/><path d="M30.126,35.247H16.971a.6.6,0,1,0,0,1.2H30.126a.648.648,0,0,0,.6-.6.58.58,0,0,0-.6-.6" fill="#599cb3"/><path d="M25.808,37.657H16.971a.6.6,0,0,0,0,1.2h8.837a.6.6,0,1,0,0-1.2" fill="#599cb3"/><path d="M2.812,40.167A2.807,2.807,0,0,0,0,42.979,2.874,2.874,0,0,0,2.812,45.79a2.873,2.873,0,0,0,2.811-2.811,2.806,2.806,0,0,0-2.811-2.812m0,4.318a1.607,1.607,0,1,1,0-3.213,1.607,1.607,0,0,1,0,3.213" fill="#599cb3"/><path d="M55.531,0a3.386,3.386,0,0,0-3.414,3.414,3.414,3.414,0,1,0,6.828,0A3.386,3.386,0,0,0,55.531,0m0,5.623a2.228,2.228,0,0,1-2.209-2.209,2.21,2.21,0,1,1,4.419,0,2.229,2.229,0,0,1-2.21,2.209" fill="#599cb3"/><path d="M56.234,8.134a.9.9,0,1,1-.9.9.9.9,0,0,1,.9-.9" fill="#599cb3"/><path d="M49.908,55.23a.9.9,0,1,1-.9.9.9.9,0,0,1,.9-.9" fill="#599cb3"/><path d="M8.536.6a.9.9,0,1,1-.9.9.9.9,0,0,1,.9-.9" fill="#599cb3"/><path d="M2.812,15.665a.9.9,0,1,1-.9.9.9.9,0,0,1,.9-.9" fill="#599cb3"/><path d="M5.322,34.543a.9.9,0,1,1-.9.9.9.9,0,0,1,.9-.9" fill="#599cb3"/><path d="M55.934,34.845H51.616V8.033l-.1-.1a.1.1,0,0,0-.1-.1C43.381-.2,43.883.3,43.783.2s-.1,0-.1-.1H13.256a.648.648,0,0,0-.6.6V6.326H8.837a.647.647,0,0,0-.6.6V56.435a.647.647,0,0,0,.6.6H43.482a.647.647,0,0,0,.6-.6V52.82h6.929a.649.649,0,0,0,.6-.6V45.388l.7.5a.485.485,0,0,0,.7,0,.621.621,0,0,0,.2-.7l-1.808-5.624,4.821-3.515a.618.618,0,0,0,.2-.7.539.539,0,0,0-.5-.5M44.084,2.209l5.423,5.422H44.084Zm-1.2,53.623H9.44V7.631h3.113V52.217a.648.648,0,0,0,.6.6H42.779v3.012ZM13.858,49.506H50.41v2.008H13.858ZM50.411,48.3H13.858V1.3H42.879V8.234a.648.648,0,0,0,.6.6h6.929V34.845h-.4L48.2,29.221a.551.551,0,0,0-.6-.4.678.678,0,0,0-.6.4l-1.908,5.624H39.164a.681.681,0,0,0-.6.4.62.62,0,0,0,.2.7l4.821,3.515-1.808,5.624a.62.62,0,0,0,.2.7.485.485,0,0,0,.7,0L47.5,42.276l2.912,2.109Zm-.1-9.54a.621.621,0,0,0-.2.7l1.4,4.217L47.9,41.071a.485.485,0,0,0-.7,0l-3.614,2.61,1.4-4.217a.623.623,0,0,0-.2-.7L41.172,36.15h4.519a.676.676,0,0,0,.6-.4L47.7,31.531l1.4,4.217a.552.552,0,0,0,.6.4h4.518Z" fill="#599cb3"/></g></g></svg>