<svg xmlns="http://www.w3.org/2000/svg" width="501.389" height="523" viewBox="0 0 501.389 523">
  <g id="Grupo_1210296" data-name="Grupo 1210296" transform="translate(-1685 8471)">
    <path id="Trazado_1350158" data-name="Trazado 1350158" d="M0,0H485a16,16,0,0,1,16,16v88a16,16,0,0,1-16,16H16A16,16,0,0,1,0,104Z" transform="translate(1685 -8471)" fill="#d7f9e1"/>
    <path id="Trazado_1350143" data-name="Trazado 1350143" d="M179.658,188.439h98.149V90.027a107.586,107.586,0,0,0-98.149,98.412" transform="translate(1908.581 -8538.987)" fill="#7cea9c"/>
    <path id="Trazado_1350144" data-name="Trazado 1350144" d="M277.881,188.512V99.92a97.8,97.8,0,0,0-88.33,88.592Z" transform="translate(1908.508 -8539.06)" fill="#fff"/>
    <path id="Trazado_1350159" data-name="Trazado 1350159" d="M7.594,11.977H2.82V17H1.32V5.625H8.367V6.859H2.82V10.75H7.594Zm1.8.719a4.993,4.993,0,0,1,.488-2.234A3.643,3.643,0,0,1,11.238,8.93a3.7,3.7,0,0,1,1.988-.539,3.565,3.565,0,0,1,2.793,1.2,4.6,4.6,0,0,1,1.066,3.18v.1a5.036,5.036,0,0,1-.473,2.215,3.589,3.589,0,0,1-1.352,1.527,3.743,3.743,0,0,1-2.02.547,3.556,3.556,0,0,1-2.785-1.2A4.575,4.575,0,0,1,9.391,12.8Zm1.453.172a3.616,3.616,0,0,0,.652,2.258,2.211,2.211,0,0,0,3.5-.012,3.955,3.955,0,0,0,.648-2.418,3.61,3.61,0,0,0-.66-2.254,2.1,2.1,0,0,0-1.754-.863,2.075,2.075,0,0,0-1.727.852A3.925,3.925,0,0,0,10.844,12.867ZM22.984,9.844a4.331,4.331,0,0,0-.711-.055A1.9,1.9,0,0,0,20.344,11v6H18.9V8.547H20.3l.023.977a2.251,2.251,0,0,1,2.016-1.133,1.477,1.477,0,0,1,.641.109ZM26.664,6.5V8.547h1.578V9.664H26.664v5.242a1.171,1.171,0,0,0,.211.762.888.888,0,0,0,.719.254,3.5,3.5,0,0,0,.688-.094V17a4.19,4.19,0,0,1-1.109.156,1.8,1.8,0,0,1-1.461-.586,2.517,2.517,0,0,1-.492-1.664V9.664H23.68V8.547h1.539V6.5ZM35.148,17a3.036,3.036,0,0,1-.2-.891,3.225,3.225,0,0,1-2.406,1.047,2.984,2.984,0,0,1-2.051-.707,2.287,2.287,0,0,1-.8-1.793,2.39,2.39,0,0,1,1-2.051,4.733,4.733,0,0,1,2.824-.73h1.406v-.664A1.623,1.623,0,0,0,34.469,10a1.821,1.821,0,0,0-1.336-.449,2.107,2.107,0,0,0-1.3.391,1.151,1.151,0,0,0-.523.945H29.859a2,2,0,0,1,.449-1.223,3.066,3.066,0,0,1,1.219-.934,4.1,4.1,0,0,1,1.691-.344,3.342,3.342,0,0,1,2.289.73,2.635,2.635,0,0,1,.859,2.012v3.891a4.757,4.757,0,0,0,.3,1.852V17Zm-2.4-1.1a2.54,2.54,0,0,0,1.289-.352,2.127,2.127,0,0,0,.883-.914V12.9H33.789q-2.656,0-2.656,1.555a1.316,1.316,0,0,0,.453,1.063A1.742,1.742,0,0,0,32.75,15.9ZM40.2,17H38.758V5H40.2Zm5.82.156a3.693,3.693,0,0,1-2.8-1.129,4.19,4.19,0,0,1-1.078-3.02v-.266a5.073,5.073,0,0,1,.48-2.246,3.748,3.748,0,0,1,1.344-1.547,3.378,3.378,0,0,1,1.871-.559,3.166,3.166,0,0,1,2.563,1.086,4.7,4.7,0,0,1,.914,3.109v.6H43.594a3,3,0,0,0,.73,2.02,2.3,2.3,0,0,0,1.777.77,2.517,2.517,0,0,0,1.3-.312,3.259,3.259,0,0,0,.93-.828l.883.688A3.55,3.55,0,0,1,46.023,17.156Zm-.18-7.578a1.928,1.928,0,0,0-1.469.637A3.1,3.1,0,0,0,43.641,12h4.234v-.109a2.753,2.753,0,0,0-.594-1.707A1.815,1.815,0,0,0,45.844,9.578Zm6.508,6.242H57.3V17H50.586V15.938l4.664-6.2H50.656v-1.2h6.406V9.57ZM64.141,17a3.036,3.036,0,0,1-.2-.891,3.225,3.225,0,0,1-2.406,1.047,2.984,2.984,0,0,1-2.051-.707,2.287,2.287,0,0,1-.8-1.793,2.39,2.39,0,0,1,1-2.051,4.733,4.733,0,0,1,2.824-.73h1.406v-.664A1.623,1.623,0,0,0,63.461,10a1.821,1.821,0,0,0-1.336-.449,2.107,2.107,0,0,0-1.3.391,1.151,1.151,0,0,0-.523.945H58.852A2,2,0,0,1,59.3,9.668a3.066,3.066,0,0,1,1.219-.934,4.1,4.1,0,0,1,1.691-.344,3.342,3.342,0,0,1,2.289.73,2.635,2.635,0,0,1,.859,2.012v3.891a4.757,4.757,0,0,0,.3,1.852V17Zm-2.4-1.1a2.54,2.54,0,0,0,1.289-.352,2.127,2.127,0,0,0,.883-.914V12.9H62.781q-2.656,0-2.656,1.555a1.316,1.316,0,0,0,.453,1.063A1.742,1.742,0,0,0,61.742,15.9Zm10.8-1.141a1.064,1.064,0,0,0-.441-.91,4.249,4.249,0,0,0-1.539-.559,7.277,7.277,0,0,1-1.742-.562,2.479,2.479,0,0,1-.953-.781,1.869,1.869,0,0,1-.309-1.078,2.193,2.193,0,0,1,.879-1.758,3.432,3.432,0,0,1,2.246-.719,3.532,3.532,0,0,1,2.332.742,2.357,2.357,0,0,1,.895,1.9H72.461a1.3,1.3,0,0,0-.5-1.023,1.888,1.888,0,0,0-1.27-.43,1.976,1.976,0,0,0-1.234.344,1.082,1.082,0,0,0-.445.9.877.877,0,0,0,.414.789,5.1,5.1,0,0,0,1.5.508,7.8,7.8,0,0,1,1.754.578,2.558,2.558,0,0,1,1,.809,1.988,1.988,0,0,1,.324,1.152,2.163,2.163,0,0,1-.906,1.816,3.8,3.8,0,0,1-2.352.684,4.257,4.257,0,0,1-1.8-.359,2.922,2.922,0,0,1-1.223-1,2.42,2.42,0,0,1-.441-1.395h1.445a1.5,1.5,0,0,0,.582,1.152,2.258,2.258,0,0,0,1.434.426,2.331,2.331,0,0,0,1.316-.332A1.02,1.02,0,0,0,72.547,14.758ZM83.977,10.9h3.172v1.367H83.977v3.594H82.523V12.266H79.352V10.9h3.172V7.578h1.453Zm8.508,1.8a4.993,4.993,0,0,1,.488-2.234A3.643,3.643,0,0,1,94.332,8.93a3.7,3.7,0,0,1,1.988-.539,3.565,3.565,0,0,1,2.793,1.2,4.6,4.6,0,0,1,1.066,3.18v.1a5.036,5.036,0,0,1-.473,2.215,3.589,3.589,0,0,1-1.352,1.527,3.743,3.743,0,0,1-2.02.547,3.556,3.556,0,0,1-2.785-1.2A4.575,4.575,0,0,1,92.484,12.8Zm1.453.172a3.616,3.616,0,0,0,.652,2.258,2.211,2.211,0,0,0,3.5-.012,3.955,3.955,0,0,0,.648-2.418,3.61,3.61,0,0,0-.66-2.254,2.1,2.1,0,0,0-1.754-.863,2.075,2.075,0,0,0-1.727.852A3.925,3.925,0,0,0,93.938,12.867Zm15.2,0a5.062,5.062,0,0,1-.883,3.109,2.829,2.829,0,0,1-2.391,1.18,3.1,3.1,0,0,1-2.422-.977v4.07h-1.445V8.547h1.32l.07.938a2.977,2.977,0,0,1,2.453-1.094,2.882,2.882,0,0,1,2.41,1.148,5.117,5.117,0,0,1,.887,3.2Zm-1.445-.164a3.735,3.735,0,0,0-.609-2.258,1.963,1.963,0,0,0-1.672-.828,2.125,2.125,0,0,0-1.969,1.164V14.82a2.129,2.129,0,0,0,1.984,1.156,1.954,1.954,0,0,0,1.652-.824A4.077,4.077,0,0,0,107.688,12.7Zm2.9-.008a4.993,4.993,0,0,1,.488-2.234,3.643,3.643,0,0,1,1.359-1.531,3.7,3.7,0,0,1,1.988-.539,3.565,3.565,0,0,1,2.793,1.2,4.6,4.6,0,0,1,1.066,3.18v.1a5.036,5.036,0,0,1-.473,2.215,3.589,3.589,0,0,1-1.352,1.527,3.743,3.743,0,0,1-2.02.547,3.556,3.556,0,0,1-2.785-1.2,4.575,4.575,0,0,1-1.066-3.164Zm1.453.172a3.616,3.616,0,0,0,.652,2.258,2.211,2.211,0,0,0,3.5-.012,3.955,3.955,0,0,0,.648-2.418,3.61,3.61,0,0,0-.66-2.254,2.1,2.1,0,0,0-1.754-.863,2.075,2.075,0,0,0-1.727.852A3.925,3.925,0,0,0,112.039,12.867ZM124.18,9.844a4.331,4.331,0,0,0-.711-.055A1.9,1.9,0,0,0,121.539,11v6h-1.445V8.547H121.5l.023.977a2.251,2.251,0,0,1,2.016-1.133,1.477,1.477,0,0,1,.641.109Zm3.68-3.344V8.547h1.578V9.664h-1.578v5.242a1.171,1.171,0,0,0,.211.762.888.888,0,0,0,.719.254,3.5,3.5,0,0,0,.688-.094V17a4.19,4.19,0,0,1-1.109.156,1.8,1.8,0,0,1-1.461-.586,2.517,2.517,0,0,1-.492-1.664V9.664h-1.539V8.547h1.539V6.5Zm8.484,9.664a3.07,3.07,0,0,1-2.477.992,2.628,2.628,0,0,1-2.059-.785,3.4,3.4,0,0,1-.715-2.324v-5.5h1.445v5.461q0,1.922,1.563,1.922a2.163,2.163,0,0,0,2.2-1.234V8.547h1.445V17h-1.375Zm4.969-7.617.047,1.063a3.08,3.08,0,0,1,2.531-1.219q2.68,0,2.7,3.023V17h-1.445V11.406a1.946,1.946,0,0,0-.418-1.352,1.675,1.675,0,0,0-1.277-.437,2.086,2.086,0,0,0-1.234.375,2.546,2.546,0,0,0-.828.984V17h-1.445V8.547ZM150.344,17H148.9V8.547h1.445ZM148.781,6.3A.863.863,0,0,1,149,5.711a.807.807,0,0,1,.637-.242.819.819,0,0,1,.641.242.854.854,0,0,1,.219.594.826.826,0,0,1-.219.586.834.834,0,0,1-.641.234A.821.821,0,0,1,149,6.891.834.834,0,0,1,148.781,6.3Zm3.523,6.4a4.952,4.952,0,0,1,.922-3.129,3.137,3.137,0,0,1,4.766-.168V5h1.445V17h-1.328l-.07-.906a2.943,2.943,0,0,1-2.414,1.063,2.887,2.887,0,0,1-2.395-1.2,5.008,5.008,0,0,1-.926-3.141Zm1.445.164a3.749,3.749,0,0,0,.594,2.25,1.919,1.919,0,0,0,1.641.813,2.108,2.108,0,0,0,2.008-1.234V10.813A2.125,2.125,0,0,0,156,9.617a1.929,1.929,0,0,0-1.656.82A4.128,4.128,0,0,0,153.75,12.867ZM166.9,17a3.036,3.036,0,0,1-.2-.891,3.225,3.225,0,0,1-2.406,1.047,2.984,2.984,0,0,1-2.051-.707,2.287,2.287,0,0,1-.8-1.793,2.39,2.39,0,0,1,1-2.051,4.733,4.733,0,0,1,2.824-.73h1.406v-.664A1.623,1.623,0,0,0,166.219,10a1.821,1.821,0,0,0-1.336-.449,2.107,2.107,0,0,0-1.3.391,1.151,1.151,0,0,0-.523.945h-1.453a2,2,0,0,1,.449-1.223,3.066,3.066,0,0,1,1.219-.934,4.1,4.1,0,0,1,1.691-.344,3.342,3.342,0,0,1,2.289.73,2.635,2.635,0,0,1,.859,2.012v3.891a4.757,4.757,0,0,0,.3,1.852V17Zm-2.4-1.1a2.54,2.54,0,0,0,1.289-.352,2.127,2.127,0,0,0,.883-.914V12.9h-1.133q-2.656,0-2.656,1.555a1.316,1.316,0,0,0,.453,1.063A1.742,1.742,0,0,0,164.5,15.9Zm5.531-3.2a4.952,4.952,0,0,1,.922-3.129,3.137,3.137,0,0,1,4.766-.168V5h1.445V17h-1.328l-.07-.906a2.943,2.943,0,0,1-2.414,1.063,2.887,2.887,0,0,1-2.395-1.2,5.008,5.008,0,0,1-.926-3.141Zm1.445.164a3.749,3.749,0,0,0,.594,2.25,1.919,1.919,0,0,0,1.641.813,2.108,2.108,0,0,0,2.008-1.234V10.813a2.125,2.125,0,0,0-1.992-1.2,1.929,1.929,0,0,0-1.656.82A4.128,4.128,0,0,0,171.477,12.867Zm11.438,4.289a3.693,3.693,0,0,1-2.8-1.129,4.19,4.19,0,0,1-1.078-3.02v-.266a5.073,5.073,0,0,1,.48-2.246,3.748,3.748,0,0,1,1.344-1.547,3.378,3.378,0,0,1,1.871-.559A3.166,3.166,0,0,1,185.3,9.477a4.7,4.7,0,0,1,.914,3.109v.6h-5.727a3,3,0,0,0,.73,2.02,2.3,2.3,0,0,0,1.777.77,2.517,2.517,0,0,0,1.3-.312,3.258,3.258,0,0,0,.93-.828l.883.688A3.55,3.55,0,0,1,182.914,17.156Zm-.18-7.578a1.928,1.928,0,0,0-1.469.637A3.1,3.1,0,0,0,180.531,12h4.234v-.109a2.753,2.753,0,0,0-.594-1.707A1.815,1.815,0,0,0,182.734,9.578Zm10.07,5.18a1.064,1.064,0,0,0-.441-.91,4.249,4.249,0,0,0-1.539-.559,7.277,7.277,0,0,1-1.742-.562,2.479,2.479,0,0,1-.953-.781,1.869,1.869,0,0,1-.309-1.078,2.193,2.193,0,0,1,.879-1.758,3.432,3.432,0,0,1,2.246-.719,3.532,3.532,0,0,1,2.332.742,2.357,2.357,0,0,1,.895,1.9h-1.453a1.3,1.3,0,0,0-.5-1.023,1.888,1.888,0,0,0-1.27-.43,1.976,1.976,0,0,0-1.234.344,1.082,1.082,0,0,0-.445.9.877.877,0,0,0,.414.789,5.1,5.1,0,0,0,1.5.508,7.8,7.8,0,0,1,1.754.578,2.558,2.558,0,0,1,1,.809,1.988,1.988,0,0,1,.324,1.152,2.163,2.163,0,0,1-.906,1.816,3.8,3.8,0,0,1-2.352.684,4.257,4.257,0,0,1-1.8-.359,2.922,2.922,0,0,1-1.223-1,2.42,2.42,0,0,1-.441-1.395h1.445a1.5,1.5,0,0,0,.582,1.152,2.258,2.258,0,0,0,1.434.426,2.331,2.331,0,0,0,1.316-.332A1.02,1.02,0,0,0,192.8,14.758Zm13.9-4.117h-6.516V9.383H206.7Zm0,3.242h-6.516v-1.25H206.7Zm9.523,2.094a2.082,2.082,0,0,0,1.352-.469,1.649,1.649,0,0,0,.641-1.172h1.367a2.621,2.621,0,0,1-.5,1.383,3.293,3.293,0,0,1-1.23,1.047,3.55,3.55,0,0,1-1.629.391A3.482,3.482,0,0,1,213.48,16a4.59,4.59,0,0,1-1.02-3.152v-.242a5.089,5.089,0,0,1,.453-2.2,3.451,3.451,0,0,1,1.3-1.492,3.7,3.7,0,0,1,2-.531,3.39,3.39,0,0,1,2.363.852,3.043,3.043,0,0,1,1,2.211h-1.367a1.992,1.992,0,0,0-.621-1.348,1.932,1.932,0,0,0-1.379-.527,2.023,2.023,0,0,0-1.707.793,3.724,3.724,0,0,0-.605,2.293v.273a3.65,3.65,0,0,0,.6,2.25A2.033,2.033,0,0,0,216.227,15.977Zm9.07-6.133a4.331,4.331,0,0,0-.711-.055A1.9,1.9,0,0,0,222.656,11v6h-1.445V8.547h1.406l.023.977a2.251,2.251,0,0,1,2.016-1.133,1.477,1.477,0,0,1,.641.109Zm4.836,7.313a3.693,3.693,0,0,1-2.8-1.129,4.19,4.19,0,0,1-1.078-3.02v-.266a5.073,5.073,0,0,1,.48-2.246,3.748,3.748,0,0,1,1.344-1.547,3.378,3.378,0,0,1,1.871-.559,3.166,3.166,0,0,1,2.563,1.086,4.7,4.7,0,0,1,.914,3.109v.6H227.7a3,3,0,0,0,.73,2.02,2.3,2.3,0,0,0,1.777.77,2.517,2.517,0,0,0,1.3-.312,3.258,3.258,0,0,0,.93-.828l.883.688A3.55,3.55,0,0,1,230.133,17.156Zm-.18-7.578a1.928,1.928,0,0,0-1.469.637A3.1,3.1,0,0,0,227.75,12h4.234v-.109a2.753,2.753,0,0,0-.594-1.707A1.815,1.815,0,0,0,229.953,9.578Zm8.539,6.4a2.082,2.082,0,0,0,1.352-.469,1.649,1.649,0,0,0,.641-1.172h1.367a2.621,2.621,0,0,1-.5,1.383,3.293,3.293,0,0,1-1.23,1.047,3.55,3.55,0,0,1-1.629.391A3.482,3.482,0,0,1,235.746,16a4.59,4.59,0,0,1-1.02-3.152v-.242a5.089,5.089,0,0,1,.453-2.2,3.451,3.451,0,0,1,1.3-1.492,3.7,3.7,0,0,1,2-.531,3.39,3.39,0,0,1,2.363.852,3.043,3.043,0,0,1,1,2.211h-1.367a1.992,1.992,0,0,0-.621-1.348,1.932,1.932,0,0,0-1.379-.527,2.023,2.023,0,0,0-1.707.793,3.724,3.724,0,0,0-.605,2.293v.273a3.65,3.65,0,0,0,.6,2.25A2.033,2.033,0,0,0,238.492,15.977ZM245.047,17H243.6V8.547h1.445ZM243.484,6.3a.863.863,0,0,1,.215-.594.807.807,0,0,1,.637-.242.819.819,0,0,1,.641.242.854.854,0,0,1,.219.594.826.826,0,0,1-.219.586.834.834,0,0,1-.641.234.821.821,0,0,1-.637-.234A.834.834,0,0,1,243.484,6.3Zm5.234,2.242.039.938a3.122,3.122,0,0,1,2.508-1.094A2.417,2.417,0,0,1,253.68,9.75a3.2,3.2,0,0,1,1.1-.984,3.242,3.242,0,0,1,1.6-.375q2.781,0,2.828,2.945V17h-1.445V11.422a1.941,1.941,0,0,0-.414-1.355,1.823,1.823,0,0,0-1.391-.449,1.917,1.917,0,0,0-1.336.48A1.949,1.949,0,0,0,254,11.391V17h-1.453V11.461a1.613,1.613,0,0,0-1.8-1.844,1.934,1.934,0,0,0-1.945,1.211V17h-1.445V8.547ZM262.953,17h-1.445V8.547h1.445ZM261.391,6.3a.863.863,0,0,1,.215-.594.807.807,0,0,1,.637-.242.819.819,0,0,1,.641.242.854.854,0,0,1,.219.594.826.826,0,0,1-.219.586.834.834,0,0,1-.641.234.821.821,0,0,1-.637-.234A.834.834,0,0,1,261.391,6.3Zm7.383,10.852a3.693,3.693,0,0,1-2.8-1.129,4.19,4.19,0,0,1-1.078-3.02v-.266a5.073,5.073,0,0,1,.48-2.246,3.748,3.748,0,0,1,1.344-1.547,3.379,3.379,0,0,1,1.871-.559,3.166,3.166,0,0,1,2.563,1.086,4.7,4.7,0,0,1,.914,3.109v.6h-5.727a3,3,0,0,0,.73,2.02,2.3,2.3,0,0,0,1.777.77,2.517,2.517,0,0,0,1.3-.312,3.259,3.259,0,0,0,.93-.828l.883.688A3.55,3.55,0,0,1,268.773,17.156Zm-.18-7.578a1.928,1.928,0,0,0-1.469.637A3.1,3.1,0,0,0,266.391,12h4.234v-.109a2.753,2.753,0,0,0-.594-1.707A1.815,1.815,0,0,0,268.594,9.578Zm6.516-1.031.047,1.063a3.08,3.08,0,0,1,2.531-1.219q2.68,0,2.7,3.023V17h-1.445V11.406a1.946,1.946,0,0,0-.418-1.352,1.675,1.675,0,0,0-1.277-.437,2.086,2.086,0,0,0-1.234.375,2.546,2.546,0,0,0-.828.984V17h-1.445V8.547ZM284.531,6.5V8.547h1.578V9.664h-1.578v5.242a1.171,1.171,0,0,0,.211.762.888.888,0,0,0,.719.254,3.5,3.5,0,0,0,.688-.094V17a4.19,4.19,0,0,1-1.109.156,1.8,1.8,0,0,1-1.461-.586,2.517,2.517,0,0,1-.492-1.664V9.664h-1.539V8.547h1.539V6.5Zm2.727,6.2a4.993,4.993,0,0,1,.488-2.234,3.643,3.643,0,0,1,1.359-1.531,3.7,3.7,0,0,1,1.988-.539,3.565,3.565,0,0,1,2.793,1.2,4.6,4.6,0,0,1,1.066,3.18v.1a5.036,5.036,0,0,1-.473,2.215,3.589,3.589,0,0,1-1.352,1.527,3.743,3.743,0,0,1-2.02.547,3.556,3.556,0,0,1-2.785-1.2,4.575,4.575,0,0,1-1.066-3.164Zm1.453.172a3.616,3.616,0,0,0,.652,2.258,2.211,2.211,0,0,0,3.5-.012,3.955,3.955,0,0,0,.648-2.418,3.61,3.61,0,0,0-.66-2.254,2.1,2.1,0,0,0-1.754-.863,2.075,2.075,0,0,0-1.727.852A3.925,3.925,0,0,0,288.711,12.867Zm8.086,3.375a.905.905,0,0,1,.223-.625.848.848,0,0,1,.668-.25.874.874,0,0,1,.676.25.887.887,0,0,1,.23.625.839.839,0,0,1-.23.6.89.89,0,0,1-.676.242.8.8,0,0,1-.891-.844Z" transform="translate(1719.26 -8403.221)" fill="#12263f"/>
    <path id="Trazado_1350160" data-name="Trazado 1350160" d="M14.245,21.575H6.089V30H1.841V9.383H15.265v3.441H6.089v5.324h8.156Zm20.419-1.416A12.446,12.446,0,0,1,33.588,25.5a8.1,8.1,0,0,1-3.08,3.54,8.519,8.519,0,0,1-4.595,1.246,8.577,8.577,0,0,1-4.574-1.232,8.184,8.184,0,0,1-3.115-3.519,12.09,12.09,0,0,1-1.119-5.26v-1.02a12.381,12.381,0,0,1,1.1-5.36,8.171,8.171,0,0,1,3.1-3.554A8.53,8.53,0,0,1,25.885,9.1a8.53,8.53,0,0,1,4.581,1.239,8.171,8.171,0,0,1,3.1,3.554,12.346,12.346,0,0,1,1.1,5.345Zm-4.3-.935A8.676,8.676,0,0,0,29.2,14.3a3.784,3.784,0,0,0-3.313-1.685,3.785,3.785,0,0,0-3.3,1.664,8.577,8.577,0,0,0-1.175,4.878v1.005a8.785,8.785,0,0,0,1.161,4.9A3.774,3.774,0,0,0,25.913,26.8,3.74,3.74,0,0,0,29.2,25.122a8.734,8.734,0,0,0,1.161-4.892Z" transform="translate(1718.955 -8444.961)" fill="#12263f"/>
    <path id="arrow-up-wide-narrow-svgrepo-com" d="M9.842,1.212c-.014-.014-.034-.019-.05-.033A1.611,1.611,0,0,0,9.335.87l-.01,0H9.32a1.549,1.549,0,0,0-.554-.1,1.593,1.593,0,0,0-.271.023H8.5a1.41,1.41,0,0,0-.2.038l.01,0a1.536,1.536,0,0,0-.729.39h0L1.215,7.585A1.593,1.593,0,0,0,3.468,9.838L7.121,6.186V38.026a1.593,1.593,0,0,0,3.186,0h0V6.186L13.96,9.838a1.593,1.593,0,0,0,2.253-2.253h0ZM38.03,3.295H24.01a1.593,1.593,0,1,0,0,3.186H38.03a1.593,1.593,0,1,0,0-3.186Zm-2.549,7.647H24.01a1.593,1.593,0,1,0,0,3.186H35.481a1.593,1.593,0,1,0,0-3.186ZM27.834,33.884H24.01a1.593,1.593,0,1,0,0,3.186h3.824a1.593,1.593,0,1,0,0-3.186Zm2.549-7.647H24.01a1.593,1.593,0,1,0,0,3.186h6.373a1.593,1.593,0,1,0,0-3.186Zm2.549-7.647H24.01a1.593,1.593,0,1,0,0,3.186h8.922a1.593,1.593,0,1,0,0-3.186Z" transform="translate(2136.563 -8403.765)" fill="#7cea9c"/>
    <path id="Trazado_1350161" data-name="Trazado 1350161" d="M0,0H485a16,16,0,0,1,16,16v88a16,16,0,0,1-16,16H16A16,16,0,0,1,0,104Z" transform="translate(1685.389 -8337)" fill="#d8f5ff"/>
    <path id="Trazado_1350137" data-name="Trazado 1350137" d="M296.79,90.027v98.412h98.149A107.584,107.584,0,0,0,296.79,90.027" transform="translate(1388.21 -8404.987)" fill="#7fdeff"/>
    <path id="Trazado_1350138" data-name="Trazado 1350138" d="M296.79,99.92v88.592h88.33A97.8,97.8,0,0,0,296.79,99.92" transform="translate(1388.21 -8405.06)" fill="#fff"/>
    <g id="Grupo_1210283" data-name="Grupo 1210283" transform="translate(876.09 -11740.039)">
      <text id="Fortalezas_amenazas_protección." data-name="Fortalezas + amenazas = protección." transform="translate(941.254 3473.779)" fill="#12263f" font-size="16" font-family="Roboto-Regular, Roboto"><tspan x="0" y="17">Fortalezas + amenazas = protección.</tspan></text>
      <text id="FA" transform="translate(941.254 3432.039)" fill="#12263f" font-size="29" font-family="Roboto-Bold, Roboto" font-weight="700"><tspan x="0" y="30">FA</tspan></text>
    </g>
    <g id="padlock-outlined-svgrepo-com" transform="translate(1699.631 -8269)">
      <path id="Trazado_1350150" data-name="Trazado 1350150" d="M11.507,18.752H7.045A2.042,2.042,0,0,0,5,20.793C5,24.163,5,30.97,5,35.555c0,5.139,7.947,6.3,14.315,6.3s14.315-1.162,14.315-6.3V20.793a2.042,2.042,0,0,0-2.045-2.041H27.124m-15.617,0s0-5.251,0-8.4A7.53,7.53,0,0,1,19.315,3a7.531,7.531,0,0,1,7.808,7.351v8.4m-15.617,0H27.124" transform="translate(-5 -3)" fill="rgba(0,0,0,0)" stroke="#7fdeff" stroke-linecap="round" stroke-linejoin="round" stroke-width="3.5"/>
      <path id="Trazado_1350151" data-name="Trazado 1350151" d="M15.613,19.354V22.18a2.045,2.045,0,0,1-4.09,0V19.354a3.068,3.068,0,1,1,4.09,0Z" transform="translate(0.748 8.495)" fill="#7fdeff" fill-rule="evenodd"/>
    </g>
    <path id="Trazado_1350162" data-name="Trazado 1350162" d="M16,0H485a16,16,0,0,1,16,16v88a16,16,0,0,1-16,16H0V16A16,16,0,0,1,16,0Z" transform="translate(1685 -8202)" fill="#fff5da"/>
    <path id="Trazado_1350130" data-name="Trazado 1350130" d="M277.808,305.255V206.843H179.659a107.584,107.584,0,0,0,98.149,98.412" transform="translate(1908.581 -8408.843)" fill="#fccd49"/>
    <path id="Trazado_1350131" data-name="Trazado 1350131" d="M277.881,295.435V206.843h-88.33a97.8,97.8,0,0,0,88.33,88.592" transform="translate(1908.508 -8408.843)" fill="#fff"/>
    <g id="Grupo_1210284" data-name="Grupo 1210284" transform="translate(1718.955 -8176.148)">
      <text id="Debilidades_oportunidades_mejora." data-name="Debilidades + oportunidades = mejora." transform="translate(0 41.74)" fill="#12263f" font-size="16" font-family="Roboto-Regular, Roboto"><tspan x="0" y="17">Debilidades + oportunidades = mejora.</tspan></text>
      <text id="DO" fill="#12263f" font-size="29" font-family="Roboto-Bold, Roboto" font-weight="700"><tspan x="0" y="30">DO</tspan></text>
    </g>
    <g id="arrow-up-graph-svgrepo-com" transform="translate(2137.313 -8188.998)">
      <path id="Trazado_1350147" data-name="Trazado 1350147" d="M40.356,39.355H1.5V.5" transform="translate(-1.5 -0.5)" fill="none" stroke="#fccd49" stroke-linecap="round" stroke-miterlimit="10" stroke-width="3"/>
      <path id="Trazado_1350148" data-name="Trazado 1350148" d="M38.66,3.37l-16.885,16.9-6.764-6.764L1.5,27.019" transform="translate(-1.5 1.699)" fill="none" stroke="#fccd49" stroke-linecap="round" stroke-miterlimit="10" stroke-width="3"/>
      <path id="Trazado_1350149" data-name="Trazado 1350149" d="M17.76,3.37H26.2v8.442" transform="translate(10.958 1.699)" fill="none" stroke="#fccd49" stroke-linecap="round" stroke-miterlimit="10" stroke-width="3"/>
    </g>
    <path id="Trazado_1350163" data-name="Trazado 1350163" d="M16,0H485a16,16,0,0,1,16,16v88a16,16,0,0,1-16,16H0V16A16,16,0,0,1,16,0Z" transform="translate(1685.389 -8068)" fill="#efeffc"/>
    <path id="Trazado_1350133" data-name="Trazado 1350133" d="M296.79,305.255a107.584,107.584,0,0,0,98.149-98.412H296.79Z" transform="translate(1388.21 -8274.843)" fill="#6665dd"/>
    <path id="Trazado_1350134" data-name="Trazado 1350134" d="M296.79,295.435a97.8,97.8,0,0,0,88.33-88.592H296.79Z" transform="translate(1388.21 -8274.843)" fill="#fff"/>
    <g id="Grupo_1210285" data-name="Grupo 1210285" transform="translate(1817.344 -8041.961)">
      <text id="Debilidades_amenazas_defensa." data-name="Debilidades + amenazas = defensa." transform="translate(0 41.74)" fill="#12263f" font-size="16" font-family="Roboto-Regular, Roboto"><tspan x="0" y="17">Debilidades + amenazas = defensa.</tspan></text>
      <text id="DA" fill="#12263f" font-size="29" font-family="Roboto-Bold, Roboto" font-weight="700"><tspan x="0" y="30">DA</tspan></text>
    </g>
    <path id="shield-check-svgrepo-com" d="M14.8,22.361l4.32,4.32,8.64-8.64m10.8,4.32c0,9.636-11.794,16.618-15.894,18.755a3.463,3.463,0,0,1-.973.407,2.449,2.449,0,0,1-.825,0,3.463,3.463,0,0,1-.973-.407C15.793,38.979,4,32,4,22.361v-8.17a9.831,9.831,0,0,1,.282-3.333,4.32,4.32,0,0,1,1.181-1.7A9.831,9.831,0,0,1,8.485,7.719L20.066,3.376a4.59,4.59,0,0,1,.9-.286,2.16,2.16,0,0,1,.618,0,4.59,4.59,0,0,1,.9.286L34.075,7.719A9.83,9.83,0,0,1,37.1,9.154a4.319,4.319,0,0,1,1.181,1.7,9.828,9.828,0,0,1,.283,3.333Z" transform="translate(1695.631 -8058.568)" fill="none" stroke="#6665dd" stroke-linecap="round" stroke-linejoin="round" stroke-width="3.5"/>
  </g>
</svg>
