<svg xmlns="http://www.w3.org/2000/svg" width="135.001" height="151.924" viewBox="0 0 135.001 151.924"><defs><clipPath id="a"><path fill="none" d="M0 0h135.001v151.923H0z"/></clipPath></defs><path fill="#d62222" d="m.022 104.982 80.311 46.942-.01-2.4L0 102.588Zm80.301 44.54.012 2.4 54.666-31.85-.015-2.4Z"/><path fill="#6c1a0f" d="m0 102.587 80.323 46.935 54.663-31.85-80.315-46.94Z"/><path fill="#6c1a0f" d="M128.818 108.231v12.708l5.448-3.965v-11.369Z"/><path fill="#ebebeb" d="m4.875 93.957.023 9.46 75.451 44.088-.02-9.462Z"/><path fill="#9cb5cc" d="M130.686 108.736v9.477l-50.331 29.292-.027-9.462Z"/><path fill="#dcdcdc" d="m55.619 64.389 72.32 42.256v3.655L80.33 138.042 4.875 93.955Z"/><path fill="#d62222" d="m.022 91.123 80.311 46.937-.01-2.4L0 88.719Zm80.301 44.534.012 2.4 54.666-31.842-.015-2.4Z"/><path fill="#ff5542" d="m0 88.72 80.323 46.937 54.663-31.848L54.671 56.87Z"/><path fill="#d62222" d="M132.481 106.336v14.106l2.52-1.31v-14.355Z"/><path fill="#e68027" d="m14.91 83.203.01 2.1 69.955 40.879-.017-2.094Z"/><path fill="#e68027" d="m84.858 124.088.017 2.094 47.606-27.738-.015-2.1Z"/><path fill="#8a4c01" d="m14.91 83.203 69.948 40.886 47.606-27.741-69.946-40.881Z"/><path fill="#8a4c01" d="m127.102 88.13 4.742-2.291v9.9l-4.742 3.45Z"/><path fill="#ebebeb" d="m19.144 75.694.022 8.239 65.715 38.395-.017-8.239Z"/><path fill="#9cb5cc" d="M128.72 88.566v8.252l-43.839 25.509-.017-8.237Z"/><path fill="#dcdcdc" d="m63.343 49.942 62.991 36.8v3.181L84.862 114.09l-65.718-38.4Z"/><path fill="#e68027" d="m14.91 71.126.01 2.1 69.955 40.884-.017-2.1Z"/><path fill="#e68027" d="m84.858 112.014.017 2.1 47.606-27.747-.015-2.094Z"/><path fill="#ffb923" d="m14.91 71.126 69.948 40.888 47.606-27.741L62.518 43.39Z"/><path fill="#e68027" d="M130.29 86.474V98.76l2.19-1.144V85.122Z"/><path fill="#b9cc12" d="m114.175 64.915-.01 1.746-58.397 34.131.01-1.748Z"/><path fill="#82940d" d="m55.779 99.047-.01 1.748-39.746-23.158.01-1.748Z"/><path fill="#445e1b" d="M114.175 64.915 55.778 99.048l-39.75-23.159 58.4-34.131Z"/><path fill="#445e1b" d="m20.511 69.025-3.958-1.916v8.271l3.958 2.88Z"/><path fill="#9cb5cc" d="m110.639 58.643-.015 6.878-54.863 32.062.012-6.883Z"/><path fill="#ebebeb" d="M19.156 69.394v6.888l36.607 21.3.012-6.883Z"/><path fill="#dcdcdc" d="M73.737 37.147 21.15 67.87v2.658l34.624 20.173 54.866-32.057Z"/><path fill="#b9cc12" d="m114.175 54.833-.01 1.748-58.4 34.131.01-1.746Z"/><path fill="#82940d" d="m55.779 88.966-.01 1.746-39.746-23.159.01-1.746Z"/><path fill="#b9cc12" d="M114.175 54.832 55.778 88.967l-39.75-23.159 58.4-34.131Z"/><path fill="#82940d" d="m16.023 76.948 1.827.952V67.642l-1.827-1.128Z"/><g clip-path="url(#a)"><path fill="#181d1f" d="M44.067 25.298v32.133c0 7.7 12.1 13.946 27.033 13.946s27.041-6.244 27.041-13.946V25.298Z"/><path fill="#282e30" d="m119.164 28.002-.016 4.745-47.746 28 .015-4.742Z"/><path fill="#22292b" d="m71.415 56.001-.014 4.745-48.062-28 .012-4.745Z"/><path fill="#ff5542" d="m46.285 41.388-2.316-1.359-.012 14.809 2.328 1.386Z"/><path fill="#31393d" d="M119.165 28 71.416 56 23.352 28 71.101 0Z"/><path fill="#ff5542" d="m46.314 41.406 25.073-14.717-2.308-1.391-25.123 14.73Zm1.397 15.496a2.591 2.591 0 1 0-2.594 2.619 2.6 2.6 0 0 0 2.594-2.619"/></g></svg>