<svg xmlns="http://www.w3.org/2000/svg" xmlns:xlink="http://www.w3.org/1999/xlink" width="56.12" height="59.249" viewBox="0 0 56.12 59.249"><defs><clipPath id="a"><rect width="56.12" height="59.249" transform="translate(0 0)" fill="#63bb7c"/></clipPath></defs><g clip-path="url(#a)"><path d="M15.746,12.517a1.312,1.312,0,1,1-1.312,1.312,1.311,1.311,0,0,1,1.312-1.312" fill="#63bb7c"/><path d="M12.012,12.517A1.312,1.312,0,1,1,10.7,13.829a1.311,1.311,0,0,1,1.312-1.312" fill="#63bb7c"/><path d="M8.176,12.517a1.312,1.312,0,1,1-1.313,1.312,1.311,1.311,0,0,1,1.313-1.312" fill="#63bb7c"/><path d="M10.094,7.469a2.5,2.5,0,0,0,2.523-2.523,2.523,2.523,0,1,0-5.046,0,2.5,2.5,0,0,0,2.523,2.523m0-3.734A1.312,1.312,0,1,1,8.782,5.046a1.271,1.271,0,0,1,1.312-1.311" fill="#63bb7c"/><path d="M45.118,6.864A3.4,3.4,0,0,0,48.55,3.433a3.432,3.432,0,1,0-6.865,0,3.4,3.4,0,0,0,3.433,3.431m0-5.652a2.241,2.241,0,0,1,2.221,2.221,2.221,2.221,0,0,1-4.442,0,2.24,2.24,0,0,1,2.221-2.221" fill="#63bb7c"/><path d="M.908,8.781A.908.908,0,1,1,0,9.69a.909.909,0,0,1,.908-.909" fill="#63bb7c"/><path d="M18.572,2.523a.909.909,0,1,1-.908.909.909.909,0,0,1,.908-.909" fill="#63bb7c"/><path d="M36.235,3.735a.908.908,0,1,1-.908.908.907.907,0,0,1,.908-.908" fill="#63bb7c"/><path d="M24.931,6.259a.908.908,0,1,1-.908.908.907.907,0,0,1,.908-.908" fill="#63bb7c"/><path d="M55.211,8.781a.908.908,0,1,1-.908.909.909.909,0,0,1,.908-.909" fill="#63bb7c"/><path d="M48.953,9.388H6.56a4.049,4.049,0,0,0-4.037,4.037V55.212A4.049,4.049,0,0,0,6.56,59.249H48.953a4.048,4.048,0,0,0,4.037-4.037V13.425a4.049,4.049,0,0,0-4.037-4.037M23.922,14.434H51.679v2.523H23.922Zm27.757-1.211H23.922V10.7H48.953a2.747,2.747,0,0,1,2.726,2.523M6.56,10.7H22.71v6.359H3.734V13.425A2.8,2.8,0,0,1,6.56,10.7M48.953,57.937H6.56a2.822,2.822,0,0,1-2.826-2.826V18.27H51.679V55.212a2.714,2.714,0,0,1-2.726,2.725" fill="#63bb7c"/><path d="M47.339,22H8.176a.652.652,0,0,0-.606.606V53.5a.652.652,0,0,0,.606.606H47.339a.651.651,0,0,0,.6-.606V22.61a.651.651,0,0,0-.6-.606m-32.5,30.887a1.918,1.918,0,0,1,0-3.836h25.84a1.918,1.918,0,1,1,0,3.836Zm31.8,0H43.2a3.107,3.107,0,0,0,.606-1.918,3.145,3.145,0,0,0-3.129-3.129H14.837a3.145,3.145,0,0,0-3.129,3.129,3.1,3.1,0,0,0,.607,1.918H8.882V23.317H46.733V52.891Z" fill="#63bb7c"/><path d="M18.875,33.713l.5-.1V45.925a.652.652,0,0,0,.606.606H36.135a.652.652,0,0,0,.606-.606V33.611l.5.1a2.707,2.707,0,0,0,2.725-.707,2.775,2.775,0,0,0-.807-4.542L32.1,25.133c-.3-.2-.707,0-.909.4a3.581,3.581,0,0,1-3.33,2.422,3.451,3.451,0,0,1-3.331-2.422c-.1-.4-.5-.505-.909-.4l-6.762,3.23a2.943,2.943,0,0,0-1.615,2.523,2.889,2.889,0,0,0,3.633,2.827m-2.321-2.726a1.524,1.524,0,0,1,.908-1.413l6.157-3.028a4.755,4.755,0,0,0,3.633,2.523V36.74a.606.606,0,0,0,1.212,0V29.069A4.756,4.756,0,0,0,32.1,26.546l6.561,3.028a1.584,1.584,0,0,1,.908,1.413A1.558,1.558,0,0,1,37.649,32.5l-1.312-.3a.646.646,0,0,0-.807.6V45.32H20.591V32.8a.647.647,0,0,0-.807-.6l-1.313.3a1.5,1.5,0,0,1-1.917-1.514" fill="#63bb7c"/></g></svg>