<svg xmlns="http://www.w3.org/2000/svg" xmlns:xlink="http://www.w3.org/1999/xlink" width="94.208" height="91.699" viewBox="0 0 94.208 91.699"><defs><clipPath id="a"><rect width="94.208" height="91.699" fill="#599cb3"/></clipPath></defs><g transform="translate(0 0)"><g transform="translate(0 0)" clip-path="url(#a)"><path d="M55.069,15.75a1.988,1.988,0,0,1,.627,1.41,1.7,1.7,0,0,1-.627,1.41,1.98,1.98,0,0,1-1.412.628,2.075,2.075,0,0,1-2.037-2.038,1.7,1.7,0,0,1,.627-1.41,1.985,1.985,0,0,1,1.41-.627,2.333,2.333,0,0,1,1.412.627" transform="translate(28.636 8.389)" fill="#599cb3"/><path d="M44.986,4.458a1.982,1.982,0,0,1,.627,1.41,1.7,1.7,0,0,1-.627,1.412,1.985,1.985,0,0,1-1.41.627,2.075,2.075,0,0,1-2.038-2.038,1.7,1.7,0,0,1,.627-1.41,2.333,2.333,0,0,1,1.412-.627,1.526,1.526,0,0,1,1.41.627" transform="translate(23.043 2.124)" fill="#599cb3"/><path d="M33.594,1.938a1.982,1.982,0,0,1,.627,1.41,1.7,1.7,0,0,1-.627,1.41,1.98,1.98,0,0,1-1.412.628,2.075,2.075,0,0,1-2.037-2.038,1.7,1.7,0,0,1,.627-1.41,2.328,2.328,0,0,1,1.41-.627,1.527,1.527,0,0,1,1.412.627" transform="translate(16.723 0.726)" fill="#599cb3"/><path d="M23.511,5.668a1.982,1.982,0,0,1,.627,1.41,1.7,1.7,0,0,1-.627,1.41,1.98,1.98,0,0,1-1.41.628,2.075,2.075,0,0,1-2.038-2.038,1.7,1.7,0,0,1,.628-1.41,1.979,1.979,0,0,1,1.41-.627,2.938,2.938,0,0,1,1.41.627" transform="translate(11.13 2.796)" fill="#599cb3"/><rect width="3.918" height="3.918" transform="translate(21.631 23.668)" fill="#599cb3"/><rect width="3.92" height="3.918" transform="translate(15.675 23.668)" fill="#599cb3"/><path d="M13.429,25.832a1.982,1.982,0,0,1,.627,1.41,1.7,1.7,0,0,1-.627,1.41,2.321,2.321,0,0,1-1.41.628,2.075,2.075,0,0,1-2.038-2.038,1.7,1.7,0,0,1,.627-1.41,1.992,1.992,0,0,1,1.412-.627,2.953,2.953,0,0,1,1.41.627" transform="translate(5.537 13.981)" fill="#599cb3"/><path d="M13.429,29.663a1.992,1.992,0,0,1,.627,1.412,1.529,1.529,0,0,1-.627,1.41,2.332,2.332,0,0,1-1.41.63,2.078,2.078,0,0,1-2.038-2.04,1.709,1.709,0,0,1,.627-1.412,2,2,0,0,1,1.412-.627,1.533,1.533,0,0,1,1.41.627" transform="translate(5.537 16.107)" fill="#599cb3"/><path d="M13.429,33.394a1.985,1.985,0,0,1,.627,1.41,1.535,1.535,0,0,1-.627,1.413,2.336,2.336,0,0,1-1.41.625A2.075,2.075,0,0,1,9.981,34.8a1.706,1.706,0,0,1,.627-1.41,1.992,1.992,0,0,1,1.412-.627,2.968,2.968,0,0,1,1.41.627" transform="translate(5.537 18.176)" fill="#599cb3"/><rect width="3.918" height="3.918" transform="translate(9.876 23.668)" fill="#599cb3"/><path d="M92.17,24.239H2.037a2.037,2.037,0,0,1,0-4.075H92.17A2.074,2.074,0,0,1,94.208,22.2a2.191,2.191,0,0,1-2.038,2.038" transform="translate(0 11.185)" fill="#599cb3"/><path d="M63.911,19.2H24.723a2.037,2.037,0,1,1,0-4.075H63.911a2.074,2.074,0,0,1,2.038,2.037A2.191,2.191,0,0,1,63.911,19.2" transform="translate(12.584 8.389)" fill="#599cb3"/><path d="M84.645,86.106H9.4A9.432,9.432,0,0,1,0,76.7V19.487a9.431,9.431,0,0,1,9.4-9.4h75.24a9.432,9.432,0,0,1,9.406,9.4V76.7a9.432,9.432,0,0,1-9.406,9.406M9.4,14.157a5.554,5.554,0,0,0-5.487,5.487V76.858A5.553,5.553,0,0,0,9.4,82.343h75.24a5.553,5.553,0,0,0,5.487-5.485V19.487A5.555,5.555,0,0,0,84.645,14Z" transform="translate(0 5.592)" fill="#599cb3"/><path d="M54.969,68.469a2.075,2.075,0,0,1-2.038-2.038V27.242a2.038,2.038,0,0,1,4.077,0V66.431a2.328,2.328,0,0,1-2.038,2.038" transform="translate(29.363 13.981)" fill="#599cb3"/><path d="M7.079,68.469a2.075,2.075,0,0,1-2.038-2.038V27.242a2.038,2.038,0,0,1,4.077,0V66.431a2.326,2.326,0,0,1-2.038,2.038" transform="translate(2.796 13.981)" fill="#599cb3"/><path d="M13.518,11.912A5.956,5.956,0,0,1,13.518,0a5.823,5.823,0,0,1,5.8,5.956,5.923,5.923,0,0,1-5.8,5.956m0-7.837A2.075,2.075,0,0,0,11.48,6.113a2.038,2.038,0,0,0,4.077,0,2.181,2.181,0,0,0-2.038-2.038" transform="translate(4.195 -0.001)" fill="#599cb3"/><path d="M54.06,11.13a4.859,4.859,0,1,1,4.86-4.859,4.884,4.884,0,0,1-4.86,4.859m0-5.956a1.013,1.013,0,0,0-.941.939.941.941,0,1,0,1.881,0,1.011,1.011,0,0,0-.941-.939" transform="translate(27.293 0.782)" fill="#599cb3"/><path d="M53.451,54.486H43.576a2.037,2.037,0,0,1,0-4.075h9.876a2.074,2.074,0,0,1,2.038,2.037,2.326,2.326,0,0,1-2.038,2.038" transform="translate(23.043 27.964)" fill="#599cb3"/><path d="M21.895,54.486H12.019a2.037,2.037,0,1,1,0-4.075h9.876a2.037,2.037,0,1,1,0,4.075" transform="translate(5.537 27.964)" fill="#599cb3"/><path d="M26.209,60.079H18.371a2.075,2.075,0,0,1-2.038-2.038V42.366a2.075,2.075,0,0,1,2.038-2.038h7.837a2.038,2.038,0,1,1,0,4.077H20.253V56.16h5.956A2.075,2.075,0,0,1,28.247,58.2a2.053,2.053,0,0,1-2.038,1.881" transform="translate(9.061 22.371)" fill="#599cb3"/><path d="M31.25,61.813H23.412a2.075,2.075,0,0,1-2.038-2.038V39.24A2.074,2.074,0,0,1,23.412,37.2H31.25a2.037,2.037,0,1,1,0,4.075H25.294V57.894H31.25a2.075,2.075,0,0,1,2.038,2.038,2.053,2.053,0,0,1-2.038,1.881" transform="translate(11.857 20.637)" fill="#599cb3"/><path d="M36.291,63.043H28.452a2.075,2.075,0,0,1-2.037-2.038V37.023a2.075,2.075,0,0,1,2.037-2.038h7.839a2.037,2.037,0,1,1,0,4.075H30.335V59.124h5.956a2.075,2.075,0,0,1,2.038,2.038,2.053,2.053,0,0,1-2.038,1.881" transform="translate(14.653 19.407)" fill="#599cb3"/><path d="M41.332,64.274H33.494a2.075,2.075,0,0,1-2.038-2.038V34.8a2.076,2.076,0,0,1,2.038-2.038h7.837a2.037,2.037,0,1,1,0,4.075H35.376V60.355h5.956a2.075,2.075,0,0,1,2.038,2.038,2.053,2.053,0,0,1-2.038,1.881" transform="translate(17.45 18.176)" fill="#599cb3"/><path d="M46.373,65.672H38.535A2.076,2.076,0,0,1,36.5,63.634V32.282a2.074,2.074,0,0,1,2.038-2.035h7.837a2.074,2.074,0,0,1,2.038,2.035V63.634a2.076,2.076,0,0,1-2.038,2.038m-5.8-3.92h3.92V34.322h-3.92Z" transform="translate(20.246 16.778)" fill="#599cb3"/><path d="M23.688,36.842H15.85a2.037,2.037,0,1,1,0-4.075h7.837a2.037,2.037,0,1,1,0,4.075" transform="translate(7.662 18.176)" fill="#599cb3"/><path d="M23.688,32.956H15.85a2.075,2.075,0,0,1-2.038-2.038,1.944,1.944,0,0,1,2.038-1.881h7.837a2.076,2.076,0,0,1,2.038,2.038,1.944,1.944,0,0,1-2.038,1.881" transform="translate(7.662 16.107)" fill="#599cb3"/><path d="M23.688,29.28H15.85a2.037,2.037,0,1,1,0-4.075h7.837a2.037,2.037,0,1,1,0,4.075" transform="translate(7.662 13.981)" fill="#599cb3"/></g></g></svg>